M48
; DRILL file {KiCad 9.0.2} date 2025-11-21T20:47:16-0800
; FORMAT={-:-/ absolute / metric / decimal}
; #@! TF.CreationDate,2025-11-21T20:47:16-08:00
; #@! TF.GenerationSoftware,Kicad,Pcbnew,9.0.2
; #@! TF.FileFunction,Plated,1,4,PTH
FMAT,2
METRIC
; #@! TA.AperFunction,Plated,PTH,ViaDrill
T1C0.300
%
G90
G05
T1
X79.98Y-106.549
X80.25Y-104.645
X80.382Y-104.02
X80.907Y-108.02
X80.937Y-105.126
X81.015Y-99.098
X81.06Y-102.92
X81.11Y-100.819
X81.135Y-94.787
X81.174Y-93.944
X81.402Y-107.141
X81.416Y-97.09
X81.55Y-105.083
X81.703Y-95.268
X81.768Y-109.7
X81.847Y-107.943
X81.876Y-102.378
X81.892Y-98.544
X81.898Y-100.921
X82.066Y-103.299
X82.111Y-91.25
X82.138Y-99.406
X82.186Y-101.684
X82.269Y-104.915
X82.319Y-108.792
X82.354Y-93.341
X82.386Y-96.336
X82.447Y-106.872
X82.504Y-96.995
X82.535Y-95.469
X82.574Y-103.898
X82.644Y-111.969
X82.686Y-97.936
X82.707Y-102.141
X82.763Y-93.878
X82.929Y-105.46
X82.977Y-102.918
X83.033Y-99.04
X83.211Y-100.756
X83.315Y-108.525
X83.316Y-91.635
X83.415Y-95.067
X83.532Y-105.357
X83.539Y-110.253
X83.539Y-111.313
X83.579Y-97.323
X83.6Y-94.083
X83.721Y-112.728
X83.733Y-106.756
X83.752Y-88.117
X83.806Y-93.132
X83.823Y-87.379
X83.856Y-99.092
X83.972Y-107.577
X84.14Y-91.544
X84.146Y-93.768
X84.346Y-92.48
X84.462Y-109.965
X84.533Y-97.678
X84.537Y-95.655
X84.54Y-112.147
X84.582Y-98.544
X84.583Y-102.448
X84.614Y-96.257
X84.656Y-103.881
X84.68Y-89.595
X84.825Y-108.835
X84.874Y-103.268
X84.891Y-100.755
X84.929Y-96.893
X84.977Y-90.352
X85.002Y-107.661
X85.012Y-105.805
X85.05Y-94.168
X85.068Y-99.618
X85.081Y-87.315
X85.132Y-109.998
X85.135Y-91.023
X85.172Y-98.201
X85.201Y-114.517
X85.297Y-104.915
X85.483Y-111.256
X85.598Y-104.012
X85.628Y-88.347
X85.629Y-102.275
X85.63Y-89.203
X85.664Y-84.513
X85.747Y-105.939
X85.811Y-93.638
X85.822Y-110.593
X85.831Y-89.999
X85.872Y-109.786
X85.924Y-92.504
X85.927Y-113.699
X85.939Y-107.003
X86.046Y-94.844
X86.079Y-115.846
X86.1Y-105.102
X86.127Y-96.732
X86.128Y-114.362
X86.138Y-111.917
X86.151Y-115.166
X86.192Y-99.117
X86.214Y-85.195
X86.217Y-98.012
X86.359Y-100.815
X86.453Y-88.337
X86.48Y-91.806
X86.486Y-86.379
X86.611Y-104.012
X86.627Y-84.196
X86.628Y-103.322
X86.665Y-87.183
X86.685Y-108.653
X86.721Y-112.193
X86.726Y-113.361
X86.813Y-107.53
X86.818Y-89.107
X86.93Y-110.72
X86.986Y-111.471
X86.989Y-101.939
X87.007Y-114.874
X87.032Y-99.447
X87.051Y-94.699
X87.077Y-87.965
X87.223Y-97.908
X87.228Y-112.938
X87.235Y-83.355
X87.274Y-100.307
X87.319Y-96.338
X87.428Y-105.37
X87.446Y-86.694
X87.48Y-117.011
X87.561Y-87.353
X87.59Y-102.966
X87.6Y-115.958
X87.623Y-104.229
X87.674Y-92.157
X87.676Y-99.502
X87.683Y-112.446
X87.723Y-109.175
X87.725Y-107.958
X87.845Y-115.155
X88.021Y-88.133
X88.022Y-110.286
X88.04Y-89.717
X88.091Y-111.907
X88.155Y-86.527
X88.201Y-90.395
X88.204Y-113.5
X88.229Y-93.774
X88.252Y-108.282
X88.254Y-82.392
X88.285Y-117.517
X88.301Y-92.141
X88.41Y-97.056
X88.606Y-116.145
X88.638Y-104.879
X88.656Y-89.585
X88.711Y-82.914
X88.728Y-96.183
X88.784Y-88.7
X88.84Y-93.212
X88.867Y-109.738
X88.893Y-106.59
X88.928Y-117.611
X88.937Y-86.962
X88.946Y-105.556
X89.005Y-107.873
X89.033Y-85.883
X89.033Y-110.558
X89.133Y-80.808
X89.133Y-96.947
X89.148Y-111.492
X89.259Y-113.432
X89.32Y-81.785
X89.417Y-86.555
X89.516Y-114.69
X89.558Y-85.475
X89.56Y-117.531
X89.573Y-105.346
X89.591Y-106.561
X89.608Y-116.569
X89.651Y-96.517
X89.733Y-110.621
X89.735Y-83.928
X89.746Y-82.975
X89.759Y-88.256
X89.782Y-108.232
X89.797Y-118.601
X89.859Y-90.709
X89.895Y-87.412
X89.898Y-107.106
X89.987Y-103.023
X90.031Y-84.662
X90.068Y-93.208
X90.203Y-94.173
X90.224Y-91.859
X90.231Y-111.578
X90.384Y-108.26
X90.451Y-85.405
X90.501Y-87.412
X90.505Y-115.232
X90.507Y-100.798
X90.581Y-117.337
X90.587Y-107.207
X90.654Y-95.898
X90.676Y-114.325
X90.691Y-82.298
X90.729Y-95.112
X90.829Y-117.974
X90.841Y-81.465
X90.842Y-84.543
X90.86Y-109.206
X90.976Y-85.881
X90.986Y-90.203
X91.069Y-110.408
X91.184Y-82.718
X91.229Y-107.811
X91.281Y-92.039
X91.282Y-115.824
X91.416Y-83.364
X91.469Y-104.538
X91.482Y-84.048
X91.504Y-115.144
X91.52Y-117.447
X91.603Y-81.465
X91.606Y-89.642
X91.667Y-101.751
X91.834Y-116.526
X91.878Y-107.196
X91.901Y-118.122
X91.915Y-86.464
X91.929Y-109.309
X91.939Y-94.38
X91.943Y-84.763
X92.01Y-93.537
X92.04Y-101.162
X92.08Y-88.986
X92.095Y-112.284
X92.097Y-91.978
X92.229Y-104.162
X92.315Y-105.742
X92.393Y-98.502
X92.488Y-115.585
X92.511Y-114.559
X92.556Y-83.748
X92.594Y-111.289
X92.615Y-85.76
X92.674Y-96.017
X92.868Y-112.88
X92.896Y-91.846
X92.916Y-109.113
X92.975Y-88.657
X93.005Y-116.321
X93.026Y-89.57
X93.07Y-117.036
X93.126Y-103.287
X93.14Y-107.304
X93.142Y-101.552
X93.209Y-91.234
X93.271Y-83.373
X93.284Y-86.227
X93.366Y-118.303
X93.51Y-113.981
X93.611Y-102.796
X93.618Y-80.491
X93.701Y-87.245
X93.794Y-111.929
X93.806Y-113.096
X93.908Y-89.392
X93.919Y-120.107
X93.923Y-96.272
X93.929Y-99.562
X93.936Y-117.152
X93.939Y-88.349
X93.951Y-116.283
X93.98Y-90.599
X94.014Y-86.336
X94.037Y-100.269
X94.062Y-114.734
X94.14Y-84.077
X94.218Y-95.184
X94.307Y-108.263
X94.347Y-101.579
X94.377Y-118.943
X94.411Y-94.51
X94.492Y-80.1
X94.533Y-85.383
X94.533Y-97.021
X94.539Y-82.91
X94.58Y-114.231
X94.65Y-116.454
X94.715Y-100.004
X94.721Y-104.261
X94.731Y-100.682
X94.736Y-111.91
X94.745Y-103.086
X94.757Y-98.473
X94.767Y-117.195
X94.794Y-108.653
X94.864Y-83.454
X94.888Y-95.678
X94.934Y-86.46
X94.969Y-114.735
X95.207Y-118.788
X95.246Y-82.298
X95.271Y-106.648
X95.396Y-110.701
X95.42Y-104.699
X95.486Y-88.726
X95.541Y-117.582
X95.57Y-116.962
X95.615Y-112.452
X95.64Y-85.316
X95.64Y-86.347
X95.681Y-116.114
X95.772Y-92.913
X95.849Y-113.929
X95.849Y-114.875
X96.118Y-83.109
X96.125Y-91.052
X96.173Y-116.915
X96.292Y-105.547
X96.356Y-82.474
X96.379Y-102.924
X96.38Y-100.653
X96.438Y-101.953
X96.476Y-96.377
X96.518Y-99.662
X96.551Y-88.945
X96.614Y-112.728
X96.689Y-113.571
X96.708Y-97.664
X96.722Y-94.591
X96.739Y-107.903
X96.759Y-91.289
X96.893Y-105.45
X96.921Y-80.644
X96.963Y-84.955
X96.973Y-86.129
X97.025Y-116.896
X97.043Y-107.322
X97.047Y-114.762
X97.1Y-106.646
X97.118Y-119.202
X97.191Y-117.622
X97.239Y-81.757
X97.284Y-80.055
X97.332Y-115.821
X97.332Y-83.006
X97.378Y-96.867
X97.492Y-84.099
X97.611Y-82.267
X97.668Y-105.826
X97.879Y-107.685
X97.894Y-92.25
X97.975Y-113.529
X98.053Y-118.087
X98.057Y-88.446
X98.081Y-117.171
X98.086Y-84.698
X98.128Y-96.841
X98.246Y-80.256
X98.246Y-82.828
X98.298Y-87.245
X98.32Y-112.407
X98.325Y-115.38
X98.473Y-105.707
X98.539Y-94.591
X98.576Y-114.574
X98.63Y-103.5
X98.742Y-119.957
X98.812Y-85.389
X98.873Y-111.369
X98.909Y-105.291
X99.022Y-88.446
X99.039Y-106.574
X99.058Y-113.484
X99.214Y-94.785
X99.228Y-116.203
X99.242Y-86.226
X99.242Y-119.3
X99.244Y-89.967
X99.373Y-117.897
X99.529Y-105.461
X99.59Y-111.161
X99.619Y-94.31
X99.66Y-117.333
X99.699Y-87.314
X99.705Y-88.127
X99.711Y-96.648
X99.749Y-115.21
X99.799Y-82.491
X99.823Y-112.355
X99.835Y-84.938
X99.844Y-79.909
X99.849Y-93.01
X99.93Y-92.049
X100.201Y-82.02
X100.233Y-84.4
X100.277Y-117.298
X100.315Y-87.239
X100.325Y-107.591
X100.437Y-115.127
X100.445Y-93.75
X100.454Y-112.399
X100.464Y-105.395
X100.514Y-88.087
X100.526Y-109.523
X100.526Y-110.804
X100.537Y-103.398
X100.633Y-92.944
X100.657Y-118.297
X100.752Y-106.106
X100.762Y-80.918
X100.775Y-85.288
X100.829Y-84.686
X100.889Y-114.224
X100.93Y-87.611
X101.008Y-82.166
X101.202Y-112.84
X101.26Y-86.146
X101.37Y-117.293
X101.448Y-106.114
X101.5Y-96.878
X101.533Y-82.531
X101.609Y-94.588
X101.702Y-113.784
X101.752Y-80.21
X101.772Y-111.859
X101.777Y-85.526
X101.787Y-103.421
X101.822Y-117.888
X101.832Y-115.081
X101.848Y-105.397
X102.042Y-113.175
X102.055Y-84.672
X102.068Y-88.516
X102.112Y-82.218
X102.13Y-89.873
X102.195Y-87.112
X102.352Y-106.109
X102.441Y-117.811
X102.477Y-116.181
X102.49Y-85.993
X102.51Y-103.345
X102.547Y-93.618
X102.573Y-114.072
X102.641Y-79.883
X102.654Y-94.589
X102.696Y-88.444
X102.743Y-119.212
X102.85Y-96.835
X102.851Y-92.827
X102.881Y-111.562
X102.973Y-115.135
X102.983Y-85.494
X102.994Y-117.129
X103.038Y-87.895
X103.107Y-91.289
X103.188Y-107.535
X103.188Y-105.45
X103.216Y-86.703
X103.356Y-109.594
X103.426Y-80.122
X103.488Y-100.506
X103.489Y-106.871
X103.508Y-101.399
X103.529Y-103.522
X103.563Y-82.63
X103.569Y-84.992
X103.581Y-88.989
X103.581Y-117.832
X103.609Y-89.954
X103.639Y-99.081
X103.656Y-96.773
X103.684Y-108.953
X103.72Y-98.084
X103.795Y-113.497
X103.919Y-94.59
X104.005Y-85.681
X104.199Y-80.591
X104.259Y-114.157
X104.274Y-82.329
X104.32Y-83.85
X104.321Y-104.866
X104.322Y-105.697
X104.322Y-107.094
X104.322Y-109.075
X104.414Y-113.161
X104.422Y-88.153
X104.444Y-116.401
X104.595Y-117.427
X104.824Y-114.929
X104.919Y-105.357
X104.936Y-118.812
X104.963Y-111.403
X105.035Y-108.85
X105.108Y-95.581
X105.163Y-82.675
X105.196Y-89.979
X105.22Y-85.063
X105.227Y-113.278
X105.277Y-96.4
X105.287Y-103.924
X105.312Y-93.894
X105.33Y-91.982
X105.386Y-102.222
X105.417Y-99.662
X105.434Y-112.655
X105.483Y-98.493
X105.514Y-114.081
X105.561Y-91.281
X105.623Y-86.943
X105.655Y-105.089
X105.658Y-90.369
X105.669Y-100.852
X105.731Y-85.934
X105.794Y-114.937
X105.816Y-82.761
X105.857Y-83.837
X105.902Y-111.319
X105.903Y-96.07
X105.912Y-85.145
X105.926Y-97.8
X105.931Y-102.798
X106.0Y-79.953
X106.038Y-88.495
X106.042Y-119.727
X106.042Y-117.111
X106.061Y-116.111
X106.112Y-113.436
X106.149Y-101.8
X106.228Y-81.089
X106.328Y-89.486
X106.329Y-92.017
X106.388Y-105.668
X106.492Y-108.178
X106.532Y-94.489
X106.535Y-86.053
X106.557Y-110.038
X106.565Y-120.214
X106.597Y-86.956
X106.675Y-118.645
X106.702Y-91.113
X106.712Y-99.767
X106.823Y-84.131
X106.85Y-83.326
X106.918Y-117.296
X106.925Y-113.195
X106.976Y-82.253
X107.105Y-93.542
X107.144Y-102.798
X107.193Y-111.29
X107.226Y-92.739
X107.278Y-116.393
X107.319Y-85.623
X107.358Y-114.264
X107.372Y-88.635
X107.394Y-92.02
X107.474Y-86.747
X107.474Y-115.743
X107.477Y-94.313
X107.504Y-83.626
X107.51Y-97.569
X107.609Y-84.641
X107.713Y-105.937
X107.759Y-90.086
X107.974Y-93.193
X108.13Y-108.896
X108.165Y-81.883
X108.249Y-87.404
X108.265Y-89.328
X108.274Y-106.874
X108.276Y-101.5
X108.28Y-106.254
X108.296Y-92.102
X108.384Y-88.045
X108.39Y-115.863
X108.401Y-112.555
X108.463Y-116.694
X108.484Y-117.622
X108.492Y-83.392
X108.521Y-82.632
X108.546Y-115.055
X108.551Y-99.741
X108.619Y-92.829
X108.649Y-84.432
X108.789Y-98.151
X108.929Y-113.665
X108.932Y-86.657
X108.947Y-84.996
X108.988Y-93.51
X109.061Y-101.945
X109.07Y-90.402
X109.088Y-111.105
X109.101Y-105.251
X109.101Y-106.126
X109.102Y-117.226
X109.171Y-98.993
X109.198Y-100.231
X109.254Y-94.314
X109.254Y-95.357
X109.338Y-103.999
X109.523Y-111.978
X109.571Y-89.011
X109.625Y-103.247
X109.697Y-90.107
X109.715Y-115.293
X109.825Y-117.428
X109.848Y-85.802
X109.864Y-114.251
X109.884Y-95.656
X109.897Y-110.554
X109.928Y-111.191
X110.097Y-94.007
X110.151Y-107.277
X110.181Y-87.786
X110.216Y-93.328
X110.278Y-84.979
X110.299Y-90.651
X110.325Y-96.846
X110.361Y-110.112
X110.389Y-115.755
X110.433Y-91.962
X110.459Y-83.92
X110.476Y-104.827
X110.491Y-88.747
X110.491Y-105.684
X110.491Y-106.554
X110.516Y-95.092
X110.538Y-82.841
X110.667Y-80.808
X110.667Y-119.27
X110.696Y-113.933
X110.779Y-86.936
X110.837Y-89.409
X110.92Y-103.471
X110.982Y-108.158
X110.982Y-110.73
X111.093Y-90.004
X111.182Y-94.232
X111.246Y-114.315
X111.28Y-86.306
X111.308Y-92.364
X111.328Y-111.421
X111.362Y-93.476
X111.384Y-96.281
X111.399Y-116.327
X111.427Y-88.795
X111.47Y-83.578
X111.492Y-85.627
X111.507Y-117.336
X111.513Y-104.001
X111.568Y-91.147
X111.587Y-104.827
X111.714Y-109.627
X111.748Y-90.526
X111.848Y-113.672
X111.86Y-96.812
X111.962Y-86.294
X111.975Y-106.046
X112.031Y-85.08
X112.061Y-98.233
X112.066Y-111.886
X112.077Y-99.054
X112.081Y-102.734
X112.122Y-115.383
X112.138Y-108.332
X112.141Y-94.781
X112.221Y-113.058
X112.27Y-89.717
X112.284Y-100.522
X112.349Y-102.015
X112.362Y-109.953
X112.372Y-86.887
X112.463Y-87.933
X112.541Y-101.175
X112.649Y-109.037
X112.704Y-83.416
X112.776Y-96.158
X112.895Y-91.234
X112.938Y-106.295
X112.95Y-115.289
X112.95Y-104.826
X112.988Y-98.995
X112.991Y-103.471
X113.025Y-113.18
X113.026Y-88.499
X113.051Y-101.938
X113.055Y-93.405
X113.09Y-89.302
X113.096Y-97.824
X113.124Y-107.812
X113.145Y-111.71
X113.177Y-84.921
X113.205Y-87.818
X113.321Y-87.007
X113.395Y-96.675
X113.498Y-108.793
X113.536Y-93.776
X113.577Y-86.194
X113.581Y-100.832
X113.667Y-110.73
X113.685Y-114.196
X113.734Y-96.079
X113.773Y-105.774
X113.927Y-85.179
X113.934Y-113.498
X113.982Y-93.191
X113.993Y-98.72
X114.015Y-88.489
X114.021Y-106.76
X114.171Y-101.933
X114.384Y-100.93
X114.402Y-93.928
X114.428Y-109.861
X114.521Y-114.242
X114.528Y-110.59
X114.584Y-89.479
X114.612Y-111.295
X114.617Y-88.547
X114.67Y-107.481
X114.894Y-112.197
X114.999Y-99.049
X115.027Y-96.099
X115.028Y-87.9
X115.035Y-94.087
X115.064Y-87.234
X115.084Y-97.974
X115.101Y-100.074
X115.107Y-105.852
X115.133Y-103.999
X115.162Y-103.35
X115.166Y-108.006
X115.273Y-91.949
X115.332Y-90.339
X115.385Y-101.664
X115.423Y-109.618
X115.455Y-91.083
X115.615Y-89.77
X115.619Y-112.238
X115.646Y-99.399
X115.674Y-113.808
X115.702Y-109.014
X115.888Y-87.557
X115.984Y-104.183
X116.103Y-92.12
X116.108Y-105.947
X116.133Y-106.941
X116.162Y-93.053
X116.215Y-91.506
X116.215Y-93.777
X116.22Y-88.547
X116.224Y-89.743
X116.228Y-102.487
X116.279Y-107.566
X116.409Y-110.726
X116.489Y-95.675
X116.516Y-87.587
X116.634Y-89.032
X116.645Y-104.304
X116.864Y-111.373
X116.956Y-110.378
X116.995Y-100.763
X117.079Y-103.002
X117.088Y-104.929
X117.121Y-97.623
X117.123Y-96.741
X117.149Y-103.896
X117.161Y-93.928
X117.161Y-95.542
X117.21Y-91.064
X117.216Y-101.628
X117.225Y-94.554
X117.313Y-109.254
X117.317Y-105.543
X117.487Y-98.436
X117.51Y-90.339
X117.61Y-96.266
X117.619Y-99.038
X117.633Y-99.986
X117.661Y-103.271
X117.718Y-93.116
X117.737Y-89.106
X117.741Y-104.163
X117.817Y-106.629
X117.822Y-108.549
X117.862Y-102.099
X118.043Y-101.395
X118.058Y-97.076
X118.113Y-95.091
X118.119Y-91.227
X118.131Y-92.571
X118.146Y-109.961
X118.242Y-105.065
X118.418Y-93.311
X118.637Y-107.307
X118.799Y-92.4
X118.862Y-94.537
X118.918Y-106.246
X119.04Y-96.805
X119.165Y-103.015
X119.296Y-95.454
X119.299Y-105.151
X119.523Y-100.884
X119.767Y-98.368
X119.791Y-100.081
X119.807Y-98.992
X119.813Y-102.464
X120.532Y-104.158
X120.779Y-100.969
M30
