%TF.GenerationSoftware,KiCad,Pcbnew,9.0.2*%
%TF.CreationDate,2025-11-21T20:47:09-08:00*%
%TF.ProjectId,LED Watch,4c454420-5761-4746-9368-2e6b69636164,rev?*%
%TF.SameCoordinates,Original*%
%TF.FileFunction,Copper,L3,Inr*%
%TF.FilePolarity,Positive*%
%FSLAX46Y46*%
G04 Gerber Fmt 4.6, Leading zero omitted, Abs format (unit mm)*
G04 Created by KiCad (PCBNEW 9.0.2) date 2025-11-21 20:47:09*
%MOMM*%
%LPD*%
G01*
G04 APERTURE LIST*
%TA.AperFunction,ViaPad*%
%ADD10C,0.500000*%
%TD*%
%TA.AperFunction,Conductor*%
%ADD11C,0.100000*%
%TD*%
G04 APERTURE END LIST*
D10*
%TO.N,Net-(U135-PD6)*%
X99039200Y-106574400D03*
X98472900Y-105706600D03*
X103188200Y-105449500D03*
%TO.N,Net-(U135-PD7)*%
X104322100Y-105697300D03*
X102351500Y-106109100D03*
%TO.N,Net-(U134-SDx)*%
X94217900Y-95183700D03*
X90729000Y-95112500D03*
%TO.N,Net-(U134-SCx)*%
X91939500Y-94379600D03*
X94411400Y-94509900D03*
%TO.N,Net-(U134-INT1)*%
X92673700Y-96016600D03*
X93923500Y-96271800D03*
X99711100Y-96647700D03*
X100463700Y-105395400D03*
%TO.N,Net-(U135-PF2)*%
X99214400Y-94784600D03*
X99529500Y-105460700D03*
X103489000Y-106870900D03*
%TO.N,Net-(U135-PF3)*%
X108273600Y-106874400D03*
X101448500Y-106113600D03*
X101500100Y-96878100D03*
%TO.N,Net-(U135-PF1)*%
X98128100Y-96841500D03*
X97878800Y-107684700D03*
X96739400Y-107903200D03*
%TO.N,Net-(U135-PF0)*%
X97378400Y-96866600D03*
X97100300Y-106646000D03*
X93139900Y-107303800D03*
%TO.N,/R5*%
X94745100Y-103085800D03*
X93610800Y-102796200D03*
X117510400Y-90339000D03*
X93929100Y-99562300D03*
X94306800Y-108263500D03*
X86485500Y-86379400D03*
X88155300Y-86526800D03*
X88655700Y-89585200D03*
X103794900Y-113497500D03*
X88301400Y-92141200D03*
X88727700Y-96183100D03*
X94062200Y-114733600D03*
X92487900Y-115585300D03*
X104322100Y-109074700D03*
X115332300Y-90339000D03*
X108165300Y-81883200D03*
X107504200Y-83625600D03*
X97239300Y-81757200D03*
X112648700Y-109036800D03*
X112937600Y-106295100D03*
X88254200Y-82392000D03*
X84532700Y-97678400D03*
X119813100Y-102464200D03*
X117862200Y-102099200D03*
X112949900Y-104826100D03*
X111747600Y-90526000D03*
X109696600Y-90106600D03*
X83732500Y-106756200D03*
X90384100Y-108260000D03*
X89897900Y-107105600D03*
X104595200Y-117427200D03*
X85938700Y-107003300D03*
X82504300Y-96995000D03*
%TO.N,/Second9*%
X85081100Y-87315000D03*
X86214000Y-85195300D03*
X102849600Y-96835500D03*
X103106900Y-91288800D03*
X96759100Y-91288800D03*
X96973000Y-86128500D03*
%TO.N,/Hour1*%
X105901900Y-111318700D03*
X105931400Y-102798400D03*
X113050600Y-101937500D03*
X105386200Y-102222500D03*
X111974800Y-106045700D03*
X112348700Y-102015400D03*
X105623200Y-86943200D03*
X103215900Y-86703400D03*
X101260200Y-86145600D03*
X99241700Y-86225900D03*
X111182200Y-94232000D03*
X106596600Y-86956200D03*
X105658000Y-90369200D03*
X109069800Y-90402300D03*
X110096600Y-94006800D03*
%TO.N,/Second5*%
X106061100Y-116110900D03*
X107278300Y-116392700D03*
X109715300Y-115292600D03*
X103581400Y-117832500D03*
X101822300Y-117888000D03*
X94715300Y-100003800D03*
X106149200Y-101800400D03*
X106388300Y-105668100D03*
X107712700Y-105937400D03*
%TO.N,/B1*%
X99242300Y-119300300D03*
X99660000Y-117333000D03*
X89032700Y-85883300D03*
X89895400Y-87411800D03*
X98873400Y-111368800D03*
X110277600Y-84979000D03*
X99057900Y-113484000D03*
X117224800Y-94554300D03*
X110516000Y-95092400D03*
X109571100Y-89010600D03*
X110837200Y-89409200D03*
X116489300Y-95675300D03*
X81401800Y-107141000D03*
X99705300Y-88127100D03*
X99699300Y-87313600D03*
X99835500Y-84938300D03*
X81173900Y-93943600D03*
X82763400Y-93877800D03*
X103919500Y-94589500D03*
X100445500Y-93750300D03*
X89732500Y-110620600D03*
X89590800Y-106561000D03*
X83823500Y-87378900D03*
X117817100Y-106629100D03*
X115106800Y-105852100D03*
X115133100Y-103999200D03*
X112990900Y-103471100D03*
X110919600Y-103471100D03*
X111398800Y-116327100D03*
X83531700Y-105357400D03*
X79980100Y-106549000D03*
X108463200Y-116693700D03*
%TO.N,/Second8*%
X80937300Y-105125800D03*
X105287500Y-103923700D03*
X80382400Y-104019900D03*
%TO.N,/Second1*%
X103425600Y-80122200D03*
X101752400Y-80209700D03*
X106975900Y-82253100D03*
X108520900Y-82632100D03*
X99843700Y-79909300D03*
X98538600Y-94591100D03*
X94888000Y-95678500D03*
X94532900Y-97021000D03*
X106000400Y-79952900D03*
%TO.N,/Minute1*%
X101533400Y-82531300D03*
X99799400Y-82491000D03*
X106823000Y-84130600D03*
X108648800Y-84432100D03*
X103487600Y-100506200D03*
X104004800Y-85681500D03*
X105731300Y-85933900D03*
X105912200Y-85145300D03*
X103563500Y-82629600D03*
%TO.N,/Minute7*%
X101787000Y-103421200D03*
X92228900Y-104161700D03*
X91877600Y-107196100D03*
X90587400Y-107207100D03*
X90231000Y-111578400D03*
X89148300Y-111492300D03*
X85011900Y-105805500D03*
X86100300Y-105102400D03*
X87622800Y-104228900D03*
%TO.N,/Second10*%
X89746300Y-82974900D03*
X96379000Y-102924100D03*
X96921000Y-80644500D03*
X93618200Y-80491300D03*
X91183700Y-82717700D03*
X89133500Y-80807800D03*
X88711300Y-82914400D03*
%TO.N,/R2*%
X102640900Y-79882800D03*
X102112500Y-82217800D03*
X102055200Y-84671700D03*
X117161400Y-95542300D03*
X98052700Y-118087000D03*
X91942900Y-84763000D03*
X119295700Y-95454000D03*
X105108100Y-95580800D03*
X97974700Y-113529500D03*
X86628200Y-103321900D03*
X85810800Y-93637600D03*
X98325300Y-115380200D03*
X110388900Y-115755300D03*
X84873600Y-103267700D03*
X109254200Y-95357300D03*
X109254200Y-94313800D03*
X107477200Y-94312600D03*
X107759200Y-90085900D03*
X93805600Y-113095700D03*
X93794500Y-111929200D03*
X93126100Y-103287000D03*
X83316100Y-91635300D03*
X116133100Y-106941500D03*
X118636700Y-107306900D03*
X107473700Y-86746700D03*
X115674400Y-113808500D03*
X87234900Y-83354800D03*
X91416000Y-83364000D03*
X113177000Y-84921200D03*
X111280100Y-86306300D03*
X108928800Y-113664600D03*
X88203600Y-113499900D03*
X89259100Y-113432000D03*
X82065500Y-103299100D03*
%TO.N,/G4*%
X94532600Y-85382700D03*
X87273800Y-100307400D03*
X94864500Y-83453900D03*
X86929600Y-110719800D03*
X81110200Y-100818900D03*
X83211000Y-100755900D03*
X105857300Y-83837100D03*
X85483200Y-111255700D03*
X94036900Y-100268700D03*
X94376700Y-118943200D03*
X89796800Y-118601300D03*
X89560000Y-117530700D03*
X87480200Y-117011500D03*
X87600500Y-115958100D03*
X86151100Y-115165600D03*
X115618900Y-112237600D03*
X114527900Y-110589600D03*
X114384500Y-100929700D03*
X119522700Y-100884300D03*
X116634000Y-89032400D03*
X114583500Y-89478700D03*
X93918700Y-120107000D03*
X106565400Y-120214300D03*
X116516200Y-87587400D03*
X112030800Y-85079800D03*
X116995400Y-100763000D03*
X117737500Y-89105800D03*
X120779100Y-100969100D03*
X116409400Y-110726000D03*
X116644800Y-104304000D03*
X120532300Y-104157800D03*
X106041700Y-119727200D03*
X105794500Y-114937100D03*
%TO.N,/Minute8*%
X84582700Y-102448400D03*
X102510100Y-103345200D03*
X85629400Y-102275200D03*
X81891900Y-98544500D03*
X82707500Y-102141100D03*
%TO.N,/Minute9*%
X83415500Y-95066600D03*
X84346400Y-92480400D03*
X99618600Y-94310300D03*
X85630500Y-89203400D03*
X86817600Y-89106600D03*
%TO.N,/R3*%
X113096000Y-97823700D03*
X103720200Y-98083900D03*
X113055100Y-93405300D03*
X97332200Y-115820800D03*
X87683100Y-112446100D03*
X86721300Y-112193400D03*
X91602800Y-81465300D03*
X104198700Y-80590800D03*
X88022400Y-110286300D03*
X95570100Y-116962200D03*
X119767000Y-98368000D03*
X117120800Y-97623400D03*
X82186200Y-101684500D03*
X86989000Y-101939100D03*
X113025800Y-88499000D03*
X113204800Y-87818000D03*
X115063900Y-87233600D03*
X110666900Y-80807800D03*
X82111200Y-91250000D03*
X84976500Y-90351500D03*
X90841300Y-81465300D03*
X89735000Y-83927700D03*
X85664400Y-84512900D03*
X115166300Y-108006000D03*
X114998600Y-99049100D03*
X107357800Y-114263600D03*
X107510500Y-97569200D03*
X107474300Y-115743000D03*
%TO.N,/B3*%
X95206600Y-118787900D03*
X90224400Y-91858800D03*
X92096800Y-91978400D03*
X92614800Y-85759900D03*
X96172600Y-116914900D03*
X85201000Y-114517300D03*
X86128300Y-114362100D03*
X86986400Y-111471200D03*
X87725100Y-107958300D03*
X89987500Y-103023400D03*
X81059600Y-102920200D03*
X82976500Y-102918400D03*
X94731100Y-100681600D03*
X90507000Y-100797600D03*
X106674700Y-118645500D03*
X95614800Y-112452400D03*
X95681100Y-116113700D03*
X93026300Y-89570200D03*
X84140100Y-91543700D03*
X87589900Y-102965900D03*
X85923900Y-92503600D03*
X103569200Y-84991800D03*
X103580700Y-88989000D03*
X115423200Y-109617800D03*
X113498200Y-108793000D03*
X111860200Y-96811800D03*
X112077400Y-99054300D03*
X117618600Y-99038400D03*
X111362500Y-93475800D03*
X112463200Y-87933000D03*
X112269800Y-89717100D03*
X108264700Y-89327700D03*
X108296400Y-92102200D03*
X111307900Y-92363900D03*
%TO.N,/Second6*%
X91520300Y-117447400D03*
X96380200Y-100652800D03*
X94766600Y-117194600D03*
X93935900Y-117152300D03*
X95541200Y-117582500D03*
X99373300Y-117897500D03*
X97190600Y-117622300D03*
X90581200Y-117337400D03*
%TO.N,/Hour2*%
X99590100Y-111160700D03*
X103507800Y-101398800D03*
X102880700Y-111562500D03*
X92594100Y-111288900D03*
X92314800Y-105742300D03*
X88946300Y-105556100D03*
X87428500Y-105369800D03*
X87222600Y-97907700D03*
X86217400Y-98012300D03*
X87674100Y-92157400D03*
X92079900Y-88986000D03*
X88201400Y-90394900D03*
%TO.N,/G3*%
X104273600Y-82329000D03*
X104319700Y-83850000D03*
X105926200Y-97800100D03*
X106532300Y-94489300D03*
X105311700Y-93893700D03*
X88252100Y-108282400D03*
X105330100Y-91981800D03*
X92555600Y-83747800D03*
X93284300Y-86226600D03*
X93209000Y-91234300D03*
X88091100Y-111906800D03*
X117487000Y-98436100D03*
X119807000Y-98992300D03*
X112141200Y-94780700D03*
X87675600Y-99502100D03*
X81875500Y-102378100D03*
X85135100Y-91022700D03*
X112988200Y-98994600D03*
X85067900Y-99617700D03*
X84890500Y-100755500D03*
X108484100Y-117622000D03*
X106917800Y-117296300D03*
X118146500Y-109960800D03*
X116956000Y-110378300D03*
X113090500Y-89302500D03*
X87031800Y-99447200D03*
X86479800Y-91805900D03*
X97024800Y-116896100D03*
X99228500Y-116202900D03*
X104444500Y-116401400D03*
X98576100Y-114573800D03*
X98320300Y-112406900D03*
X94735900Y-111909800D03*
X92095200Y-112284400D03*
%TO.N,/G6*%
X89758600Y-88256000D03*
X93939000Y-88348800D03*
X108249000Y-87403800D03*
X100930100Y-87611300D03*
X100774800Y-85288000D03*
X98812500Y-85389400D03*
X108618900Y-92829000D03*
X116161800Y-93053300D03*
X118131000Y-92571400D03*
X87560600Y-87352700D03*
X87446300Y-86694500D03*
X88021300Y-88132900D03*
X87318800Y-96337800D03*
X82386100Y-96335700D03*
X95640200Y-85316000D03*
X95640200Y-86347000D03*
X94014500Y-86336000D03*
X117149100Y-103895700D03*
X112221100Y-113057700D03*
X112949500Y-115288800D03*
X108400900Y-112554600D03*
X112122500Y-115382900D03*
X111507100Y-117336200D03*
X103528700Y-103522000D03*
X109337700Y-103999200D03*
X109522900Y-111978500D03*
X90828800Y-117974300D03*
X88928000Y-117611000D03*
X88866600Y-109738400D03*
X85872400Y-109786000D03*
X85002200Y-107660900D03*
X83314600Y-108525100D03*
X102441200Y-117811200D03*
X102743400Y-119211900D03*
X107144500Y-102798000D03*
X107226100Y-92738600D03*
X107104700Y-93542100D03*
X84929000Y-96893000D03*
X86127000Y-96731600D03*
%TO.N,/Minute10*%
X93271400Y-83373400D03*
X94539100Y-82909800D03*
X90841600Y-84543100D03*
X97491600Y-84098600D03*
X94139700Y-84077400D03*
X96118300Y-83108700D03*
X100633300Y-92943600D03*
X97893700Y-92249700D03*
X89416900Y-86554600D03*
X90451000Y-85405000D03*
%TO.N,/G2*%
X105277200Y-96399600D03*
X110490600Y-88747000D03*
X110666900Y-119270200D03*
X98741500Y-119956700D03*
X108546300Y-115055200D03*
X119039900Y-96804600D03*
X117123400Y-96740600D03*
X105902600Y-96069900D03*
X91482000Y-84047800D03*
X91914700Y-86464100D03*
X102983200Y-85494100D03*
X103038200Y-87895300D03*
X109824700Y-117428400D03*
X109884200Y-95655600D03*
X104422400Y-88153100D03*
X91605700Y-89642200D03*
X99244400Y-89967400D03*
X99022000Y-88446400D03*
X102068100Y-88516000D03*
X107372400Y-88634600D03*
X117821600Y-108548800D03*
X87844800Y-115154600D03*
X88284700Y-117516900D03*
X91280700Y-92039100D03*
X93509700Y-113981000D03*
X83805700Y-93132200D03*
X85050200Y-94168000D03*
X84656200Y-103880700D03*
%TO.N,/Second2*%
X116214800Y-91505800D03*
X116224000Y-89742600D03*
X114617200Y-88546800D03*
X116219900Y-88546800D03*
X111961800Y-86293700D03*
X113321100Y-87007300D03*
X110459100Y-83919900D03*
X112704000Y-83416200D03*
X96475900Y-96377500D03*
X96125000Y-91051900D03*
X111093500Y-90003900D03*
%TO.N,/Second3*%
X118058100Y-97076300D03*
X118043400Y-101394900D03*
X117661000Y-103271200D03*
X96708400Y-97663800D03*
X118112900Y-95090900D03*
X118418300Y-93311300D03*
%TO.N,/Minute6*%
X97047500Y-114762400D03*
X94580100Y-114231300D03*
X101847600Y-105396900D03*
X99748600Y-115210400D03*
X99823500Y-112355000D03*
X101772200Y-111859500D03*
%TO.N,/Second7*%
X81768000Y-109700200D03*
X104919400Y-105357200D03*
X104322100Y-107093900D03*
X103187900Y-107535400D03*
X103355900Y-109593700D03*
X81847200Y-107942600D03*
X83538600Y-111313100D03*
X89516300Y-114689800D03*
X89033200Y-110558000D03*
X86137800Y-111916600D03*
X86725800Y-113361000D03*
X85927400Y-113699000D03*
%TO.N,Net-(J1-~{RST})*%
X109171400Y-98993000D03*
X105482700Y-98492800D03*
X104321000Y-104865600D03*
X97668200Y-105825900D03*
%TO.N,/B5*%
X112066200Y-111886300D03*
X112138000Y-108331900D03*
X115272800Y-91948800D03*
X93004800Y-116321400D03*
X89782300Y-108231700D03*
X106534800Y-86052600D03*
X106850500Y-83326500D03*
X106038300Y-88495400D03*
X108383700Y-88045000D03*
X115614800Y-89770300D03*
X94793900Y-108652600D03*
X95420300Y-104698600D03*
X111713700Y-109626700D03*
X110476200Y-104827400D03*
X111587200Y-104827400D03*
X96551100Y-88945200D03*
X116228500Y-102487500D03*
X83538600Y-110252600D03*
X112081000Y-102734100D03*
X103683700Y-108953500D03*
X102993900Y-117129100D03*
X91900600Y-118122200D03*
X113933800Y-113497900D03*
X84825200Y-108835200D03*
X83033200Y-99039700D03*
X87051100Y-94699400D03*
X86045900Y-94844500D03*
X85171900Y-98200900D03*
X85597700Y-104012200D03*
X86611200Y-104012200D03*
X86813100Y-107530500D03*
X82138000Y-99406400D03*
%TO.N,/R6*%
X88937300Y-86961700D03*
X93701500Y-87245000D03*
X89572600Y-105346500D03*
X118119000Y-91226500D03*
X96291700Y-105546700D03*
X84614300Y-96257300D03*
X89650900Y-96517200D03*
X116102700Y-92120000D03*
X81703100Y-95268000D03*
X98246100Y-80256200D03*
X110432900Y-91962100D03*
X98246100Y-82828500D03*
X108946500Y-84995700D03*
X108789300Y-98150600D03*
X108987800Y-93510300D03*
X110216300Y-93327600D03*
X113024600Y-113179700D03*
X117078700Y-103002500D03*
X111513400Y-104000800D03*
X98298100Y-87245000D03*
X109625100Y-103247300D03*
X108550900Y-99741200D03*
X110538300Y-82840800D03*
X100525900Y-110803900D03*
X100325100Y-107591200D03*
X97042600Y-107321800D03*
X82447300Y-106871800D03*
X104963100Y-111403400D03*
X104259300Y-114157200D03*
X102573300Y-114071700D03*
X102477400Y-116181500D03*
X88893100Y-106590500D03*
X100525900Y-109523100D03*
X92915700Y-109113200D03*
X92511400Y-114558600D03*
X90504600Y-115231700D03*
X107192900Y-111290500D03*
X111328500Y-111421200D03*
X85747000Y-105938800D03*
X109928100Y-111190600D03*
%TO.N,/G1*%
X102851000Y-92827300D03*
X102696000Y-88444200D03*
X100514000Y-88086800D03*
X90501300Y-87412500D03*
X89558000Y-85475100D03*
X84536700Y-95655000D03*
X82535000Y-95468900D03*
X100201000Y-82019800D03*
X100233100Y-84399800D03*
X116107800Y-105946900D03*
X118861600Y-94537000D03*
X119298600Y-105150800D03*
X90653600Y-95897800D03*
X118917700Y-106246200D03*
X82929100Y-105460500D03*
X107973800Y-93193300D03*
X108279700Y-106253700D03*
X100276600Y-117298300D03*
X100437100Y-115127100D03*
X111246200Y-114315200D03*
X109863800Y-114250600D03*
X110491300Y-106553800D03*
X100656800Y-118297500D03*
X100314700Y-87239400D03*
X90675800Y-114325200D03*
X88606400Y-116145200D03*
X96689300Y-113570900D03*
X110299300Y-90651300D03*
X107393600Y-92019600D03*
%TO.N,/G5*%
X88040500Y-89716600D03*
X94721300Y-104261300D03*
X91469100Y-104538200D03*
X86452900Y-88336700D03*
X112541400Y-101175500D03*
X93070500Y-117036400D03*
X91833600Y-116526000D03*
X91928800Y-109308900D03*
X84462000Y-109965300D03*
X117210100Y-91064200D03*
X107608600Y-84641000D03*
X106701700Y-91113400D03*
X115455000Y-91083400D03*
X88839500Y-93212000D03*
X96355600Y-82474500D03*
X96962900Y-84955100D03*
X111384200Y-96281400D03*
X111567700Y-91146800D03*
X95772300Y-92912900D03*
X106329100Y-92017100D03*
X99930200Y-92048800D03*
X99848500Y-93010100D03*
X119165000Y-103015400D03*
X117216000Y-101627900D03*
X90067800Y-93207600D03*
X113144800Y-111710400D03*
X114894400Y-112197100D03*
X113772900Y-105774500D03*
X114171500Y-101933200D03*
X110982200Y-110730500D03*
X110491300Y-105683800D03*
X110982200Y-108157600D03*
X105034800Y-108850200D03*
X104414400Y-113161100D03*
X84581600Y-98544500D03*
X88410400Y-97055800D03*
X88229100Y-93774500D03*
X82685900Y-97936000D03*
%TO.N,/Second4*%
X94756600Y-98473400D03*
X109060800Y-101945400D03*
X109101200Y-105251200D03*
X117317300Y-105543400D03*
X116863800Y-111373500D03*
X115701800Y-109013800D03*
X117313500Y-109253800D03*
X114612100Y-111295200D03*
X114521300Y-114242000D03*
X113684700Y-114196000D03*
%TO.N,/B2*%
X90975800Y-85880900D03*
X103656300Y-96773400D03*
X90986300Y-90202700D03*
X103608900Y-89954000D03*
X101007900Y-82166500D03*
X102129900Y-89873300D03*
X92867900Y-112880500D03*
X96614200Y-112727600D03*
X117609600Y-96265900D03*
X115026800Y-96099300D03*
X113733800Y-96078600D03*
X114670200Y-107480600D03*
X87007500Y-114873700D03*
X87228300Y-112938100D03*
X116278800Y-107565900D03*
X106328400Y-89486200D03*
X110180800Y-87786000D03*
X112372000Y-86887300D03*
X108130200Y-108896100D03*
X108389800Y-115863500D03*
X98081000Y-117171200D03*
X84146000Y-93767700D03*
X90203200Y-94172600D03*
X109102400Y-117225700D03*
X97117800Y-119201600D03*
X83721000Y-112728500D03*
X82573800Y-103897600D03*
X81549800Y-105083100D03*
%TO.N,/Minute2*%
X113982200Y-93190900D03*
X113993400Y-98719700D03*
X105669400Y-100852000D03*
X111426900Y-88795200D03*
X110778900Y-86936500D03*
X108932000Y-86657100D03*
%TO.N,/B6*%
X106924600Y-113195500D03*
X88784000Y-88700500D03*
X105655500Y-105089200D03*
X101369600Y-117293300D03*
X101702400Y-113784500D03*
X117740600Y-104162600D03*
X111848000Y-113672200D03*
X83579200Y-97322900D03*
X98086300Y-84698000D03*
X97332300Y-83005600D03*
X107319500Y-85622600D03*
X92975000Y-88657200D03*
X81415700Y-97090100D03*
X98057500Y-88446400D03*
X80907100Y-108020400D03*
X82318600Y-108791600D03*
X84539900Y-112146600D03*
X82644000Y-111969000D03*
X83972000Y-107576800D03*
X117160900Y-93928000D03*
X114401800Y-93928000D03*
X115161900Y-103349800D03*
X115984100Y-104183400D03*
X105434200Y-112655300D03*
X110696300Y-113932900D03*
X95848800Y-113929500D03*
X95848800Y-114875500D03*
X91504000Y-115144400D03*
X87077200Y-87965000D03*
X83751900Y-88117000D03*
X86664900Y-87182900D03*
X89608000Y-116569200D03*
X86078900Y-115846300D03*
%TO.N,/R4*%
X94968900Y-114735300D03*
X94650500Y-116454400D03*
X96893500Y-105449900D03*
X95271300Y-106648100D03*
X95396300Y-110701300D03*
X106227700Y-81089200D03*
X105816000Y-82760900D03*
X94491600Y-80100200D03*
X97284400Y-80055100D03*
X97610800Y-82266800D03*
X115888500Y-87557200D03*
X115028500Y-87899700D03*
X114015100Y-88489200D03*
X113926700Y-85178800D03*
X108492500Y-83392100D03*
X115034600Y-94086900D03*
X117633200Y-99986300D03*
X115101300Y-100074000D03*
X114021200Y-106759600D03*
X110151000Y-107277100D03*
X109896900Y-110554500D03*
X114428400Y-109861500D03*
X85627700Y-88346600D03*
X86627100Y-84195700D03*
X90030900Y-84662100D03*
X90691400Y-82298400D03*
X95246000Y-82298400D03*
X106557200Y-110038300D03*
X106042500Y-117111400D03*
X105514100Y-114081300D03*
X91068500Y-110408400D03*
X90859900Y-109205600D03*
X87723000Y-109174900D03*
X85131500Y-109998100D03*
X86685000Y-108653300D03*
X96438200Y-101953100D03*
X83855800Y-99092000D03*
X86191600Y-99117100D03*
X81015100Y-99097900D03*
%TO.N,/Minute5*%
X101832000Y-115081200D03*
X100752400Y-106106200D03*
X102973300Y-115135000D03*
X102042100Y-113174800D03*
X101201600Y-112839700D03*
X104824400Y-114929200D03*
X105227000Y-113277800D03*
X106112100Y-113436100D03*
%TO.N,/Minute4*%
X105416700Y-99661800D03*
X106712200Y-99767200D03*
X106491800Y-108178000D03*
X113124500Y-107812500D03*
X112362300Y-109952900D03*
X110361000Y-110112200D03*
%TO.N,/R1*%
X116215400Y-93776800D03*
X102546900Y-93618000D03*
X100829200Y-84686200D03*
X101776700Y-85525800D03*
X102489700Y-85993300D03*
X102195200Y-87112500D03*
X109848400Y-85801900D03*
X111470100Y-83577500D03*
X111491700Y-85627500D03*
X89319900Y-81785400D03*
X100762500Y-80918000D03*
X113535700Y-93775700D03*
X113576900Y-86194000D03*
X118799200Y-92399900D03*
X117717800Y-93116200D03*
X118242500Y-105065400D03*
X117087900Y-104929100D03*
X82353600Y-93340600D03*
X83600300Y-94082600D03*
X109101200Y-106126200D03*
X109088500Y-111105200D03*
X91281800Y-115823900D03*
X100888900Y-114224400D03*
X82268900Y-104914800D03*
X100453700Y-112399000D03*
X91229100Y-107811300D03*
X89004600Y-107873100D03*
X88638500Y-104879300D03*
X85296800Y-104914800D03*
X81135100Y-94787000D03*
X80250400Y-104645000D03*
%TO.N,/B4*%
X105219700Y-85063000D03*
X94934300Y-86459700D03*
X95486300Y-88726100D03*
X86359300Y-100814600D03*
X93908500Y-89391700D03*
X85821700Y-110592700D03*
X81897600Y-100921200D03*
X93142400Y-101552000D03*
X91666600Y-101751000D03*
X112894800Y-91233700D03*
X105560700Y-91281200D03*
X94347300Y-101579400D03*
X105163400Y-82675500D03*
X112775800Y-96158100D03*
X113395000Y-96675100D03*
X105196300Y-89978600D03*
X93980300Y-90598600D03*
X84680300Y-89595400D03*
X85831400Y-89998800D03*
X113581000Y-100832100D03*
X115646300Y-99399500D03*
X119791200Y-100080800D03*
X93366300Y-118303400D03*
X89859500Y-90708800D03*
X93951100Y-116283300D03*
X104936500Y-118812300D03*
X113667100Y-110730500D03*
%TO.N,/Minute3*%
X115083600Y-97973800D03*
X103639400Y-99080500D03*
X112061100Y-98232900D03*
X112283600Y-100522100D03*
X115385200Y-101663800D03*
%TO.N,Net-(J1-VCC)*%
X92895600Y-91846400D03*
X89133500Y-96946600D03*
X92393500Y-98502500D03*
X109197700Y-100230700D03*
X108275900Y-101500000D03*
X102653700Y-94589000D03*
X98630300Y-103500200D03*
%TO.N,Net-(J1-GND)*%
X110325000Y-96845700D03*
X96517800Y-99662100D03*
X92009500Y-93537500D03*
X92040400Y-101162400D03*
X101609000Y-94587900D03*
X98908800Y-105291500D03*
X100536700Y-103398400D03*
X96721900Y-94591100D03*
%TD*%
D11*
%TO.N,Net-(U135-PD6)*%
X98472900Y-106008100D02*
X98472900Y-105706600D01*
X99039200Y-106574400D02*
X98472900Y-106008100D01*
%TO.N,Net-(U134-INT1)*%
X99929700Y-104861400D02*
X100463700Y-105395400D01*
X99929700Y-96866300D02*
X99929700Y-104861400D01*
X99711100Y-96647700D02*
X99929700Y-96866300D01*
%TO.N,Net-(U135-PF2)*%
X99529500Y-97034100D02*
X99529500Y-105460700D01*
X99214400Y-96719000D02*
X99529500Y-97034100D01*
X99214400Y-94784600D02*
X99214400Y-96719000D01*
%TO.N,Net-(U135-PF3)*%
X101352300Y-97025900D02*
X101500100Y-96878100D01*
X101352300Y-106017400D02*
X101352300Y-97025900D01*
X101448500Y-106113600D02*
X101352300Y-106017400D01*
%TO.N,Net-(U135-PF1)*%
X98069900Y-107493600D02*
X97878800Y-107684700D01*
X98069900Y-96899700D02*
X98069900Y-107493600D01*
X98128100Y-96841500D02*
X98069900Y-96899700D01*
%TO.N,Net-(U135-PF0)*%
X97378400Y-105547700D02*
X97378400Y-96866600D01*
X97100300Y-105825800D02*
X97378400Y-105547700D01*
X97100300Y-106646000D02*
X97100300Y-105825800D01*
%TO.N,/R5*%
X88423000Y-86794500D02*
X88155300Y-86526800D01*
X88423000Y-88300900D02*
X88423000Y-86794500D01*
X88356400Y-88367500D02*
X88423000Y-88300900D01*
X88356400Y-89285900D02*
X88356400Y-88367500D01*
X88655700Y-89585200D02*
X88356400Y-89285900D01*
X112648700Y-106584000D02*
X112937600Y-106295100D01*
X112648700Y-109036800D02*
X112648700Y-106584000D01*
X88155300Y-82490900D02*
X88155300Y-86526800D01*
X88254200Y-82392000D02*
X88155300Y-82490900D01*
X93610800Y-99880600D02*
X93610800Y-102796200D01*
X93929100Y-99562300D02*
X93610800Y-99880600D01*
X94062200Y-113408800D02*
X94062200Y-114733600D01*
X94306800Y-113164200D02*
X94062200Y-113408800D01*
X94306800Y-108263500D02*
X94306800Y-113164200D01*
X112949900Y-106282800D02*
X112949900Y-104826100D01*
X112937600Y-106295100D02*
X112949900Y-106282800D01*
X107504200Y-82544300D02*
X107504200Y-83625600D01*
X108165300Y-81883200D02*
X107504200Y-82544300D01*
X108092300Y-84213700D02*
X107504200Y-83625600D01*
X108092300Y-86549600D02*
X108092300Y-84213700D01*
X109029200Y-87486500D02*
X108092300Y-86549600D01*
X109029200Y-89439200D02*
X109029200Y-87486500D01*
X109696600Y-90106600D02*
X109029200Y-89439200D01*
X103794900Y-113135000D02*
X103794900Y-113497500D01*
X104322100Y-112607800D02*
X103794900Y-113135000D01*
X104322100Y-109074700D02*
X104322100Y-112607800D01*
X103794900Y-116626900D02*
X103794900Y-113497500D01*
X104595200Y-117427200D02*
X103794900Y-116626900D01*
X89897900Y-107773800D02*
X90384100Y-108260000D01*
X89897900Y-107105600D02*
X89897900Y-107773800D01*
X94306800Y-103492200D02*
X93610800Y-102796200D01*
X94306800Y-108263500D02*
X94306800Y-103492200D01*
X88301400Y-93278800D02*
X88301400Y-92141200D01*
X88727700Y-93705100D02*
X88301400Y-93278800D01*
X88727700Y-96183100D02*
X88727700Y-93705100D01*
%TO.N,/Second9*%
X103256600Y-91438500D02*
X103106900Y-91288800D01*
X103256600Y-96428500D02*
X103256600Y-91438500D01*
X102849600Y-96835500D02*
X103256600Y-96428500D01*
X96973000Y-91074900D02*
X96759100Y-91288800D01*
X96973000Y-86128500D02*
X96973000Y-91074900D01*
X85081100Y-86328200D02*
X86214000Y-85195300D01*
X85081100Y-87315000D02*
X85081100Y-86328200D01*
%TO.N,/Hour1*%
X109069800Y-92980000D02*
X110096600Y-94006800D01*
X109069800Y-90402300D02*
X109069800Y-92980000D01*
X105658000Y-89586200D02*
X105658000Y-90369200D01*
X106596600Y-88647600D02*
X105658000Y-89586200D01*
X106596600Y-86956200D02*
X106596600Y-88647600D01*
X111183300Y-100850000D02*
X112348700Y-102015400D01*
X111183300Y-96648500D02*
X111183300Y-100850000D01*
X110982500Y-96447700D02*
X111183300Y-96648500D01*
X110982500Y-94431700D02*
X110982500Y-96447700D01*
X111182200Y-94232000D02*
X110982500Y-94431700D01*
X112483500Y-105537000D02*
X111974800Y-106045700D01*
X112483500Y-102150200D02*
X112483500Y-105537000D01*
X112348700Y-102015400D02*
X112483500Y-102150200D01*
X105901900Y-105586500D02*
X105901900Y-111318700D01*
X106064400Y-105424000D02*
X105901900Y-105586500D01*
X106064400Y-102931400D02*
X106064400Y-105424000D01*
X105931400Y-102798400D02*
X106064400Y-102931400D01*
%TO.N,/Second5*%
X106388300Y-102039500D02*
X106388300Y-105668100D01*
X106149200Y-101800400D02*
X106388300Y-102039500D01*
X107712700Y-110957000D02*
X107712700Y-105937400D01*
X107796300Y-111040600D02*
X107712700Y-110957000D01*
X107796300Y-114428200D02*
X107796300Y-111040600D01*
X107072500Y-115152000D02*
X107796300Y-114428200D01*
X107072500Y-116186900D02*
X107072500Y-115152000D01*
X107278300Y-116392700D02*
X107072500Y-116186900D01*
%TO.N,/B1*%
X99699300Y-85074500D02*
X99835500Y-84938300D01*
X99699300Y-87313600D02*
X99699300Y-85074500D01*
X89313700Y-85883300D02*
X89032700Y-85883300D01*
X89895400Y-86465000D02*
X89313700Y-85883300D01*
X89895400Y-87411800D02*
X89895400Y-86465000D01*
X99705300Y-87319600D02*
X99705300Y-88127100D01*
X99699300Y-87313600D02*
X99705300Y-87319600D01*
X99057900Y-111553300D02*
X99057900Y-113484000D01*
X98873400Y-111368800D02*
X99057900Y-111553300D01*
X115133100Y-105825800D02*
X115133100Y-103999200D01*
X115106800Y-105852100D02*
X115133100Y-105825800D01*
X110919600Y-96670000D02*
X110919600Y-103471100D01*
X110516000Y-96266400D02*
X110919600Y-96670000D01*
X110516000Y-95092400D02*
X110516000Y-96266400D01*
X100020700Y-93750300D02*
X100445500Y-93750300D01*
X99446800Y-93176400D02*
X100020700Y-93750300D01*
X99446800Y-91964200D02*
X99446800Y-93176400D01*
X99705300Y-91705700D02*
X99446800Y-91964200D01*
X99705300Y-88127100D02*
X99705300Y-91705700D01*
X116489300Y-95289800D02*
X116489300Y-95675300D01*
X117224800Y-94554300D02*
X116489300Y-95289800D01*
X83018500Y-88183900D02*
X83823500Y-87378900D01*
X83018500Y-91278500D02*
X83018500Y-88183900D01*
X82763400Y-91533600D02*
X83018500Y-91278500D01*
X82763400Y-93877800D02*
X82763400Y-91533600D01*
X99660000Y-117333000D02*
X99369800Y-117333000D01*
X98960900Y-119018900D02*
X99242300Y-119300300D01*
X98960900Y-117741900D02*
X98960900Y-119018900D01*
X99369800Y-117333000D02*
X98960900Y-117741900D01*
X110905500Y-89340900D02*
X110837200Y-89409200D01*
X110905500Y-87935300D02*
X110905500Y-89340900D01*
X110277600Y-87307400D02*
X110905500Y-87935300D01*
X110277600Y-84979000D02*
X110277600Y-87307400D01*
X99057900Y-114660100D02*
X99057900Y-113484000D01*
X98826800Y-114891200D02*
X99057900Y-114660100D01*
X98826800Y-116790000D02*
X98826800Y-114891200D01*
X99369800Y-117333000D02*
X98826800Y-116790000D01*
X110691800Y-89554600D02*
X110837200Y-89409200D01*
X110691800Y-90171800D02*
X110691800Y-89554600D01*
X110902700Y-90382700D02*
X110691800Y-90171800D01*
X110902700Y-93451600D02*
X110902700Y-90382700D01*
X110516000Y-93838300D02*
X110902700Y-93451600D01*
X110516000Y-95092400D02*
X110516000Y-93838300D01*
X79779000Y-106347900D02*
X79980100Y-106549000D01*
X79779000Y-95338500D02*
X79779000Y-106347900D01*
X81173900Y-93943600D02*
X79779000Y-95338500D01*
X89380600Y-110268700D02*
X89732500Y-110620600D01*
X89380600Y-108065400D02*
X89380600Y-110268700D01*
X89422000Y-108024000D02*
X89380600Y-108065400D01*
X89422000Y-106729800D02*
X89422000Y-108024000D01*
X89590800Y-106561000D02*
X89422000Y-106729800D01*
%TO.N,/Second1*%
X106975900Y-80928400D02*
X106000400Y-79952900D01*
X106975900Y-82253100D02*
X106975900Y-80928400D01*
X99214200Y-80538800D02*
X99843700Y-79909300D01*
X99214200Y-85555800D02*
X99214200Y-80538800D01*
X98699800Y-86070200D02*
X99214200Y-85555800D01*
X98699800Y-87411400D02*
X98699800Y-86070200D01*
X98538600Y-87572600D02*
X98699800Y-87411400D01*
X98538600Y-94591100D02*
X98538600Y-87572600D01*
X94888000Y-96665900D02*
X94888000Y-95678500D01*
X94532900Y-97021000D02*
X94888000Y-96665900D01*
%TO.N,/Minute1*%
X105912200Y-85753000D02*
X105731300Y-85933900D01*
X105912200Y-85145300D02*
X105912200Y-85753000D01*
X104004800Y-89653300D02*
X104004800Y-85681500D01*
X104321200Y-89969700D02*
X104004800Y-89653300D01*
X104321200Y-99672600D02*
X104321200Y-89969700D01*
X103487600Y-100506200D02*
X104321200Y-99672600D01*
X103563500Y-83662100D02*
X103563500Y-82629600D01*
X104004800Y-84103400D02*
X103563500Y-83662100D01*
X104004800Y-85681500D02*
X104004800Y-84103400D01*
%TO.N,/Minute7*%
X91877600Y-104513000D02*
X91877600Y-107196100D01*
X92228900Y-104161700D02*
X91877600Y-104513000D01*
X90458200Y-111351200D02*
X90231000Y-111578400D01*
X90458200Y-109039300D02*
X90458200Y-111351200D01*
X90827700Y-108669800D02*
X90458200Y-109039300D01*
X90827700Y-108135600D02*
X90827700Y-108669800D01*
X90587400Y-107895300D02*
X90827700Y-108135600D01*
X90587400Y-107207100D02*
X90587400Y-107895300D01*
%TO.N,/Second10*%
X89746300Y-81420600D02*
X89746300Y-82974900D01*
X89133500Y-80807800D02*
X89746300Y-81420600D01*
X96837600Y-80727900D02*
X96921000Y-80644500D01*
X96837600Y-84013000D02*
X96837600Y-80727900D01*
X97374700Y-84550100D02*
X96837600Y-84013000D01*
X97374700Y-94617500D02*
X97374700Y-84550100D01*
X96976600Y-95015600D02*
X97374700Y-94617500D01*
X96976600Y-97363900D02*
X96976600Y-95015600D01*
X97110100Y-97497400D02*
X96976600Y-97363900D01*
X97110100Y-102193000D02*
X97110100Y-97497400D01*
X96379000Y-102924100D02*
X97110100Y-102193000D01*
%TO.N,/R2*%
X102055200Y-82275100D02*
X102055200Y-84671700D01*
X102112500Y-82217800D02*
X102055200Y-82275100D01*
X102640900Y-81689400D02*
X102112500Y-82217800D01*
X102640900Y-79882800D02*
X102640900Y-81689400D01*
X109254200Y-95357300D02*
X109254200Y-94313800D01*
X98482700Y-115537600D02*
X98325300Y-115380200D01*
X98482700Y-117657000D02*
X98482700Y-115537600D01*
X98052700Y-118087000D02*
X98482700Y-117657000D01*
X86357000Y-92309400D02*
X86357000Y-93729800D01*
X86078100Y-92030500D02*
X86357000Y-92309400D01*
X86078100Y-91639600D02*
X86078100Y-92030500D01*
X86256400Y-91461300D02*
X86078100Y-91639600D01*
X86256400Y-89570500D02*
X86256400Y-91461300D01*
X86051200Y-89365300D02*
X86256400Y-89570500D01*
X86051200Y-87228600D02*
X86051200Y-89365300D01*
X86498600Y-86781200D02*
X86051200Y-87228600D01*
X86665000Y-86781200D02*
X86498600Y-86781200D01*
X87234900Y-86211300D02*
X86665000Y-86781200D01*
X87234900Y-83354800D02*
X87234900Y-86211300D01*
X116064000Y-113418900D02*
X115674400Y-113808500D01*
X116064000Y-110948600D02*
X116064000Y-113418900D01*
X116007700Y-110892300D02*
X116064000Y-110948600D01*
X116007700Y-110559700D02*
X116007700Y-110892300D01*
X116120300Y-110447100D02*
X116007700Y-110559700D01*
X116120300Y-108007400D02*
X116120300Y-110447100D01*
X115877100Y-107764200D02*
X116120300Y-108007400D01*
X115877100Y-107197500D02*
X115877100Y-107764200D01*
X116133100Y-106941500D02*
X115877100Y-107197500D01*
X97974700Y-115029600D02*
X98325300Y-115380200D01*
X97974700Y-113529500D02*
X97974700Y-115029600D01*
X107795300Y-90122000D02*
X107759200Y-90085900D01*
X107795300Y-92789900D02*
X107795300Y-90122000D01*
X107506400Y-93078800D02*
X107795300Y-92789900D01*
X107506400Y-94283400D02*
X107506400Y-93078800D01*
X107477200Y-94312600D02*
X107506400Y-94283400D01*
X85810800Y-93705700D02*
X85810800Y-93637600D01*
X85834900Y-93729800D02*
X85810800Y-93705700D01*
X86357000Y-93729800D02*
X85834900Y-93729800D01*
X86447600Y-93820400D02*
X86357000Y-93729800D01*
X86447600Y-94969400D02*
X86447600Y-93820400D01*
X86619100Y-95140900D02*
X86447600Y-94969400D01*
X86619100Y-99602500D02*
X86619100Y-95140900D01*
X86789700Y-99773100D02*
X86619100Y-99602500D01*
X86789700Y-101570400D02*
X86789700Y-99773100D01*
X86587300Y-101772800D02*
X86789700Y-101570400D01*
X86587300Y-103281000D02*
X86587300Y-101772800D01*
X86628200Y-103321900D02*
X86587300Y-103281000D01*
X93794500Y-103955400D02*
X93794500Y-111929200D01*
X93126100Y-103287000D02*
X93794500Y-103955400D01*
%TO.N,/G4*%
X89560000Y-118364500D02*
X89560000Y-117530700D01*
X89796800Y-118601300D02*
X89560000Y-118364500D01*
X87480200Y-116078400D02*
X87600500Y-115958100D01*
X87480200Y-117011500D02*
X87480200Y-116078400D01*
X94864500Y-85050800D02*
X94864500Y-83453900D01*
X94532600Y-85382700D02*
X94864500Y-85050800D01*
X85726500Y-114741000D02*
X86151100Y-115165600D01*
X85726500Y-114066100D02*
X85726500Y-114741000D01*
X85483200Y-113822800D02*
X85726500Y-114066100D01*
X85483200Y-111255700D02*
X85483200Y-113822800D01*
X93918700Y-119401200D02*
X93918700Y-120107000D01*
X94376700Y-118943200D02*
X93918700Y-119401200D01*
X116634000Y-87705200D02*
X116516200Y-87587400D01*
X116634000Y-89032400D02*
X116634000Y-87705200D01*
X117737500Y-89748200D02*
X117737500Y-89105800D01*
X119311200Y-91321900D02*
X117737500Y-89748200D01*
X119311200Y-94562300D02*
X119311200Y-91321900D01*
X120779100Y-96030200D02*
X119311200Y-94562300D01*
X120779100Y-100969100D02*
X120779100Y-96030200D01*
X115618900Y-111680600D02*
X114527900Y-110589600D01*
X115618900Y-112237600D02*
X115618900Y-111680600D01*
X116686100Y-104345300D02*
X116644800Y-104304000D01*
X116686100Y-107760200D02*
X116686100Y-104345300D01*
X116409400Y-108036900D02*
X116686100Y-107760200D01*
X116409400Y-110726000D02*
X116409400Y-108036900D01*
X120532300Y-101215900D02*
X120779100Y-100969100D01*
X120532300Y-104157800D02*
X120532300Y-101215900D01*
X105619100Y-115112500D02*
X105794500Y-114937100D01*
X105619100Y-119304600D02*
X105619100Y-115112500D01*
X106041700Y-119727200D02*
X105619100Y-119304600D01*
X94036900Y-100114200D02*
X94036900Y-100268700D01*
X95308900Y-98842200D02*
X94036900Y-100114200D01*
X95308900Y-94439600D02*
X95308900Y-98842200D01*
X94532600Y-93663300D02*
X95308900Y-94439600D01*
X94532600Y-85382700D02*
X94532600Y-93663300D01*
X87390700Y-100424300D02*
X87273800Y-100307400D01*
X87390700Y-102105500D02*
X87390700Y-100424300D01*
X87188200Y-102308000D02*
X87390700Y-102105500D01*
X87188200Y-103807600D02*
X87188200Y-102308000D01*
X87024500Y-103971300D02*
X87188200Y-103807600D01*
X87024500Y-107058600D02*
X87024500Y-103971300D01*
X87214800Y-107248900D02*
X87024500Y-107058600D01*
X87214800Y-107696900D02*
X87214800Y-107248900D01*
X87086700Y-107825000D02*
X87214800Y-107696900D01*
X87086700Y-110562700D02*
X87086700Y-107825000D01*
X86929600Y-110719800D02*
X87086700Y-110562700D01*
%TO.N,/Minute9*%
X85580300Y-91246500D02*
X84346400Y-92480400D01*
X85580300Y-90315700D02*
X85580300Y-91246500D01*
X85429700Y-90165100D02*
X85580300Y-90315700D01*
X85429700Y-89404200D02*
X85429700Y-90165100D01*
X85630500Y-89203400D02*
X85429700Y-89404200D01*
X84547700Y-92681700D02*
X84346400Y-92480400D01*
X84547700Y-93934400D02*
X84547700Y-92681700D01*
X83415500Y-95066600D02*
X84547700Y-93934400D01*
%TO.N,/R3*%
X113055100Y-95869300D02*
X113055100Y-93405300D01*
X113200800Y-96015000D02*
X113055100Y-95869300D01*
X113200800Y-96301300D02*
X113200800Y-96015000D01*
X112993300Y-96508800D02*
X113200800Y-96301300D01*
X112993300Y-97721000D02*
X112993300Y-96508800D01*
X113096000Y-97823700D02*
X112993300Y-97721000D01*
X90187700Y-83475000D02*
X89735000Y-83927700D01*
X90187700Y-82118900D02*
X90187700Y-83475000D01*
X90841300Y-81465300D02*
X90187700Y-82118900D01*
X87683100Y-110625600D02*
X88022400Y-110286300D01*
X87683100Y-112446100D02*
X87683100Y-110625600D01*
X113025800Y-88547600D02*
X113025800Y-87818000D01*
X113025800Y-87818000D02*
X113204800Y-87818000D01*
X84663500Y-85513800D02*
X85664400Y-84512900D01*
X84663500Y-88605500D02*
X84663500Y-85513800D01*
X85152500Y-89094500D02*
X84663500Y-88605500D01*
X85152500Y-90175500D02*
X85152500Y-89094500D01*
X84976500Y-90351500D02*
X85152500Y-90175500D01*
X113025800Y-88547600D02*
X113025800Y-88499000D01*
X113025800Y-88669700D02*
X113025800Y-88547600D01*
X113492200Y-89136100D02*
X113025800Y-88669700D01*
X113492200Y-89468900D02*
X113492200Y-89136100D01*
X113296500Y-89664600D02*
X113492200Y-89468900D01*
X113296500Y-93163900D02*
X113296500Y-89664600D01*
X113055100Y-93405300D02*
X113296500Y-93163900D01*
X115582400Y-107589900D02*
X115166300Y-108006000D01*
X115582400Y-104017100D02*
X115582400Y-107589900D01*
X115786900Y-103812600D02*
X115582400Y-104017100D01*
X115786900Y-100108000D02*
X115786900Y-103812600D01*
X114998600Y-99319700D02*
X115786900Y-100108000D01*
X114998600Y-99049100D02*
X114998600Y-99319700D01*
X111871900Y-82012800D02*
X110666900Y-80807800D01*
X111871900Y-84352900D02*
X111871900Y-82012800D01*
X112864900Y-85345900D02*
X111871900Y-84352900D01*
X112864900Y-87657100D02*
X112864900Y-85345900D01*
X113025800Y-87818000D02*
X112864900Y-87657100D01*
X107546400Y-97605100D02*
X107510500Y-97569200D01*
X107546400Y-105535700D02*
X107546400Y-97605100D01*
X107311000Y-105771100D02*
X107546400Y-105535700D01*
X107311000Y-110840600D02*
X107311000Y-105771100D01*
X107594600Y-111124200D02*
X107311000Y-110840600D01*
X107594600Y-114026800D02*
X107594600Y-111124200D01*
X107357800Y-114263600D02*
X107594600Y-114026800D01*
X82337300Y-101533400D02*
X82186200Y-101684500D01*
X82337300Y-100214000D02*
X82337300Y-101533400D01*
X81490200Y-99366900D02*
X82337300Y-100214000D01*
X81490200Y-98378200D02*
X81490200Y-99366900D01*
X81877200Y-97991200D02*
X81490200Y-98378200D01*
X81877200Y-96025900D02*
X81877200Y-97991200D01*
X82112700Y-95790400D02*
X81877200Y-96025900D01*
X82112700Y-93667700D02*
X82112700Y-95790400D01*
X81951900Y-93506900D02*
X82112700Y-93667700D01*
X81951900Y-91409300D02*
X81951900Y-93506900D01*
X82111200Y-91250000D02*
X81951900Y-91409300D01*
%TO.N,/B3*%
X96172600Y-117821900D02*
X96172600Y-116914900D01*
X95206600Y-118787900D02*
X96172600Y-117821900D01*
X90092900Y-102918000D02*
X89987500Y-103023400D01*
X90092900Y-100797600D02*
X90092900Y-102918000D01*
X90092900Y-100797600D02*
X90507000Y-100797600D01*
X92554100Y-91521100D02*
X92554100Y-89570200D01*
X92096800Y-91978400D02*
X92554100Y-91521100D01*
X93026300Y-89570200D02*
X92554100Y-89570200D01*
X92554100Y-85820600D02*
X92614800Y-85759900D01*
X92554100Y-89570200D02*
X92554100Y-85820600D01*
X87078200Y-111471200D02*
X86986400Y-111471200D01*
X103569200Y-86034800D02*
X103569200Y-84991800D01*
X103630800Y-86096400D02*
X103569200Y-86034800D01*
X103630800Y-88938900D02*
X103630800Y-86096400D01*
X103580700Y-88989000D02*
X103630800Y-88938900D01*
X112463200Y-89523700D02*
X112269800Y-89717100D01*
X112463200Y-87933000D02*
X112463200Y-89523700D01*
X111659400Y-98845300D02*
X111868400Y-99054300D01*
X111659400Y-97012600D02*
X111659400Y-98845300D01*
X111860200Y-96811800D02*
X111659400Y-97012600D01*
X111868400Y-99054300D02*
X112077400Y-99054300D01*
X87133900Y-111526900D02*
X87078200Y-111471200D01*
X87133900Y-112384600D02*
X87133900Y-111526900D01*
X86243200Y-113275300D02*
X87133900Y-112384600D01*
X86243200Y-113446700D02*
X86243200Y-113275300D01*
X86329100Y-113532600D02*
X86243200Y-113446700D01*
X86329100Y-114161300D02*
X86329100Y-113532600D01*
X86128300Y-114362100D02*
X86329100Y-114161300D01*
X90092900Y-94631800D02*
X90092900Y-100797600D01*
X89666100Y-94205000D02*
X90092900Y-94631800D01*
X89666100Y-92417100D02*
X89666100Y-94205000D01*
X90224400Y-91858800D02*
X89666100Y-92417100D01*
X113526200Y-108765000D02*
X113498200Y-108793000D01*
X113526200Y-106095800D02*
X113526200Y-108765000D01*
X113371200Y-105940800D02*
X113526200Y-106095800D01*
X113371200Y-105608200D02*
X113371200Y-105940800D01*
X113526200Y-105453200D02*
X113371200Y-105608200D01*
X113526200Y-101835600D02*
X113526200Y-105453200D01*
X113217900Y-101527300D02*
X113526200Y-101835600D01*
X112757900Y-101527300D02*
X113217900Y-101527300D01*
X112707600Y-101577600D02*
X112757900Y-101527300D01*
X112341900Y-101577600D02*
X112707600Y-101577600D01*
X111868400Y-101104100D02*
X112341900Y-101577600D01*
X111868400Y-99054300D02*
X111868400Y-101104100D01*
X95447100Y-115879700D02*
X95681100Y-116113700D01*
X95447100Y-112620100D02*
X95447100Y-115879700D01*
X95614800Y-112452400D02*
X95447100Y-112620100D01*
X108264700Y-92070500D02*
X108296400Y-92102200D01*
X108264700Y-89327700D02*
X108264700Y-92070500D01*
X111166000Y-92222000D02*
X111307900Y-92363900D01*
X111166000Y-90539600D02*
X111166000Y-92222000D01*
X111988500Y-89717100D02*
X111166000Y-90539600D01*
X112269800Y-89717100D02*
X111988500Y-89717100D01*
X111307900Y-93421200D02*
X111362500Y-93475800D01*
X111307900Y-92363900D02*
X111307900Y-93421200D01*
X87331300Y-111218100D02*
X87078200Y-111471200D01*
X87331300Y-109351200D02*
X87331300Y-111218100D01*
X87321300Y-109341200D02*
X87331300Y-109351200D01*
X87321300Y-108362100D02*
X87321300Y-109341200D01*
X87725100Y-107958300D02*
X87321300Y-108362100D01*
X88024500Y-103400500D02*
X87589900Y-102965900D01*
X88024500Y-107658900D02*
X88024500Y-103400500D01*
X87725100Y-107958300D02*
X88024500Y-107658900D01*
%TO.N,/Second6*%
X95445800Y-116515400D02*
X94766600Y-117194600D01*
X95847500Y-116515400D02*
X95445800Y-116515400D01*
X96250500Y-116112400D02*
X95847500Y-116515400D01*
X96250500Y-113763100D02*
X96250500Y-116112400D01*
X96082800Y-113595400D02*
X96250500Y-113763100D01*
X96082800Y-106839100D02*
X96082800Y-113595400D01*
X95833000Y-106589300D02*
X96082800Y-106839100D01*
X95833000Y-104543200D02*
X95833000Y-106589300D01*
X95775600Y-104485800D02*
X95833000Y-104543200D01*
X95775600Y-101257400D02*
X95775600Y-104485800D01*
X96380200Y-100652800D02*
X95775600Y-101257400D01*
%TO.N,/Hour2*%
X88201400Y-91630100D02*
X88201400Y-90394900D01*
X87674100Y-92157400D02*
X88201400Y-91630100D01*
X89040200Y-105462200D02*
X88946300Y-105556100D01*
X89040200Y-99725300D02*
X89040200Y-105462200D01*
X87222600Y-97907700D02*
X89040200Y-99725300D01*
X92594100Y-109359600D02*
X92594100Y-111288900D01*
X92314800Y-109080300D02*
X92594100Y-109359600D01*
X92314800Y-105742300D02*
X92314800Y-109080300D01*
X103507800Y-102915600D02*
X103507800Y-101398800D01*
X102777400Y-103646000D02*
X103507800Y-102915600D01*
X102777400Y-111459200D02*
X102777400Y-103646000D01*
X102880700Y-111562500D02*
X102777400Y-111459200D01*
X87753100Y-97377200D02*
X87222600Y-97907700D01*
X87753100Y-92236400D02*
X87753100Y-97377200D01*
X87674100Y-92157400D02*
X87753100Y-92236400D01*
%TO.N,/G3*%
X93284300Y-84476500D02*
X93284300Y-86226600D01*
X92555600Y-83747800D02*
X93284300Y-84476500D01*
X105330100Y-93875300D02*
X105330100Y-91981800D01*
X105311700Y-93893700D02*
X105330100Y-93875300D01*
X93284300Y-88391600D02*
X93284300Y-86226600D01*
X93428000Y-88535300D02*
X93284300Y-88391600D01*
X93428000Y-91015300D02*
X93428000Y-88535300D01*
X93209000Y-91234300D02*
X93428000Y-91015300D01*
X104273600Y-83803900D02*
X104319700Y-83850000D01*
X104273600Y-82329000D02*
X104273600Y-83803900D01*
X104794600Y-91446300D02*
X105330100Y-91981800D01*
X104794600Y-89812300D02*
X104794600Y-91446300D01*
X104825200Y-89781700D02*
X104794600Y-89812300D01*
X104825200Y-85311900D02*
X104825200Y-89781700D01*
X104319700Y-84806400D02*
X104825200Y-85311900D01*
X104319700Y-83850000D02*
X104319700Y-84806400D01*
X112160200Y-94780700D02*
X112141200Y-94780700D01*
X112261900Y-94882400D02*
X112160200Y-94780700D01*
X112261900Y-97865600D02*
X112261900Y-94882400D01*
X112988200Y-98591900D02*
X112261900Y-97865600D01*
X112988200Y-98994600D02*
X112988200Y-98591900D01*
X106532300Y-97194000D02*
X106532300Y-94489300D01*
X105926200Y-97800100D02*
X106532300Y-97194000D01*
X113090500Y-89746100D02*
X113090500Y-89302500D01*
X112160200Y-90676400D02*
X113090500Y-89746100D01*
X112160200Y-94780700D02*
X112160200Y-90676400D01*
X120214800Y-99400100D02*
X119807000Y-98992300D01*
X120214800Y-102630600D02*
X120214800Y-99400100D01*
X119913900Y-102931500D02*
X120214800Y-102630600D01*
X119913900Y-107022500D02*
X119913900Y-102931500D01*
X118922900Y-108013500D02*
X119913900Y-107022500D01*
X118922900Y-109184400D02*
X118922900Y-108013500D01*
X118146500Y-109960800D02*
X118922900Y-109184400D01*
X98576100Y-112662700D02*
X98320300Y-112406900D01*
X98576100Y-114573800D02*
X98576100Y-112662700D01*
X86649400Y-91975500D02*
X86479800Y-91805900D01*
X86649400Y-94886000D02*
X86649400Y-91975500D01*
X86820800Y-95057400D02*
X86649400Y-94886000D01*
X86820800Y-99236200D02*
X86820800Y-95057400D01*
X87031800Y-99447200D02*
X86820800Y-99236200D01*
X84890500Y-99795100D02*
X85067900Y-99617700D01*
X84890500Y-100755500D02*
X84890500Y-99795100D01*
X88235000Y-108265300D02*
X88252100Y-108282400D01*
X88235000Y-100061500D02*
X88235000Y-108265300D01*
X87675600Y-99502100D02*
X88235000Y-100061500D01*
X88429800Y-111568100D02*
X88091100Y-111906800D01*
X88429800Y-108460100D02*
X88429800Y-111568100D01*
X88252100Y-108282400D02*
X88429800Y-108460100D01*
%TO.N,/G6*%
X100774800Y-87456000D02*
X100774800Y-85288000D01*
X100930100Y-87611300D02*
X100774800Y-87456000D01*
X95640200Y-85316000D02*
X95640200Y-86347000D01*
X94149500Y-88138300D02*
X93939000Y-88348800D01*
X94149500Y-86471000D02*
X94149500Y-88138300D01*
X94014500Y-86336000D02*
X94149500Y-86471000D01*
X112122500Y-116720800D02*
X111507100Y-117336200D01*
X112122500Y-115382900D02*
X112122500Y-116720800D01*
X87560600Y-86808800D02*
X87446300Y-86694500D01*
X87560600Y-87352700D02*
X87560600Y-86808800D01*
X116630200Y-103376800D02*
X117149100Y-103895700D01*
X116630200Y-101095200D02*
X116630200Y-103376800D01*
X116593700Y-101058700D02*
X116630200Y-101095200D01*
X116593700Y-97445300D02*
X116593700Y-101058700D01*
X115796900Y-96648500D02*
X116593700Y-97445300D01*
X115796900Y-93418200D02*
X115796900Y-96648500D01*
X116161800Y-93053300D02*
X115796900Y-93418200D01*
X112232200Y-113057700D02*
X112221100Y-113057700D01*
X112949500Y-113775000D02*
X112232200Y-113057700D01*
X112949500Y-115288800D02*
X112949500Y-113775000D01*
X109495200Y-111950800D02*
X109522900Y-111978500D01*
X109495200Y-110388200D02*
X109495200Y-111950800D01*
X109522900Y-110360500D02*
X109495200Y-110388200D01*
X109522900Y-104184400D02*
X109522900Y-110360500D01*
X109337700Y-103999200D02*
X109522900Y-104184400D01*
X102441200Y-118909700D02*
X102743400Y-119211900D01*
X102441200Y-117811200D02*
X102441200Y-118909700D01*
X107144500Y-97865100D02*
X107144500Y-102798000D01*
X107069500Y-97790100D02*
X107144500Y-97865100D01*
X107069500Y-93577300D02*
X107069500Y-97790100D01*
X107104700Y-93542100D02*
X107069500Y-93577300D01*
X88631500Y-109973500D02*
X88866600Y-109738400D01*
X88631500Y-113372400D02*
X88631500Y-109973500D01*
X89008100Y-113749000D02*
X88631500Y-113372400D01*
X89008100Y-117530900D02*
X89008100Y-113749000D01*
X88928000Y-117611000D02*
X89008100Y-117530900D01*
X108249000Y-87403900D02*
X108249000Y-87403800D01*
X108312900Y-87403900D02*
X108249000Y-87403900D01*
X108785500Y-87876500D02*
X108312900Y-87403900D01*
X108785500Y-89547500D02*
X108785500Y-87876500D01*
X108618900Y-89714100D02*
X108785500Y-89547500D01*
X108618900Y-91856600D02*
X108618900Y-89714100D01*
X108698100Y-91935800D02*
X108618900Y-91856600D01*
X108698100Y-92749800D02*
X108698100Y-91935800D01*
X108618900Y-92829000D02*
X108698100Y-92749800D01*
X87240700Y-88913500D02*
X88021300Y-88132900D01*
X87240700Y-94320900D02*
X87240700Y-88913500D01*
X87452800Y-94533000D02*
X87240700Y-94320900D01*
X87452800Y-96203800D02*
X87452800Y-94533000D01*
X87318800Y-96337800D02*
X87452800Y-96203800D01*
X85872400Y-108531100D02*
X85002200Y-107660900D01*
X85872400Y-109786000D02*
X85872400Y-108531100D01*
X85764100Y-97094500D02*
X86127000Y-96731600D01*
X85764100Y-101841900D02*
X85764100Y-97094500D01*
X86031100Y-102108900D02*
X85764100Y-101841900D01*
X86031100Y-102441600D02*
X86031100Y-102108900D01*
X85999400Y-102473300D02*
X86031100Y-102441600D01*
X85999400Y-104635300D02*
X85999400Y-102473300D01*
X85698600Y-104936100D02*
X85999400Y-104635300D01*
X85698600Y-105268700D02*
X85698600Y-104936100D01*
X86148700Y-105718800D02*
X85698600Y-105268700D01*
X86148700Y-106105200D02*
X86148700Y-105718800D01*
X85002200Y-107251700D02*
X86148700Y-106105200D01*
X85002200Y-107660900D02*
X85002200Y-107251700D01*
%TO.N,/Minute10*%
X90841600Y-85014400D02*
X90841600Y-84543100D01*
X90451000Y-85405000D02*
X90841600Y-85014400D01*
X97630500Y-84237500D02*
X97491600Y-84098600D01*
X97630500Y-91986500D02*
X97630500Y-84237500D01*
X97893700Y-92249700D02*
X97630500Y-91986500D01*
%TO.N,/G2*%
X105606900Y-96069900D02*
X105277200Y-96399600D01*
X105902600Y-96069900D02*
X105606900Y-96069900D01*
X91482000Y-86031400D02*
X91914700Y-86464100D01*
X91482000Y-84047800D02*
X91482000Y-86031400D01*
X102068100Y-88418400D02*
X102814700Y-87671800D01*
X102068100Y-88516000D02*
X102068100Y-88418400D01*
X102814700Y-87671800D02*
X103038200Y-87895300D01*
X104522900Y-95645300D02*
X105277200Y-96399600D01*
X104522900Y-88253600D02*
X104522900Y-95645300D01*
X104422400Y-88153100D02*
X104522900Y-88253600D01*
X91605700Y-86773100D02*
X91605700Y-89642200D01*
X91914700Y-86464100D02*
X91605700Y-86773100D01*
X91605700Y-91714100D02*
X91605700Y-89642200D01*
X91280700Y-92039100D02*
X91605700Y-91714100D01*
X102812600Y-87669700D02*
X102814700Y-87671800D01*
X102812600Y-86537100D02*
X102812600Y-87669700D01*
X102983200Y-86366500D02*
X102812600Y-86537100D01*
X102983200Y-85494100D02*
X102983200Y-86366500D01*
X109824700Y-118428000D02*
X110666900Y-119270200D01*
X109824700Y-117428400D02*
X109824700Y-118428000D01*
X99244400Y-88668800D02*
X99244400Y-89967400D01*
X99022000Y-88446400D02*
X99244400Y-88668800D01*
X118235000Y-108135400D02*
X117821600Y-108548800D01*
X118235000Y-106360900D02*
X118235000Y-108135400D01*
X118748700Y-105847200D02*
X118235000Y-106360900D01*
X118748700Y-97095800D02*
X118748700Y-105847200D01*
X119039900Y-96804600D02*
X118748700Y-97095800D01*
X109884200Y-100176900D02*
X109884200Y-95655600D01*
X109428700Y-100632400D02*
X109884200Y-100176900D01*
X109031300Y-100632400D02*
X109428700Y-100632400D01*
X108752600Y-100353700D02*
X109031300Y-100632400D01*
X108752600Y-100107600D02*
X108752600Y-100353700D01*
X108952600Y-99907600D02*
X108752600Y-100107600D01*
X108952600Y-99574800D02*
X108952600Y-99907600D01*
X108717300Y-99339500D02*
X108952600Y-99574800D01*
X108384600Y-99339500D02*
X108717300Y-99339500D01*
X108149200Y-99574900D02*
X108384600Y-99339500D01*
X108149200Y-100451700D02*
X108149200Y-99574900D01*
X108681700Y-100984200D02*
X108149200Y-100451700D01*
X108681700Y-101756500D02*
X108681700Y-100984200D01*
X108659100Y-101779100D02*
X108681700Y-101756500D01*
X108659100Y-102111700D02*
X108659100Y-101779100D01*
X108681700Y-102134300D02*
X108659100Y-102111700D01*
X108681700Y-112267000D02*
X108681700Y-102134300D01*
X108807700Y-112393000D02*
X108681700Y-112267000D01*
X108807700Y-113082800D02*
X108807700Y-112393000D01*
X108527100Y-113363400D02*
X108807700Y-113082800D01*
X108527100Y-115036000D02*
X108527100Y-113363400D01*
X108546300Y-115055200D02*
X108527100Y-115036000D01*
X108710600Y-114890900D02*
X108546300Y-115055200D01*
X109881700Y-114890900D02*
X108710600Y-114890900D01*
X110117000Y-115126200D02*
X109881700Y-114890900D01*
X110117000Y-115459000D02*
X110117000Y-115126200D01*
X109824700Y-115751300D02*
X110117000Y-115459000D01*
X109824700Y-117428400D02*
X109824700Y-115751300D01*
X88204700Y-117436900D02*
X88284700Y-117516900D01*
X88204700Y-115514500D02*
X88204700Y-117436900D01*
X87844800Y-115154600D02*
X88204700Y-115514500D01*
X84104000Y-95114200D02*
X85050200Y-94168000D01*
X84104000Y-98772100D02*
X84104000Y-95114200D01*
X84257500Y-98925600D02*
X84104000Y-98772100D01*
X84257500Y-99258400D02*
X84257500Y-98925600D01*
X84154700Y-99361200D02*
X84257500Y-99258400D01*
X84154700Y-103379200D02*
X84154700Y-99361200D01*
X84656200Y-103880700D02*
X84154700Y-103379200D01*
%TO.N,/Second2*%
X116219900Y-88546800D02*
X116219900Y-89742600D01*
X116214800Y-89747700D02*
X116219900Y-89742600D01*
X116214800Y-91505800D02*
X116214800Y-89747700D01*
X116219900Y-89742600D02*
X116224000Y-89742600D01*
X96174000Y-91100900D02*
X96125000Y-91051900D01*
X96174000Y-96075600D02*
X96174000Y-91100900D01*
X96475900Y-96377500D02*
X96174000Y-96075600D01*
X111961800Y-89135600D02*
X111093500Y-90003900D01*
X111961800Y-86293700D02*
X111961800Y-89135600D01*
%TO.N,/Second3*%
X118112900Y-93616700D02*
X118418300Y-93311300D01*
X118112900Y-95090900D02*
X118112900Y-93616700D01*
X118263900Y-101615400D02*
X118043400Y-101394900D01*
X118263900Y-102668300D02*
X118263900Y-101615400D01*
X117661000Y-103271200D02*
X118263900Y-102668300D01*
X118058100Y-101380200D02*
X118043400Y-101394900D01*
X118058100Y-97076300D02*
X118058100Y-101380200D01*
%TO.N,/Minute6*%
X99748600Y-112429900D02*
X99823500Y-112355000D01*
X99748600Y-115210400D02*
X99748600Y-112429900D01*
X101850300Y-105399600D02*
X101847600Y-105396900D01*
X101850300Y-111781400D02*
X101850300Y-105399600D01*
X101772200Y-111859500D02*
X101850300Y-111781400D01*
%TO.N,/Second7*%
X104919400Y-106496600D02*
X104322100Y-107093900D01*
X104919400Y-105357200D02*
X104919400Y-106496600D01*
X81847200Y-109621000D02*
X81768000Y-109700200D01*
X81847200Y-107942600D02*
X81847200Y-109621000D01*
X103187900Y-109425700D02*
X103355900Y-109593700D01*
X103187900Y-107535400D02*
X103187900Y-109425700D01*
X89558300Y-111083100D02*
X89033200Y-110558000D01*
X89558300Y-113163100D02*
X89558300Y-111083100D01*
X89660800Y-113265600D02*
X89558300Y-113163100D01*
X89660800Y-114545300D02*
X89660800Y-113265600D01*
X89516300Y-114689800D02*
X89660800Y-114545300D01*
X85927400Y-112127000D02*
X86137800Y-111916600D01*
X85927400Y-113699000D02*
X85927400Y-112127000D01*
%TO.N,Net-(J1-~{RST})*%
X104321000Y-99959100D02*
X104321000Y-104865600D01*
X105482700Y-98797400D02*
X104321000Y-99959100D01*
X105482700Y-98492800D02*
X105482700Y-98797400D01*
%TO.N,/B5*%
X106038300Y-86549100D02*
X106038300Y-88495400D01*
X106534800Y-86052600D02*
X106038300Y-86549100D01*
X94793900Y-105325000D02*
X95420300Y-104698600D01*
X94793900Y-108652600D02*
X94793900Y-105325000D01*
X111713700Y-109626700D02*
X111960600Y-109626700D01*
X111960600Y-111780700D02*
X112066200Y-111886300D01*
X111960600Y-109626700D02*
X111960600Y-111780700D01*
X111960600Y-108509300D02*
X112138000Y-108331900D01*
X111960600Y-109626700D02*
X111960600Y-108509300D01*
X112081000Y-104333600D02*
X111587200Y-104827400D01*
X112081000Y-102734100D02*
X112081000Y-104333600D01*
X106421200Y-85939000D02*
X106534800Y-86052600D01*
X106421200Y-83755800D02*
X106421200Y-85939000D01*
X106850500Y-83326500D02*
X106421200Y-83755800D01*
X115436300Y-92112300D02*
X115272800Y-91948800D01*
X115436300Y-97448000D02*
X115436300Y-92112300D01*
X116228500Y-98240200D02*
X115436300Y-97448000D01*
X116228500Y-102487500D02*
X116228500Y-98240200D01*
X91900600Y-117850500D02*
X91900600Y-118122200D01*
X111573100Y-107767000D02*
X112138000Y-108331900D01*
X111573100Y-104841500D02*
X111573100Y-107767000D01*
X111587200Y-104827400D02*
X111573100Y-104841500D01*
X92207600Y-117543500D02*
X91900600Y-117850500D01*
X92207600Y-117118600D02*
X92207600Y-117543500D01*
X93004800Y-116321400D02*
X92207600Y-117118600D01*
X86813100Y-104214100D02*
X86813100Y-107530500D01*
X86611200Y-104012200D02*
X86813100Y-104214100D01*
X103384700Y-116738300D02*
X102993900Y-117129100D01*
X103384700Y-111062500D02*
X103384700Y-116738300D01*
X103759000Y-110688200D02*
X103384700Y-111062500D01*
X103759000Y-109028800D02*
X103759000Y-110688200D01*
X103683700Y-108953500D02*
X103759000Y-109028800D01*
X90210400Y-108659800D02*
X89782300Y-108231700D01*
X90210400Y-111031000D02*
X90210400Y-108659800D01*
X89829300Y-111412100D02*
X90210400Y-111031000D01*
X89829300Y-113148900D02*
X89829300Y-111412100D01*
X90102900Y-113422500D02*
X89829300Y-113148900D01*
X90102900Y-115397900D02*
X90102900Y-113422500D01*
X90982900Y-116277900D02*
X90102900Y-115397900D01*
X90982900Y-117504000D02*
X90982900Y-116277900D01*
X91329400Y-117850500D02*
X90982900Y-117504000D01*
X91900600Y-117850500D02*
X91329400Y-117850500D01*
X85597700Y-102811400D02*
X85597700Y-104012200D01*
X85227700Y-102441400D02*
X85597700Y-102811400D01*
X85227700Y-102108900D02*
X85227700Y-102441400D01*
X85470100Y-101866500D02*
X85227700Y-102108900D01*
X85470100Y-98498600D02*
X85470100Y-101866500D01*
X85172400Y-98200900D02*
X85470100Y-98498600D01*
X85172400Y-98200900D02*
X85171900Y-98200900D01*
X85394600Y-97978700D02*
X85172400Y-98200900D01*
X85394600Y-95495800D02*
X85394600Y-97978700D01*
X86045900Y-94844500D02*
X85394600Y-95495800D01*
%TO.N,/R6*%
X98246100Y-82828500D02*
X98246100Y-80256200D01*
X109625100Y-101642300D02*
X109625100Y-103247300D01*
X108550900Y-100568100D02*
X109625100Y-101642300D01*
X108550900Y-99741200D02*
X108550900Y-100568100D01*
X109229400Y-84995700D02*
X108946500Y-84995700D01*
X109229400Y-84149700D02*
X110538300Y-82840800D01*
X109229400Y-84995700D02*
X109229400Y-84149700D01*
X108789300Y-93708800D02*
X108789300Y-98150600D01*
X108987800Y-93510300D02*
X108789300Y-93708800D01*
X98488000Y-83070400D02*
X98246100Y-82828500D01*
X98488000Y-84864400D02*
X98488000Y-83070400D01*
X98298100Y-85054300D02*
X98488000Y-84864400D01*
X98298100Y-87245000D02*
X98298100Y-85054300D01*
X89572600Y-96595500D02*
X89572600Y-105346500D01*
X89650900Y-96517200D02*
X89572600Y-96595500D01*
X89339000Y-96205300D02*
X89650900Y-96517200D01*
X89339000Y-87363400D02*
X89339000Y-96205300D01*
X88937300Y-86961700D02*
X89339000Y-87363400D01*
X102477400Y-114167600D02*
X102477400Y-116181500D01*
X102573300Y-114071700D02*
X102477400Y-114167600D01*
X89572600Y-105911000D02*
X88893100Y-106590500D01*
X89572600Y-105346500D02*
X89572600Y-105911000D01*
X92440200Y-114487400D02*
X92511400Y-114558600D01*
X92440200Y-112594500D02*
X92440200Y-114487400D01*
X92995900Y-112038800D02*
X92440200Y-112594500D01*
X92995900Y-109193400D02*
X92995900Y-112038800D01*
X92915700Y-109113200D02*
X92995900Y-109193400D01*
X100325100Y-109322300D02*
X100325100Y-107591200D01*
X100525900Y-109523100D02*
X100325100Y-109322300D01*
X100525900Y-110803900D02*
X100525900Y-109523100D01*
X110432900Y-93111000D02*
X110432900Y-91962100D01*
X110216300Y-93327600D02*
X110432900Y-93111000D01*
X109342600Y-85108900D02*
X109229400Y-84995700D01*
X109342600Y-87881800D02*
X109342600Y-85108900D01*
X109974200Y-88513400D02*
X109342600Y-87881800D01*
X109974200Y-89758100D02*
X109974200Y-88513400D01*
X110701000Y-90484900D02*
X109974200Y-89758100D01*
X110701000Y-91694000D02*
X110701000Y-90484900D01*
X110432900Y-91962100D02*
X110701000Y-91694000D01*
X104825300Y-111541200D02*
X104963100Y-111403400D01*
X104825300Y-113591200D02*
X104825300Y-111541200D01*
X104259300Y-114157200D02*
X104825300Y-113591200D01*
X96291700Y-106570900D02*
X96291700Y-105546700D01*
X97042600Y-107321800D02*
X96291700Y-106570900D01*
X111328500Y-111421200D02*
X111383900Y-111421200D01*
X111383900Y-111785300D02*
X111383900Y-111421200D01*
X112254600Y-112656000D02*
X111383900Y-111785300D01*
X112500900Y-112656000D02*
X112254600Y-112656000D01*
X113024600Y-113179700D02*
X112500900Y-112656000D01*
X111185500Y-104328700D02*
X111513400Y-104000800D01*
X111185500Y-107792800D02*
X111185500Y-104328700D01*
X111383900Y-107991200D02*
X111185500Y-107792800D01*
X111383900Y-108324000D02*
X111383900Y-107991200D01*
X111284700Y-108423200D02*
X111383900Y-108324000D01*
X111284700Y-110464900D02*
X111284700Y-108423200D01*
X111383900Y-110564100D02*
X111284700Y-110464900D01*
X111383900Y-111421200D02*
X111383900Y-110564100D01*
%TO.N,/G1*%
X102696000Y-92672300D02*
X102851000Y-92827300D01*
X102696000Y-88444200D02*
X102696000Y-92672300D01*
X90501300Y-86418400D02*
X90501300Y-87412500D01*
X89558000Y-85475100D02*
X90501300Y-86418400D01*
X100233100Y-82051900D02*
X100201000Y-82019800D01*
X100233100Y-84399800D02*
X100233100Y-82051900D01*
X119580600Y-104868800D02*
X119298600Y-105150800D01*
X119580600Y-102799600D02*
X119580600Y-104868800D01*
X119411400Y-102630400D02*
X119580600Y-102799600D01*
X119411400Y-101563700D02*
X119411400Y-102630400D01*
X119924400Y-101050700D02*
X119411400Y-101563700D01*
X119924400Y-100717900D02*
X119924400Y-101050700D01*
X119689100Y-100482600D02*
X119924400Y-100717900D01*
X119558900Y-100482600D02*
X119689100Y-100482600D01*
X119365300Y-100289000D02*
X119558900Y-100482600D01*
X119365300Y-97889800D02*
X119365300Y-100289000D01*
X119485700Y-97769400D02*
X119365300Y-97889800D01*
X119485700Y-96242800D02*
X119485700Y-97769400D01*
X118861600Y-95618700D02*
X119485700Y-96242800D01*
X118861600Y-94537000D02*
X118861600Y-95618700D01*
X90501300Y-90857600D02*
X90501300Y-87412500D01*
X90680200Y-91036500D02*
X90501300Y-90857600D01*
X90680200Y-94263700D02*
X90680200Y-91036500D01*
X90311800Y-94632100D02*
X90680200Y-94263700D01*
X90311800Y-95556000D02*
X90311800Y-94632100D01*
X90653600Y-95897800D02*
X90311800Y-95556000D01*
X100276600Y-117917300D02*
X100276600Y-117298300D01*
X100656800Y-118297500D02*
X100276600Y-117917300D01*
X100276600Y-115287600D02*
X100276600Y-117298300D01*
X100437100Y-115127100D02*
X100276600Y-115287600D01*
X100314700Y-84481400D02*
X100233100Y-84399800D01*
X100314700Y-87239400D02*
X100314700Y-84481400D01*
X100314700Y-87887500D02*
X100514000Y-88086800D01*
X100314700Y-87239400D02*
X100314700Y-87887500D01*
X111246200Y-113914800D02*
X111246200Y-114315200D01*
X110580500Y-113249100D02*
X111246200Y-113914800D01*
X110580500Y-110564200D02*
X110580500Y-113249100D01*
X110778900Y-110365800D02*
X110580500Y-110564200D01*
X110778900Y-108522300D02*
X110778900Y-110365800D01*
X110580500Y-108323900D02*
X110778900Y-108522300D01*
X110580500Y-106643000D02*
X110580500Y-108323900D01*
X110491300Y-106553800D02*
X110580500Y-106643000D01*
X107941200Y-93225900D02*
X107973800Y-93193300D01*
X107941200Y-100953400D02*
X107941200Y-93225900D01*
X107872700Y-101021900D02*
X107941200Y-100953400D01*
X107872700Y-105529400D02*
X107872700Y-101021900D01*
X108279700Y-105936400D02*
X107872700Y-105529400D01*
X108279700Y-106253700D02*
X108279700Y-105936400D01*
X82929100Y-104557800D02*
X82929100Y-105460500D01*
X83417300Y-104069600D02*
X82929100Y-104557800D01*
X83417300Y-102222200D02*
X83417300Y-104069600D01*
X82630300Y-101435200D02*
X83417300Y-102222200D01*
X82630300Y-98874600D02*
X82630300Y-101435200D01*
X83126700Y-98378200D02*
X82630300Y-98874600D01*
X83126700Y-96060600D02*
X83126700Y-98378200D01*
X82535000Y-95468900D02*
X83126700Y-96060600D01*
%TO.N,/G5*%
X111765800Y-91344900D02*
X111567700Y-91146800D01*
X111765800Y-94216600D02*
X111765800Y-91344900D01*
X111384200Y-94598200D02*
X111765800Y-94216600D01*
X111384200Y-96281400D02*
X111384200Y-94598200D01*
X96522900Y-82641800D02*
X96522900Y-84955100D01*
X96355600Y-82474500D02*
X96522900Y-82641800D01*
X96522900Y-84955100D02*
X96962900Y-84955100D01*
X106329100Y-91486000D02*
X106329100Y-92017100D01*
X106701700Y-91113400D02*
X106329100Y-91486000D01*
X99930200Y-92928400D02*
X99848500Y-93010100D01*
X99930200Y-92048800D02*
X99930200Y-92928400D01*
X96522900Y-88330700D02*
X96522900Y-84955100D01*
X95672300Y-89181300D02*
X96522900Y-88330700D01*
X95672300Y-92812900D02*
X95672300Y-89181300D01*
X95772300Y-92912900D02*
X95672300Y-92812900D01*
X91469100Y-107483200D02*
X91469100Y-104538200D01*
X91928800Y-107942900D02*
X91469100Y-107483200D01*
X91928800Y-109308900D02*
X91928800Y-107942900D01*
X106701700Y-90575400D02*
X106701700Y-91113400D01*
X107782400Y-89494700D02*
X106701700Y-90575400D01*
X107782400Y-87006100D02*
X107782400Y-89494700D01*
X107875400Y-86913100D02*
X107782400Y-87006100D01*
X107875400Y-84907800D02*
X107875400Y-86913100D01*
X107608600Y-84641000D02*
X107875400Y-84907800D01*
X95520900Y-93164300D02*
X95772300Y-92912900D01*
X95520900Y-103461700D02*
X95520900Y-93164300D01*
X94721300Y-104261300D02*
X95520900Y-103461700D01*
X113772900Y-102331800D02*
X114171500Y-101933200D01*
X113772900Y-105774500D02*
X113772900Y-102331800D01*
X91928800Y-116430800D02*
X91833600Y-116526000D01*
X91928800Y-112686000D02*
X91928800Y-116430800D01*
X91693500Y-112450700D02*
X91928800Y-112686000D01*
X91693500Y-109544200D02*
X91693500Y-112450700D01*
X91928800Y-109308900D02*
X91693500Y-109544200D01*
X88091200Y-89716600D02*
X88040500Y-89716600D01*
X88839500Y-90464900D02*
X88091200Y-89716600D01*
X88839500Y-93212000D02*
X88839500Y-90464900D01*
X110982200Y-110730500D02*
X110982200Y-108157600D01*
X110982200Y-106174700D02*
X110491300Y-105683800D01*
X110982200Y-108157600D02*
X110982200Y-106174700D01*
X104541900Y-113033600D02*
X104414400Y-113161100D01*
X104541900Y-111223000D02*
X104541900Y-113033600D01*
X105034800Y-110730100D02*
X104541900Y-111223000D01*
X105034800Y-108850200D02*
X105034800Y-110730100D01*
X88229100Y-96874500D02*
X88229100Y-93774500D01*
X88410400Y-97055800D02*
X88229100Y-96874500D01*
%TO.N,/Second4*%
X108936000Y-105086000D02*
X109101200Y-105251200D01*
X108936000Y-102070200D02*
X108936000Y-105086000D01*
X109060800Y-101945400D02*
X108936000Y-102070200D01*
X117317300Y-109250000D02*
X117313500Y-109253800D01*
X117317300Y-105543400D02*
X117317300Y-109250000D01*
X117357700Y-109298000D02*
X117313500Y-109253800D01*
X117357700Y-110879600D02*
X117357700Y-109298000D01*
X116863800Y-111373500D02*
X117357700Y-110879600D01*
X114477900Y-114198600D02*
X114521300Y-114242000D01*
X114477900Y-111429400D02*
X114477900Y-114198600D01*
X114612100Y-111295200D02*
X114477900Y-111429400D01*
%TO.N,/B2*%
X101666400Y-89409800D02*
X102129900Y-89873300D01*
X101666400Y-86592700D02*
X101666400Y-89409800D01*
X101863600Y-86395500D02*
X101666400Y-86592700D01*
X101863600Y-86007000D02*
X101863600Y-86395500D01*
X102178400Y-85692200D02*
X101863600Y-86007000D01*
X102178400Y-85359400D02*
X102178400Y-85692200D01*
X101943100Y-85124100D02*
X102178400Y-85359400D01*
X101835200Y-85124100D02*
X101943100Y-85124100D01*
X101007900Y-84296800D02*
X101835200Y-85124100D01*
X101007900Y-82166500D02*
X101007900Y-84296800D01*
X103517800Y-96634900D02*
X103656300Y-96773400D01*
X103517800Y-90045100D02*
X103517800Y-96634900D01*
X103608900Y-89954000D02*
X103517800Y-90045100D01*
X87228300Y-114652900D02*
X87228300Y-112938100D01*
X87007500Y-114873700D02*
X87228300Y-114652900D01*
X90986300Y-85891400D02*
X90975800Y-85880900D01*
X90986300Y-90202700D02*
X90986300Y-85891400D01*
X113796700Y-96141500D02*
X113733800Y-96078600D01*
X113796700Y-98348400D02*
X113796700Y-96141500D01*
X113591700Y-98553400D02*
X113796700Y-98348400D01*
X113591700Y-99568900D02*
X113591700Y-98553400D01*
X114786200Y-100763400D02*
X113591700Y-99568900D01*
X114786200Y-101096100D02*
X114786200Y-100763400D01*
X114774900Y-101107400D02*
X114786200Y-101096100D01*
X114774900Y-102183100D02*
X114774900Y-101107400D01*
X114670200Y-102287800D02*
X114774900Y-102183100D01*
X114670200Y-107480600D02*
X114670200Y-102287800D01*
X98081000Y-115879000D02*
X98081000Y-117171200D01*
X97449200Y-115247200D02*
X98081000Y-115879000D01*
X97449200Y-113562600D02*
X97449200Y-115247200D01*
X96614200Y-112727600D02*
X97449200Y-113562600D01*
X97650900Y-118668500D02*
X97117800Y-119201600D01*
X97650900Y-117601300D02*
X97650900Y-118668500D01*
X98081000Y-117171200D02*
X97650900Y-117601300D01*
X109102400Y-116576100D02*
X108389800Y-115863500D01*
X109102400Y-117225700D02*
X109102400Y-116576100D01*
X82912800Y-106179400D02*
X81816500Y-105083100D01*
X82912800Y-111343200D02*
X82912800Y-106179400D01*
X83721000Y-112151400D02*
X82912800Y-111343200D01*
X83721000Y-112728500D02*
X83721000Y-112151400D01*
X81549800Y-105083100D02*
X81816500Y-105083100D01*
X107998000Y-109028300D02*
X108130200Y-108896100D01*
X107998000Y-115471700D02*
X107998000Y-109028300D01*
X108389800Y-115863500D02*
X107998000Y-115471700D01*
X81816500Y-104654900D02*
X82573800Y-103897600D01*
X81816500Y-105083100D02*
X81816500Y-104654900D01*
%TO.N,/Minute2*%
X114137000Y-98576100D02*
X113993400Y-98719700D01*
X114137000Y-94231200D02*
X114137000Y-98576100D01*
X113982200Y-94076400D02*
X114137000Y-94231200D01*
X113982200Y-93190900D02*
X113982200Y-94076400D01*
X111426900Y-87584500D02*
X110778900Y-86936500D01*
X111426900Y-88795200D02*
X111426900Y-87584500D01*
%TO.N,/B6*%
X82644000Y-109117000D02*
X82318600Y-108791600D01*
X82644000Y-111969000D02*
X82644000Y-109117000D01*
X97893300Y-88282200D02*
X97893300Y-84698000D01*
X98057500Y-88446400D02*
X97893300Y-88282200D01*
X97893300Y-84698000D02*
X98086300Y-84698000D01*
X97893300Y-83566600D02*
X97332300Y-83005600D01*
X97893300Y-84698000D02*
X97893300Y-83566600D01*
X114983500Y-103171400D02*
X115161900Y-103349800D01*
X114983500Y-101184000D02*
X114983500Y-103171400D01*
X114987900Y-101179600D02*
X114983500Y-101184000D01*
X114987900Y-100679900D02*
X114987900Y-101179600D01*
X114401800Y-100093800D02*
X114987900Y-100679900D01*
X114401800Y-93928000D02*
X114401800Y-100093800D01*
X83972000Y-111578700D02*
X83972000Y-107576800D01*
X84539900Y-112146600D02*
X83972000Y-111578700D01*
X83579200Y-95934500D02*
X83579200Y-97321300D01*
X83002200Y-95357500D02*
X83579200Y-95934500D01*
X83002200Y-94888800D02*
X83002200Y-95357500D01*
X83198500Y-94692500D02*
X83002200Y-94888800D01*
X83198500Y-92647600D02*
X83198500Y-94692500D01*
X83738300Y-92107800D02*
X83198500Y-92647600D01*
X83738300Y-90468300D02*
X83738300Y-92107800D01*
X84097900Y-90108700D02*
X83738300Y-90468300D01*
X84097900Y-88463000D02*
X84097900Y-90108700D01*
X83751900Y-88117000D02*
X84097900Y-88463000D01*
X84539900Y-114424500D02*
X84539900Y-112146600D01*
X85961700Y-115846300D02*
X84539900Y-114424500D01*
X86078900Y-115846300D02*
X85961700Y-115846300D01*
X101369600Y-114117300D02*
X101702400Y-113784500D01*
X101369600Y-117293300D02*
X101369600Y-114117300D01*
X105436500Y-105308200D02*
X105655500Y-105089200D01*
X105436500Y-112653000D02*
X105436500Y-105308200D01*
X105434200Y-112655300D02*
X105436500Y-112653000D01*
X80591300Y-97914500D02*
X81415700Y-97090100D01*
X80591300Y-103660700D02*
X80591300Y-97914500D01*
X80784100Y-103853500D02*
X80591300Y-103660700D01*
X80784100Y-104711000D02*
X80784100Y-103853500D01*
X80514300Y-104980800D02*
X80784100Y-104711000D01*
X80514300Y-107627600D02*
X80514300Y-104980800D01*
X80907100Y-108020400D02*
X80514300Y-107627600D01*
X83579200Y-97321300D02*
X83579200Y-97322900D01*
%TO.N,/R4*%
X94968900Y-116136000D02*
X94650500Y-116454400D01*
X94968900Y-114735300D02*
X94968900Y-116136000D01*
X97682400Y-82195200D02*
X97610800Y-82266800D01*
X97682400Y-80453100D02*
X97682400Y-82195200D01*
X97284400Y-80055100D02*
X97682400Y-80453100D01*
X95271300Y-110576300D02*
X95396300Y-110701300D01*
X95271300Y-106648100D02*
X95271300Y-110576300D01*
X106227700Y-82349200D02*
X105816000Y-82760900D01*
X106227700Y-81089200D02*
X106227700Y-82349200D01*
X95213100Y-114491100D02*
X94968900Y-114735300D01*
X95213100Y-110884500D02*
X95213100Y-114491100D01*
X95396300Y-110701300D02*
X95213100Y-110884500D01*
X114015100Y-91537100D02*
X114015100Y-88489200D01*
X115034600Y-92556600D02*
X114015100Y-91537100D01*
X115034600Y-94086900D02*
X115034600Y-92556600D01*
X114015100Y-85267200D02*
X113926700Y-85178800D01*
X114015100Y-88489200D02*
X114015100Y-85267200D01*
X109896900Y-107531200D02*
X109896900Y-110554500D01*
X110151000Y-107277100D02*
X109896900Y-107531200D01*
X90691400Y-84001600D02*
X90691400Y-82298400D01*
X90030900Y-84662100D02*
X90691400Y-84001600D01*
X85627700Y-86669200D02*
X85627700Y-88346600D01*
X86627100Y-85669800D02*
X85627700Y-86669200D01*
X86627100Y-84195700D02*
X86627100Y-85669800D01*
X106517600Y-116636300D02*
X106042500Y-117111400D01*
X106517600Y-114081300D02*
X106517600Y-116636300D01*
X106517600Y-114081300D02*
X105514100Y-114081300D01*
X106517600Y-110077900D02*
X106517600Y-114081300D01*
X106557200Y-110038300D02*
X106517600Y-110077900D01*
X91068500Y-109414200D02*
X90859900Y-109205600D01*
X91068500Y-110408400D02*
X91068500Y-109414200D01*
X96893500Y-105318500D02*
X96893500Y-105449900D01*
X95977300Y-104402300D02*
X96893500Y-105318500D01*
X95977300Y-102414000D02*
X95977300Y-104402300D01*
X96438200Y-101953100D02*
X95977300Y-102414000D01*
X83855800Y-103742100D02*
X83855800Y-99092000D01*
X84456400Y-104342700D02*
X83855800Y-103742100D01*
X84456400Y-107829400D02*
X84456400Y-104342700D01*
X85275900Y-108648900D02*
X84456400Y-107829400D01*
X85275900Y-109853700D02*
X85275900Y-108648900D01*
X85131500Y-109998100D02*
X85275900Y-109853700D01*
%TO.N,/Minute5*%
X101201600Y-106555400D02*
X100752400Y-106106200D01*
X101201600Y-112839700D02*
X101201600Y-106555400D01*
X102244500Y-113174800D02*
X102042100Y-113174800D01*
X102975000Y-113905300D02*
X102244500Y-113174800D01*
X102975000Y-115133300D02*
X102975000Y-113905300D01*
X102973300Y-115135000D02*
X102975000Y-115133300D01*
X105112400Y-114641200D02*
X104824400Y-114929200D01*
X105112400Y-113392400D02*
X105112400Y-114641200D01*
X105227000Y-113277800D02*
X105112400Y-113392400D01*
%TO.N,/Minute4*%
X113052500Y-109262700D02*
X112362300Y-109952900D01*
X113052500Y-107884500D02*
X113052500Y-109262700D01*
X113124500Y-107812500D02*
X113052500Y-107884500D01*
X106712200Y-105423900D02*
X106712200Y-99767200D01*
X106790000Y-105501700D02*
X106712200Y-105423900D01*
X106790000Y-107879800D02*
X106790000Y-105501700D01*
X106491800Y-108178000D02*
X106790000Y-107879800D01*
%TO.N,/R1*%
X102195200Y-86287800D02*
X102195200Y-87112500D01*
X102489700Y-85993300D02*
X102195200Y-86287800D01*
X101662700Y-85525800D02*
X101776700Y-85525800D01*
X101662700Y-85519700D02*
X100829200Y-84686200D01*
X101662700Y-85525800D02*
X101662700Y-85519700D01*
X101464700Y-92535800D02*
X102546900Y-93618000D01*
X101464700Y-86509200D02*
X101464700Y-92535800D01*
X101661900Y-86312000D02*
X101464700Y-86509200D01*
X101661900Y-85526600D02*
X101661900Y-86312000D01*
X101662700Y-85525800D02*
X101661900Y-85526600D01*
X113722800Y-86339900D02*
X113576900Y-86194000D01*
X113722800Y-87173700D02*
X113722800Y-86339900D01*
X113606500Y-87290000D02*
X113722800Y-87173700D01*
X113606500Y-88965200D02*
X113606500Y-87290000D01*
X113693900Y-89052600D02*
X113606500Y-88965200D01*
X113693900Y-89552400D02*
X113693900Y-89052600D01*
X113535700Y-89710600D02*
X113693900Y-89552400D01*
X113535700Y-93775700D02*
X113535700Y-89710600D01*
X118468100Y-104839800D02*
X118242500Y-105065400D01*
X118468100Y-96120000D02*
X118468100Y-104839800D01*
X117711100Y-95363000D02*
X118468100Y-96120000D01*
X117711100Y-93122900D02*
X117711100Y-95363000D01*
X117717800Y-93116200D02*
X117711100Y-93122900D01*
X111491700Y-83599100D02*
X111491700Y-85627500D01*
X111470100Y-83577500D02*
X111491700Y-83599100D01*
X91470200Y-108052400D02*
X91229100Y-107811300D01*
X91470200Y-114207200D02*
X91470200Y-108052400D01*
X91064700Y-114612700D02*
X91470200Y-114207200D01*
X91064700Y-115606800D02*
X91064700Y-114612700D01*
X91281800Y-115823900D02*
X91064700Y-115606800D01*
X79980700Y-104375300D02*
X80250400Y-104645000D01*
X79980700Y-95941400D02*
X79980700Y-104375300D01*
X81135100Y-94787000D02*
X79980700Y-95941400D01*
X109101200Y-111092500D02*
X109088500Y-111105200D01*
X109101200Y-106126200D02*
X109101200Y-111092500D01*
X88491400Y-107359900D02*
X89004600Y-107873100D01*
X88491400Y-105026400D02*
X88491400Y-107359900D01*
X88638500Y-104879300D02*
X88491400Y-105026400D01*
%TO.N,/B4*%
X105163400Y-85006700D02*
X105163400Y-82675500D01*
X105219700Y-85063000D02*
X105163400Y-85006700D01*
X105219700Y-89978600D02*
X105196300Y-89978600D01*
X105219700Y-90940200D02*
X105219700Y-89978600D01*
X105560700Y-91281200D02*
X105219700Y-90940200D01*
X105219700Y-89978600D02*
X105219700Y-85063000D01*
X93908500Y-90598600D02*
X93980300Y-90598600D01*
X93908500Y-91495300D02*
X93908500Y-90598600D01*
X93142400Y-92261400D02*
X93908500Y-91495300D01*
X93142400Y-101552000D02*
X93142400Y-92261400D01*
X93908500Y-90598600D02*
X93908500Y-89391700D01*
X112593000Y-91535500D02*
X112894800Y-91233700D01*
X112593000Y-95975300D02*
X112593000Y-91535500D01*
X112775800Y-96158100D02*
X112593000Y-95975300D01*
X93518500Y-118151200D02*
X93366300Y-118303400D01*
X93518500Y-116283300D02*
X93518500Y-118151200D01*
X93518500Y-116283300D02*
X93951100Y-116283300D01*
X113390000Y-100641100D02*
X113581000Y-100832100D01*
X113390000Y-98469900D02*
X113390000Y-100641100D01*
X113500100Y-98359800D02*
X113390000Y-98469900D01*
X113500100Y-96780200D02*
X113500100Y-98359800D01*
X113395000Y-96675100D02*
X113500100Y-96780200D01*
X113638500Y-100832100D02*
X113581000Y-100832100D01*
X114573200Y-101766800D02*
X113638500Y-100832100D01*
X114573200Y-102099600D02*
X114573200Y-101766800D01*
X114422900Y-102249900D02*
X114573200Y-102099600D01*
X114422900Y-106926000D02*
X114422900Y-102249900D01*
X113962800Y-107386100D02*
X114422900Y-106926000D01*
X113962800Y-110434800D02*
X113962800Y-107386100D01*
X113667100Y-110730500D02*
X113962800Y-110434800D01*
X92724400Y-101970000D02*
X93142400Y-101552000D01*
X92724400Y-108353900D02*
X92724400Y-101970000D01*
X93317400Y-108946900D02*
X92724400Y-108353900D01*
X93317400Y-113602100D02*
X93317400Y-108946900D01*
X93108000Y-113811500D02*
X93317400Y-113602100D01*
X93108000Y-114810700D02*
X93108000Y-113811500D01*
X93518500Y-115221200D02*
X93108000Y-114810700D01*
X93518500Y-116283300D02*
X93518500Y-115221200D01*
X95486300Y-87011700D02*
X95486300Y-88726100D01*
X94934300Y-86459700D02*
X95486300Y-87011700D01*
X86359300Y-102398600D02*
X86359300Y-100814600D01*
X86201100Y-102556800D02*
X86359300Y-102398600D01*
X86201100Y-104635100D02*
X86201100Y-102556800D01*
X86502000Y-104936000D02*
X86201100Y-104635100D01*
X86502000Y-105268800D02*
X86502000Y-104936000D01*
X86390000Y-105380800D02*
X86502000Y-105268800D01*
X86390000Y-108380300D02*
X86390000Y-105380800D01*
X86283300Y-108487000D02*
X86390000Y-108380300D01*
X86283300Y-110131100D02*
X86283300Y-108487000D01*
X85821700Y-110592700D02*
X86283300Y-110131100D01*
%TO.N,/Minute3*%
X112479200Y-100326500D02*
X112283600Y-100522100D01*
X112479200Y-98651000D02*
X112479200Y-100326500D01*
X112061100Y-98232900D02*
X112479200Y-98651000D01*
%TD*%
%TA.AperFunction,Conductor*%
%TO.N,Net-(J1-VCC)*%
G36*
X98880585Y-97208023D02*
G01*
X98886961Y-97207865D01*
X98911722Y-97222920D01*
X98937862Y-97235426D01*
X98941213Y-97240851D01*
X98946662Y-97244164D01*
X98959351Y-97270213D01*
X98974582Y-97294869D01*
X98975812Y-97304005D01*
X98977260Y-97306977D01*
X98976769Y-97311115D01*
X98979000Y-97327675D01*
X98979000Y-104417000D01*
X98959315Y-104484039D01*
X98906511Y-104529794D01*
X98855000Y-104541000D01*
X98834882Y-104541000D01*
X98813589Y-104545235D01*
X98768591Y-104554186D01*
X98698999Y-104547958D01*
X98643822Y-104505094D01*
X98620578Y-104439204D01*
X98620400Y-104432568D01*
X98620400Y-97461929D01*
X98627425Y-97438004D01*
X98630358Y-97413242D01*
X98638027Y-97401897D01*
X98640085Y-97394890D01*
X98648694Y-97383085D01*
X98652490Y-97378476D01*
X98711051Y-97319916D01*
X98755347Y-97253621D01*
X98759294Y-97248831D01*
X98783273Y-97232562D01*
X98805510Y-97213979D01*
X98811837Y-97213184D01*
X98817113Y-97209605D01*
X98846080Y-97208883D01*
X98874834Y-97205272D01*
X98880585Y-97208023D01*
G37*
%TD.AperFunction*%
%TA.AperFunction,Conductor*%
G36*
X102649139Y-94388185D02*
G01*
X102694894Y-94440989D01*
X102704838Y-94510147D01*
X102675813Y-94573703D01*
X102617035Y-94611477D01*
X102613891Y-94611929D01*
X102705826Y-95991505D01*
X102690642Y-96059705D01*
X102640997Y-96108870D01*
X102629553Y-96114311D01*
X102494108Y-96170414D01*
X102494098Y-96170419D01*
X102371184Y-96252548D01*
X102371180Y-96252551D01*
X102266651Y-96357080D01*
X102266646Y-96357086D01*
X102259989Y-96367050D01*
X102206377Y-96411854D01*
X102137051Y-96420561D01*
X102074024Y-96390406D01*
X102069207Y-96385839D01*
X101978519Y-96295151D01*
X101978515Y-96295148D01*
X101855601Y-96213019D01*
X101855588Y-96213012D01*
X101719017Y-96156443D01*
X101719007Y-96156440D01*
X101574020Y-96127600D01*
X101574018Y-96127600D01*
X101426182Y-96127600D01*
X101426180Y-96127600D01*
X101281192Y-96156440D01*
X101281182Y-96156443D01*
X101144611Y-96213012D01*
X101144598Y-96213019D01*
X101021684Y-96295148D01*
X101021680Y-96295151D01*
X100917151Y-96399680D01*
X100917148Y-96399684D01*
X100835019Y-96522598D01*
X100835012Y-96522611D01*
X100778443Y-96659182D01*
X100778440Y-96659192D01*
X100749600Y-96804179D01*
X100749600Y-96804182D01*
X100749600Y-96952018D01*
X100749600Y-96952020D01*
X100749599Y-96952020D01*
X100778440Y-97097007D01*
X100778442Y-97097013D01*
X100792361Y-97130616D01*
X100801800Y-97178069D01*
X100801800Y-102534834D01*
X100796696Y-102552213D01*
X100796612Y-102570325D01*
X100787057Y-102585039D01*
X100782115Y-102601873D01*
X100768427Y-102613733D01*
X100758563Y-102628926D01*
X100742568Y-102636139D01*
X100729311Y-102647628D01*
X100711383Y-102650205D01*
X100694872Y-102657653D01*
X100665533Y-102656798D01*
X100660153Y-102657572D01*
X100659579Y-102657488D01*
X100656576Y-102657041D01*
X100610618Y-102647900D01*
X100595039Y-102647900D01*
X100585979Y-102646554D01*
X100562244Y-102635580D01*
X100537161Y-102628215D01*
X100531043Y-102621154D01*
X100522559Y-102617232D01*
X100508524Y-102595166D01*
X100491406Y-102575411D01*
X100489039Y-102564531D01*
X100485061Y-102558277D01*
X100485116Y-102546498D01*
X100480200Y-102523900D01*
X100480200Y-96793826D01*
X100480200Y-96793825D01*
X100467508Y-96746459D01*
X100465825Y-96740177D01*
X100461600Y-96708084D01*
X100461600Y-96573779D01*
X100432759Y-96428792D01*
X100432758Y-96428791D01*
X100432758Y-96428787D01*
X100416860Y-96390406D01*
X100376187Y-96292211D01*
X100376180Y-96292198D01*
X100294051Y-96169284D01*
X100294048Y-96169280D01*
X100189519Y-96064751D01*
X100189515Y-96064748D01*
X100066601Y-95982619D01*
X100066588Y-95982612D01*
X99930017Y-95926043D01*
X99930007Y-95926040D01*
X99864708Y-95913051D01*
X99802797Y-95880665D01*
X99768223Y-95819949D01*
X99764900Y-95791434D01*
X99764900Y-95346829D01*
X99784585Y-95279790D01*
X99793986Y-95268136D01*
X99793486Y-95267726D01*
X99797346Y-95263020D01*
X99797351Y-95263016D01*
X99879484Y-95140095D01*
X99887834Y-95119936D01*
X99923228Y-95034488D01*
X99967069Y-94980084D01*
X99969088Y-94978857D01*
X99969030Y-94978769D01*
X100063398Y-94915714D01*
X100097016Y-94893251D01*
X100201551Y-94788716D01*
X100283684Y-94665795D01*
X100319267Y-94579891D01*
X100320321Y-94577347D01*
X100364162Y-94522944D01*
X100430457Y-94500879D01*
X100434882Y-94500800D01*
X100519420Y-94500800D01*
X100616962Y-94481396D01*
X100664413Y-94471958D01*
X100687046Y-94462582D01*
X100756515Y-94455113D01*
X100818994Y-94486387D01*
X100854648Y-94546475D01*
X100858500Y-94577143D01*
X100858500Y-94661818D01*
X100858500Y-94661820D01*
X100858499Y-94661820D01*
X100887340Y-94806807D01*
X100887343Y-94806817D01*
X100943912Y-94943388D01*
X100943919Y-94943401D01*
X101026048Y-95066315D01*
X101026051Y-95066319D01*
X101130580Y-95170848D01*
X101130584Y-95170851D01*
X101253498Y-95252980D01*
X101253511Y-95252987D01*
X101354909Y-95294987D01*
X101390087Y-95309558D01*
X101390091Y-95309558D01*
X101390092Y-95309559D01*
X101535079Y-95338400D01*
X101535082Y-95338400D01*
X101682920Y-95338400D01*
X101780462Y-95318996D01*
X101827913Y-95309558D01*
X101964495Y-95252984D01*
X102087416Y-95170851D01*
X102191951Y-95066316D01*
X102274084Y-94943395D01*
X102330658Y-94806813D01*
X102341148Y-94754077D01*
X102359500Y-94661820D01*
X102359500Y-94513979D01*
X102358903Y-94507917D01*
X102360838Y-94507726D01*
X102366273Y-94447084D01*
X102409144Y-94391913D01*
X102475036Y-94368677D01*
X102481657Y-94368500D01*
X102582100Y-94368500D01*
X102649139Y-94388185D01*
G37*
%TD.AperFunction*%
%TA.AperFunction,Conductor*%
G36*
X92533066Y-94972790D02*
G01*
X92579757Y-95024769D01*
X92591900Y-95078286D01*
X92591900Y-95165903D01*
X92572215Y-95232942D01*
X92519411Y-95278697D01*
X92492094Y-95287520D01*
X92454789Y-95294941D01*
X92454784Y-95294942D01*
X92318211Y-95351512D01*
X92318198Y-95351519D01*
X92195284Y-95433648D01*
X92195280Y-95433651D01*
X92090751Y-95538180D01*
X92090748Y-95538184D01*
X92008619Y-95661098D01*
X92008612Y-95661111D01*
X91952043Y-95797682D01*
X91952040Y-95797692D01*
X91923200Y-95942679D01*
X91923200Y-95942682D01*
X91923200Y-96090518D01*
X91923200Y-96090520D01*
X91923199Y-96090520D01*
X91952040Y-96235507D01*
X91952043Y-96235517D01*
X92008612Y-96372088D01*
X92008619Y-96372101D01*
X92090748Y-96495015D01*
X92090751Y-96495019D01*
X92195280Y-96599548D01*
X92195284Y-96599551D01*
X92318198Y-96681680D01*
X92318211Y-96681687D01*
X92418482Y-96723220D01*
X92454787Y-96738258D01*
X92492092Y-96745678D01*
X92554001Y-96778061D01*
X92588576Y-96838776D01*
X92591900Y-96867295D01*
X92591900Y-100396294D01*
X92572215Y-100463333D01*
X92519411Y-100509088D01*
X92450253Y-100519032D01*
X92399010Y-100499396D01*
X92395906Y-100497322D01*
X92395888Y-100497312D01*
X92259317Y-100440743D01*
X92259307Y-100440740D01*
X92114320Y-100411900D01*
X92114318Y-100411900D01*
X91966482Y-100411900D01*
X91966480Y-100411900D01*
X91821492Y-100440740D01*
X91821482Y-100440743D01*
X91684911Y-100497312D01*
X91684898Y-100497319D01*
X91561984Y-100579448D01*
X91561980Y-100579451D01*
X91457447Y-100683984D01*
X91456472Y-100685173D01*
X91455804Y-100685627D01*
X91453141Y-100688291D01*
X91452635Y-100687785D01*
X91398725Y-100724506D01*
X91328881Y-100726375D01*
X91269113Y-100690186D01*
X91239004Y-100630697D01*
X91228943Y-100580120D01*
X91228658Y-100578687D01*
X91217580Y-100551942D01*
X91172087Y-100442111D01*
X91172080Y-100442098D01*
X91089951Y-100319184D01*
X91089948Y-100319180D01*
X90985419Y-100214651D01*
X90985415Y-100214648D01*
X90862501Y-100132519D01*
X90862488Y-100132512D01*
X90720286Y-100073611D01*
X90721346Y-100071051D01*
X90672864Y-100039190D01*
X90644489Y-99975342D01*
X90643400Y-99958947D01*
X90643400Y-96766796D01*
X90663085Y-96699757D01*
X90715889Y-96654002D01*
X90743209Y-96645179D01*
X90777074Y-96638442D01*
X90872513Y-96619458D01*
X91009095Y-96562884D01*
X91132016Y-96480751D01*
X91236551Y-96376216D01*
X91318684Y-96253295D01*
X91318994Y-96252548D01*
X91339973Y-96201898D01*
X91375258Y-96116713D01*
X91401932Y-95982619D01*
X91404100Y-95971720D01*
X91404100Y-95823879D01*
X91375259Y-95678892D01*
X91375258Y-95678891D01*
X91375258Y-95678887D01*
X91367895Y-95661111D01*
X91353901Y-95627325D01*
X91346432Y-95557856D01*
X91365357Y-95510986D01*
X91394084Y-95467995D01*
X91450658Y-95331413D01*
X91463245Y-95268136D01*
X91479500Y-95186420D01*
X91480097Y-95180358D01*
X91481405Y-95180486D01*
X91499185Y-95119936D01*
X91551989Y-95074181D01*
X91621147Y-95064237D01*
X91650947Y-95072412D01*
X91720587Y-95101258D01*
X91720591Y-95101258D01*
X91720592Y-95101259D01*
X91865579Y-95130100D01*
X91865582Y-95130100D01*
X92013420Y-95130100D01*
X92110962Y-95110696D01*
X92158413Y-95101258D01*
X92294995Y-95044684D01*
X92399009Y-94975183D01*
X92465686Y-94954306D01*
X92533066Y-94972790D01*
G37*
%TD.AperFunction*%
%TD*%
M02*
