%TF.GenerationSoftware,KiCad,Pcbnew,9.0.2*%
%TF.CreationDate,2025-11-21T20:47:09-08:00*%
%TF.ProjectId,LED Watch,4c454420-5761-4746-9368-2e6b69636164,rev?*%
%TF.SameCoordinates,Original*%
%TF.FileFunction,Copper,L1,Top*%
%TF.FilePolarity,Positive*%
%FSLAX46Y46*%
G04 Gerber Fmt 4.6, Leading zero omitted, Abs format (unit mm)*
G04 Created by KiCad (PCBNEW 9.0.2) date 2025-11-21 20:47:09*
%MOMM*%
%LPD*%
G01*
G04 APERTURE LIST*
G04 Aperture macros list*
%AMRoundRect*
0 Rectangle with rounded corners*
0 $1 Rounding radius*
0 $2 $3 $4 $5 $6 $7 $8 $9 X,Y pos of 4 corners*
0 Add a 4 corners polygon primitive as box body*
4,1,4,$2,$3,$4,$5,$6,$7,$8,$9,$2,$3,0*
0 Add four circle primitives for the rounded corners*
1,1,$1+$1,$2,$3*
1,1,$1+$1,$4,$5*
1,1,$1+$1,$6,$7*
1,1,$1+$1,$8,$9*
0 Add four rect primitives between the rounded corners*
20,1,$1+$1,$2,$3,$4,$5,0*
20,1,$1+$1,$4,$5,$6,$7,0*
20,1,$1+$1,$6,$7,$8,$9,0*
20,1,$1+$1,$8,$9,$2,$3,0*%
G04 Aperture macros list end*
%TA.AperFunction,SMDPad,CuDef*%
%ADD10R,0.300000X0.300000*%
%TD*%
%TA.AperFunction,SMDPad,CuDef*%
%ADD11R,1.000000X1.800000*%
%TD*%
%TA.AperFunction,SMDPad,CuDef*%
%ADD12RoundRect,0.150000X-0.625000X0.150000X-0.625000X-0.150000X0.625000X-0.150000X0.625000X0.150000X0*%
%TD*%
%TA.AperFunction,SMDPad,CuDef*%
%ADD13RoundRect,0.250000X-0.650000X0.350000X-0.650000X-0.350000X0.650000X-0.350000X0.650000X0.350000X0*%
%TD*%
%TA.AperFunction,SMDPad,CuDef*%
%ADD14R,1.250000X0.600000*%
%TD*%
%TA.AperFunction,SMDPad,CuDef*%
%ADD15R,1.000000X0.500000*%
%TD*%
%TA.AperFunction,SMDPad,CuDef*%
%ADD16RoundRect,0.150000X0.625000X-0.150000X0.625000X0.150000X-0.625000X0.150000X-0.625000X-0.150000X0*%
%TD*%
%TA.AperFunction,SMDPad,CuDef*%
%ADD17RoundRect,0.250000X0.650000X-0.350000X0.650000X0.350000X-0.650000X0.350000X-0.650000X-0.350000X0*%
%TD*%
%TA.AperFunction,SMDPad,CuDef*%
%ADD18R,0.250000X0.675000*%
%TD*%
%TA.AperFunction,SMDPad,CuDef*%
%ADD19R,0.675000X0.250000*%
%TD*%
%TA.AperFunction,SMDPad,CuDef*%
%ADD20RoundRect,0.062500X-0.350000X-0.062500X0.350000X-0.062500X0.350000X0.062500X-0.350000X0.062500X0*%
%TD*%
%TA.AperFunction,SMDPad,CuDef*%
%ADD21RoundRect,0.062500X-0.062500X-0.350000X0.062500X-0.350000X0.062500X0.350000X-0.062500X0.350000X0*%
%TD*%
%TA.AperFunction,HeatsinkPad*%
%ADD22R,5.400000X5.400000*%
%TD*%
%TA.AperFunction,ViaPad*%
%ADD23C,0.500000*%
%TD*%
%TA.AperFunction,Conductor*%
%ADD24C,0.100000*%
%TD*%
G04 APERTURE END LIST*
D10*
%TO.P,U70,1,1*%
%TO.N,/Minute10*%
X93038800Y-84676500D03*
%TO.P,U70,2,2*%
%TO.N,/B3*%
X93038800Y-85176500D03*
%TO.P,U70,3,3*%
%TO.N,/G3*%
X93538800Y-85176500D03*
%TO.P,U70,4,4*%
%TO.N,/R3*%
X93538800Y-84676500D03*
%TD*%
%TO.P,U97,1,1*%
%TO.N,/Second4*%
X112463500Y-113869800D03*
%TO.P,U97,2,2*%
%TO.N,/B6*%
X112463500Y-114369800D03*
%TO.P,U97,3,3*%
%TO.N,/G6*%
X112963500Y-114369800D03*
%TO.P,U97,4,4*%
%TO.N,/R6*%
X112963500Y-113869800D03*
%TD*%
%TO.P,U53,1,1*%
%TO.N,/Minute7*%
X86401200Y-109448500D03*
%TO.P,U53,2,2*%
%TO.N,/B4*%
X86401200Y-109948500D03*
%TO.P,U53,3,3*%
%TO.N,/G4*%
X86901200Y-109948500D03*
%TO.P,U53,4,4*%
%TO.N,/R4*%
X86901200Y-109448500D03*
%TD*%
%TO.P,U27,1,1*%
%TO.N,/Minute3*%
X115889400Y-96319500D03*
%TO.P,U27,2,2*%
%TO.N,/B2*%
X115889400Y-96819500D03*
%TO.P,U27,3,3*%
%TO.N,/G2*%
X116389400Y-96819500D03*
%TO.P,U27,4,4*%
%TO.N,/R2*%
X116389400Y-96319500D03*
%TD*%
%TO.P,U68,1,1*%
%TO.N,/Minute10*%
X90051500Y-86401200D03*
%TO.P,U68,2,2*%
%TO.N,/B1*%
X90051500Y-86901200D03*
%TO.P,U68,3,3*%
%TO.N,/G1*%
X90551500Y-86901200D03*
%TO.P,U68,4,4*%
%TO.N,/R1*%
X90551500Y-86401200D03*
%TD*%
%TO.P,U131,1,1*%
%TO.N,/Second10*%
X93878700Y-81679900D03*
%TO.P,U131,2,2*%
%TO.N,/B4*%
X93878700Y-82179900D03*
%TO.P,U131,3,3*%
%TO.N,/G4*%
X94378700Y-82179900D03*
%TO.P,U131,4,4*%
%TO.N,/R4*%
X94378700Y-81679900D03*
%TD*%
%TO.P,U118,1,1*%
%TO.N,/Second8*%
X80854100Y-101736000D03*
%TO.P,U118,2,2*%
%TO.N,/B3*%
X80854100Y-102236000D03*
%TO.P,U118,3,3*%
%TO.N,/G3*%
X81354100Y-102236000D03*
%TO.P,U118,4,4*%
%TO.N,/R3*%
X81354100Y-101736000D03*
%TD*%
%TO.P,U49,1,1*%
%TO.N,/Minute6*%
X91500000Y-114039400D03*
%TO.P,U49,2,2*%
%TO.N,/B6*%
X91500000Y-114539400D03*
%TO.P,U49,3,3*%
%TO.N,/G6*%
X92000000Y-114539400D03*
%TO.P,U49,4,4*%
%TO.N,/R6*%
X92000000Y-114039400D03*
%TD*%
%TO.P,U48,1,1*%
%TO.N,/Minute6*%
X93038800Y-114823500D03*
%TO.P,U48,2,2*%
%TO.N,/B5*%
X93038800Y-115323500D03*
%TO.P,U48,3,3*%
%TO.N,/G5*%
X93538800Y-115323500D03*
%TO.P,U48,4,4*%
%TO.N,/R5*%
X93538800Y-114823500D03*
%TD*%
D11*
%TO.P,Y1,1,1*%
%TO.N,Net-(U135-PD6)*%
X98750000Y-108000000D03*
%TO.P,Y1,2,2*%
%TO.N,Net-(U135-PD7)*%
X101250000Y-108000000D03*
%TD*%
D10*
%TO.P,U92,1,1*%
%TO.N,/Second4*%
X117820100Y-105621300D03*
%TO.P,U92,2,2*%
%TO.N,/B1*%
X117820100Y-106121300D03*
%TO.P,U92,3,3*%
%TO.N,/G1*%
X118320100Y-106121300D03*
%TO.P,U92,4,4*%
%TO.N,/R1*%
X118320100Y-105621300D03*
%TD*%
%TO.P,U64,1,1*%
%TO.N,/Minute9*%
X85460600Y-91500000D03*
%TO.P,U64,2,2*%
%TO.N,/B3*%
X85460600Y-92000000D03*
%TO.P,U64,3,3*%
%TO.N,/G3*%
X85960600Y-92000000D03*
%TO.P,U64,4,4*%
%TO.N,/R3*%
X85960600Y-91500000D03*
%TD*%
%TO.P,U25,1,1*%
%TO.N,/Minute2*%
X114823500Y-93038800D03*
%TO.P,U25,2,2*%
%TO.N,/B6*%
X114823500Y-93538800D03*
%TO.P,U25,3,3*%
%TO.N,/G6*%
X115323500Y-93538800D03*
%TO.P,U25,4,4*%
%TO.N,/R6*%
X115323500Y-93038800D03*
%TD*%
%TO.P,U19,1,1*%
%TO.N,/Minute1*%
X108000000Y-85460600D03*
%TO.P,U19,2,2*%
%TO.N,/B6*%
X108000000Y-85960600D03*
%TO.P,U19,3,3*%
%TO.N,/G6*%
X108500000Y-85960600D03*
%TO.P,U19,4,4*%
%TO.N,/R6*%
X108500000Y-85460600D03*
%TD*%
%TO.P,U101,1,1*%
%TO.N,/Second5*%
X105621300Y-117820100D03*
%TO.P,U101,2,2*%
%TO.N,/B4*%
X105621300Y-118320100D03*
%TO.P,U101,3,3*%
%TO.N,/G4*%
X106121300Y-118320100D03*
%TO.P,U101,4,4*%
%TO.N,/R4*%
X106121300Y-117820100D03*
%TD*%
%TO.P,U22,1,1*%
%TO.N,/Minute2*%
X112011900Y-88709300D03*
%TO.P,U22,2,2*%
%TO.N,/B3*%
X112011900Y-89209300D03*
%TO.P,U22,3,3*%
%TO.N,/G3*%
X112511900Y-89209300D03*
%TO.P,U22,4,4*%
%TO.N,/R3*%
X112511900Y-88709300D03*
%TD*%
D12*
%TO.P,J2,1,Pin_1*%
%TO.N,Net-(J1-VCC)*%
X92500000Y-99500000D03*
%TO.P,J2,2,Pin_2*%
%TO.N,Net-(J1-GND)*%
X92500000Y-100500000D03*
D13*
%TO.P,J2,MP*%
%TO.N,N/C*%
X88625000Y-98200000D03*
X88625000Y-101800000D03*
%TD*%
D10*
%TO.P,U2,1,1*%
%TO.N,/Hour1*%
X99750000Y-85750000D03*
%TO.P,U2,2,2*%
%TO.N,/B1*%
X99750000Y-86250000D03*
%TO.P,U2,3,3*%
%TO.N,/G1*%
X100250000Y-86250000D03*
%TO.P,U2,4,4*%
%TO.N,/R1*%
X100250000Y-85750000D03*
%TD*%
%TO.P,U104,1,1*%
%TO.N,/Second6*%
X99800000Y-118100000D03*
%TO.P,U104,2,2*%
%TO.N,/B1*%
X99800000Y-118600000D03*
%TO.P,U104,3,3*%
%TO.N,/G1*%
X100300000Y-118600000D03*
%TO.P,U104,4,4*%
%TO.N,/R1*%
X100300000Y-118100000D03*
%TD*%
%TO.P,U96,1,1*%
%TO.N,/Second4*%
X113869800Y-112463500D03*
%TO.P,U96,2,2*%
%TO.N,/B5*%
X113869800Y-112963500D03*
%TO.P,U96,3,3*%
%TO.N,/G5*%
X114369800Y-112963500D03*
%TO.P,U96,4,4*%
%TO.N,/R5*%
X114369800Y-112463500D03*
%TD*%
%TO.P,U42,1,1*%
%TO.N,/Minute5*%
X103230500Y-115239400D03*
%TO.P,U42,2,2*%
%TO.N,/B5*%
X103230500Y-115739400D03*
%TO.P,U42,3,3*%
%TO.N,/G5*%
X103730500Y-115739400D03*
%TO.P,U42,4,4*%
%TO.N,/R5*%
X103730500Y-115239400D03*
%TD*%
%TO.P,U59,1,1*%
%TO.N,/Minute8*%
X83250000Y-99750000D03*
%TO.P,U59,2,2*%
%TO.N,/B4*%
X83250000Y-100250000D03*
%TO.P,U59,3,3*%
%TO.N,/G4*%
X83750000Y-100250000D03*
%TO.P,U59,4,4*%
%TO.N,/R4*%
X83750000Y-99750000D03*
%TD*%
%TO.P,U46,1,1*%
%TO.N,/Minute6*%
X96319500Y-115889400D03*
%TO.P,U46,2,2*%
%TO.N,/B3*%
X96319500Y-116389400D03*
%TO.P,U46,3,3*%
%TO.N,/G3*%
X96819500Y-116389400D03*
%TO.P,U46,4,4*%
%TO.N,/R3*%
X96819500Y-115889400D03*
%TD*%
%TO.P,U81,1,1*%
%TO.N,/Second2*%
X112463500Y-85630200D03*
%TO.P,U81,2,2*%
%TO.N,/B2*%
X112463500Y-86130200D03*
%TO.P,U81,3,3*%
%TO.N,/G2*%
X112963500Y-86130200D03*
%TO.P,U81,4,4*%
%TO.N,/R2*%
X112963500Y-85630200D03*
%TD*%
%TO.P,U87,1,1*%
%TO.N,/Second3*%
X118334800Y-95799700D03*
%TO.P,U87,2,2*%
%TO.N,/B2*%
X118334800Y-96299700D03*
%TO.P,U87,3,3*%
%TO.N,/G2*%
X118834800Y-96299700D03*
%TO.P,U87,4,4*%
%TO.N,/R2*%
X118834800Y-95799700D03*
%TD*%
%TO.P,U55,1,1*%
%TO.N,/Minute7*%
X84676500Y-106461200D03*
%TO.P,U55,2,2*%
%TO.N,/B6*%
X84676500Y-106961200D03*
%TO.P,U55,3,3*%
%TO.N,/G6*%
X85176500Y-106961200D03*
%TO.P,U55,4,4*%
%TO.N,/R6*%
X85176500Y-106461200D03*
%TD*%
%TO.P,U72,1,1*%
%TO.N,/Minute10*%
X96319500Y-83610600D03*
%TO.P,U72,2,2*%
%TO.N,/B5*%
X96319500Y-84110600D03*
%TO.P,U72,3,3*%
%TO.N,/G5*%
X96819500Y-84110600D03*
%TO.P,U72,4,4*%
%TO.N,/R5*%
X96819500Y-83610600D03*
%TD*%
%TO.P,U58,1,1*%
%TO.N,/Minute8*%
X83340400Y-101474700D03*
%TO.P,U58,2,2*%
%TO.N,/B3*%
X83340400Y-101974700D03*
%TO.P,U58,3,3*%
%TO.N,/G3*%
X83840400Y-101974700D03*
%TO.P,U58,4,4*%
%TO.N,/R3*%
X83840400Y-101474700D03*
%TD*%
%TO.P,U3,1,1*%
%TO.N,/Hour1*%
X106750000Y-87625600D03*
%TO.P,U3,2,2*%
%TO.N,/B2*%
X106750000Y-88125600D03*
%TO.P,U3,3,3*%
%TO.N,/G2*%
X107250000Y-88125600D03*
%TO.P,U3,4,4*%
%TO.N,/R2*%
X107250000Y-87625600D03*
%TD*%
%TO.P,U41,1,1*%
%TO.N,/Minute5*%
X104848800Y-115442400D03*
%TO.P,U41,2,2*%
%TO.N,/B4*%
X104848800Y-115942400D03*
%TO.P,U41,3,3*%
%TO.N,/G4*%
X105348800Y-115942400D03*
%TO.P,U41,4,4*%
%TO.N,/R4*%
X105348800Y-115442400D03*
%TD*%
%TO.P,U120,1,1*%
%TO.N,/Second8*%
X80854100Y-97764000D03*
%TO.P,U120,2,2*%
%TO.N,/B5*%
X80854100Y-98264000D03*
%TO.P,U120,3,3*%
%TO.N,/G5*%
X81354100Y-98264000D03*
%TO.P,U120,4,4*%
%TO.N,/R5*%
X81354100Y-97764000D03*
%TD*%
%TO.P,U108,1,1*%
%TO.N,/Second6*%
X92022000Y-117107400D03*
%TO.P,U108,2,2*%
%TO.N,/B5*%
X92022000Y-117607400D03*
%TO.P,U108,3,3*%
%TO.N,/G5*%
X92522000Y-117607400D03*
%TO.P,U108,4,4*%
%TO.N,/R5*%
X92522000Y-117107400D03*
%TD*%
%TO.P,U90,1,1*%
%TO.N,/Second3*%
X118645900Y-101736000D03*
%TO.P,U90,2,2*%
%TO.N,/B5*%
X118645900Y-102236000D03*
%TO.P,U90,3,3*%
%TO.N,/G5*%
X119145900Y-102236000D03*
%TO.P,U90,4,4*%
%TO.N,/R5*%
X119145900Y-101736000D03*
%TD*%
%TO.P,U77,1,1*%
%TO.N,/Second1*%
X105621300Y-81679900D03*
%TO.P,U77,2,2*%
%TO.N,/B4*%
X105621300Y-82179900D03*
%TO.P,U77,3,3*%
%TO.N,/G4*%
X106121300Y-82179900D03*
%TO.P,U77,4,4*%
%TO.N,/R4*%
X106121300Y-81679900D03*
%TD*%
%TO.P,U73,1,1*%
%TO.N,/Minute10*%
X98025300Y-83340400D03*
%TO.P,U73,2,2*%
%TO.N,/B6*%
X98025300Y-83840400D03*
%TO.P,U73,3,3*%
%TO.N,/G6*%
X98525300Y-83840400D03*
%TO.P,U73,4,4*%
%TO.N,/R6*%
X98525300Y-83340400D03*
%TD*%
%TO.P,U130,1,1*%
%TO.N,/Second10*%
X92022000Y-82392600D03*
%TO.P,U130,2,2*%
%TO.N,/B3*%
X92022000Y-82892600D03*
%TO.P,U130,3,3*%
%TO.N,/G3*%
X92522000Y-82892600D03*
%TO.P,U130,4,4*%
%TO.N,/R3*%
X92522000Y-82392600D03*
%TD*%
%TO.P,U83,1,1*%
%TO.N,/Second2*%
X115121300Y-88582100D03*
%TO.P,U83,2,2*%
%TO.N,/B4*%
X115121300Y-89082100D03*
%TO.P,U83,3,3*%
%TO.N,/G4*%
X115621300Y-89082100D03*
%TO.P,U83,4,4*%
%TO.N,/R4*%
X115621300Y-88582100D03*
%TD*%
%TO.P,U89,1,1*%
%TO.N,/Second3*%
X118750000Y-99750000D03*
%TO.P,U89,2,2*%
%TO.N,/B4*%
X118750000Y-100250000D03*
%TO.P,U89,3,3*%
%TO.N,/G4*%
X119250000Y-100250000D03*
%TO.P,U89,4,4*%
%TO.N,/R4*%
X119250000Y-99750000D03*
%TD*%
%TO.P,U37,1,1*%
%TO.N,/Minute4*%
X110790700Y-112011900D03*
%TO.P,U37,2,2*%
%TO.N,/B6*%
X110790700Y-112511900D03*
%TO.P,U37,3,3*%
%TO.N,/G6*%
X111290700Y-112511900D03*
%TO.P,U37,4,4*%
%TO.N,/R6*%
X111290700Y-112011900D03*
%TD*%
%TO.P,U35,1,1*%
%TO.N,/Minute4*%
X113098800Y-109448500D03*
%TO.P,U35,2,2*%
%TO.N,/B4*%
X113098800Y-109948500D03*
%TO.P,U35,3,3*%
%TO.N,/G4*%
X113598800Y-109948500D03*
%TO.P,U35,4,4*%
%TO.N,/R4*%
X113598800Y-109448500D03*
%TD*%
%TO.P,U117,1,1*%
%TO.N,/Second8*%
X81165200Y-103700300D03*
%TO.P,U117,2,2*%
%TO.N,/B2*%
X81165200Y-104200300D03*
%TO.P,U117,3,3*%
%TO.N,/G2*%
X81665200Y-104200300D03*
%TO.P,U117,4,4*%
%TO.N,/R2*%
X81665200Y-103700300D03*
%TD*%
%TO.P,U9,1,1*%
%TO.N,/Hour2*%
X92750000Y-111874400D03*
%TO.P,U9,2,2*%
%TO.N,/B2*%
X92750000Y-112374400D03*
%TO.P,U9,3,3*%
%TO.N,/G2*%
X93250000Y-112374400D03*
%TO.P,U9,4,4*%
%TO.N,/R2*%
X93250000Y-111874400D03*
%TD*%
%TO.P,U127,1,1*%
%TO.N,/Second9*%
X87036500Y-85630200D03*
%TO.P,U127,2,2*%
%TO.N,/B6*%
X87036500Y-86130200D03*
%TO.P,U127,3,3*%
%TO.N,/G6*%
X87536500Y-86130200D03*
%TO.P,U127,4,4*%
%TO.N,/R6*%
X87536500Y-85630200D03*
%TD*%
%TO.P,U15,1,1*%
%TO.N,/Minute1*%
X101474700Y-83340400D03*
%TO.P,U15,2,2*%
%TO.N,/B2*%
X101474700Y-83840400D03*
%TO.P,U15,3,3*%
%TO.N,/G2*%
X101974700Y-83840400D03*
%TO.P,U15,4,4*%
%TO.N,/R2*%
X101974700Y-83340400D03*
%TD*%
%TO.P,U18,1,1*%
%TO.N,/Minute1*%
X106461200Y-84676500D03*
%TO.P,U18,2,2*%
%TO.N,/B5*%
X106461200Y-85176500D03*
%TO.P,U18,3,3*%
%TO.N,/G5*%
X106961200Y-85176500D03*
%TO.P,U18,4,4*%
%TO.N,/R5*%
X106961200Y-84676500D03*
%TD*%
%TO.P,U24,1,1*%
%TO.N,/Minute2*%
X114039400Y-91500000D03*
%TO.P,U24,2,2*%
%TO.N,/B5*%
X114039400Y-92000000D03*
%TO.P,U24,3,3*%
%TO.N,/G5*%
X114539400Y-92000000D03*
%TO.P,U24,4,4*%
%TO.N,/R5*%
X114539400Y-91500000D03*
%TD*%
%TO.P,U21,1,1*%
%TO.N,/Minute2*%
X110790700Y-87488100D03*
%TO.P,U21,2,2*%
%TO.N,/B2*%
X110790700Y-87988100D03*
%TO.P,U21,3,3*%
%TO.N,/G2*%
X111290700Y-87988100D03*
%TO.P,U21,4,4*%
%TO.N,/R2*%
X111290700Y-87488100D03*
%TD*%
D14*
%TO.P,SW2,1,1*%
%TO.N,Net-(U135-PF2)*%
X104375000Y-108000000D03*
%TO.P,SW2,2,2*%
%TO.N,Net-(U135-PF3)*%
X107625000Y-108000000D03*
%TO.P,SW2,3,3*%
%TO.N,unconnected-(SW2-Pad3)*%
X104375000Y-110000000D03*
%TO.P,SW2,4,4*%
%TO.N,unconnected-(SW2-Pad4)*%
X107625000Y-110000000D03*
D15*
%TO.P,SW2,SH1*%
%TO.N,N/C*%
X106000000Y-107350000D03*
%TO.P,SW2,SH2*%
X106000000Y-110650000D03*
%TD*%
D10*
%TO.P,U133,1,1*%
%TO.N,/Second10*%
X97764000Y-80854100D03*
%TO.P,U133,2,2*%
%TO.N,/B6*%
X97764000Y-81354100D03*
%TO.P,U133,3,3*%
%TO.N,/G6*%
X98264000Y-81354100D03*
%TO.P,U133,4,4*%
%TO.N,/R6*%
X98264000Y-80854100D03*
%TD*%
%TO.P,U44,1,1*%
%TO.N,/Minute6*%
X99800000Y-115600000D03*
%TO.P,U44,2,2*%
%TO.N,/B1*%
X99800000Y-116100000D03*
%TO.P,U44,3,3*%
%TO.N,/G1*%
X100300000Y-116100000D03*
%TO.P,U44,4,4*%
%TO.N,/R1*%
X100300000Y-115600000D03*
%TD*%
%TO.P,U125,1,1*%
%TO.N,/Second9*%
X84378700Y-88582100D03*
%TO.P,U125,2,2*%
%TO.N,/B4*%
X84378700Y-89082100D03*
%TO.P,U125,3,3*%
%TO.N,/G4*%
X84878700Y-89082100D03*
%TO.P,U125,4,4*%
%TO.N,/R4*%
X84878700Y-88582100D03*
%TD*%
%TO.P,U39,1,1*%
%TO.N,/Minute5*%
X108000000Y-114039400D03*
%TO.P,U39,2,2*%
%TO.N,/B2*%
X108000000Y-114539400D03*
%TO.P,U39,3,3*%
%TO.N,/G2*%
X108500000Y-114539400D03*
%TO.P,U39,4,4*%
%TO.N,/R2*%
X108500000Y-114039400D03*
%TD*%
%TO.P,U4,1,1*%
%TO.N,/Hour1*%
X111874400Y-92750000D03*
%TO.P,U4,2,2*%
%TO.N,/B3*%
X111874400Y-93250000D03*
%TO.P,U4,3,3*%
%TO.N,/G3*%
X112374400Y-93250000D03*
%TO.P,U4,4,4*%
%TO.N,/R3*%
X112374400Y-92750000D03*
%TD*%
%TO.P,U34,1,1*%
%TO.N,/Minute4*%
X114039400Y-108000000D03*
%TO.P,U34,2,2*%
%TO.N,/B3*%
X114039400Y-108500000D03*
%TO.P,U34,3,3*%
%TO.N,/G3*%
X114539400Y-108500000D03*
%TO.P,U34,4,4*%
%TO.N,/R3*%
X114539400Y-108000000D03*
%TD*%
%TO.P,U80,1,1*%
%TO.N,/Second2*%
X110917900Y-84378700D03*
%TO.P,U80,2,2*%
%TO.N,/B1*%
X110917900Y-84878700D03*
%TO.P,U80,3,3*%
%TO.N,/G1*%
X111417900Y-84878700D03*
%TO.P,U80,4,4*%
%TO.N,/R1*%
X111417900Y-84378700D03*
%TD*%
%TO.P,U114,1,1*%
%TO.N,/Second7*%
X83295500Y-109250000D03*
%TO.P,U114,2,2*%
%TO.N,/B5*%
X83295500Y-109750000D03*
%TO.P,U114,3,3*%
%TO.N,/G5*%
X83795500Y-109750000D03*
%TO.P,U114,4,4*%
%TO.N,/R5*%
X83795500Y-109250000D03*
%TD*%
%TO.P,U61,1,1*%
%TO.N,/Minute8*%
X83610600Y-96319500D03*
%TO.P,U61,2,2*%
%TO.N,/B6*%
X83610600Y-96819500D03*
%TO.P,U61,3,3*%
%TO.N,/G6*%
X84110600Y-96819500D03*
%TO.P,U61,4,4*%
%TO.N,/R6*%
X84110600Y-96319500D03*
%TD*%
%TO.P,U109,1,1*%
%TO.N,/Second6*%
X90250000Y-116204500D03*
%TO.P,U109,2,2*%
%TO.N,/B6*%
X90250000Y-116704500D03*
%TO.P,U109,3,3*%
%TO.N,/G6*%
X90750000Y-116704500D03*
%TO.P,U109,4,4*%
%TO.N,/R6*%
X90750000Y-116204500D03*
%TD*%
%TO.P,U107,1,1*%
%TO.N,/Second6*%
X93878700Y-117820100D03*
%TO.P,U107,2,2*%
%TO.N,/B4*%
X93878700Y-118320100D03*
%TO.P,U107,3,3*%
%TO.N,/G4*%
X94378700Y-118320100D03*
%TO.P,U107,4,4*%
%TO.N,/R4*%
X94378700Y-117820100D03*
%TD*%
%TO.P,U121,1,1*%
%TO.N,/Second8*%
X81165200Y-95799700D03*
%TO.P,U121,2,2*%
%TO.N,/B6*%
X81165200Y-96299700D03*
%TO.P,U121,3,3*%
%TO.N,/G6*%
X81665200Y-96299700D03*
%TO.P,U121,4,4*%
%TO.N,/R6*%
X81665200Y-95799700D03*
%TD*%
%TO.P,U43,1,1*%
%TO.N,/Minute5*%
X101524700Y-115509600D03*
%TO.P,U43,2,2*%
%TO.N,/B6*%
X101524700Y-116009600D03*
%TO.P,U43,3,3*%
%TO.N,/G6*%
X102024700Y-116009600D03*
%TO.P,U43,4,4*%
%TO.N,/R6*%
X102024700Y-115509600D03*
%TD*%
%TO.P,U65,1,1*%
%TO.N,/Minute9*%
X86401200Y-90051500D03*
%TO.P,U65,2,2*%
%TO.N,/B4*%
X86401200Y-90551500D03*
%TO.P,U65,3,3*%
%TO.N,/G4*%
X86901200Y-90551500D03*
%TO.P,U65,4,4*%
%TO.N,/R4*%
X86901200Y-90051500D03*
%TD*%
%TO.P,U7,1,1*%
%TO.N,/Hour1*%
X106750000Y-111874400D03*
%TO.P,U7,2,2*%
%TO.N,/B6*%
X106750000Y-112374400D03*
%TO.P,U7,3,3*%
%TO.N,/G6*%
X107250000Y-112374400D03*
%TO.P,U7,4,4*%
%TO.N,/R6*%
X107250000Y-111874400D03*
%TD*%
%TO.P,U69,1,1*%
%TO.N,/Minute10*%
X91500000Y-85460600D03*
%TO.P,U69,2,2*%
%TO.N,/B2*%
X91500000Y-85960600D03*
%TO.P,U69,3,3*%
%TO.N,/G2*%
X92000000Y-85960600D03*
%TO.P,U69,4,4*%
%TO.N,/R2*%
X92000000Y-85460600D03*
%TD*%
%TO.P,U105,1,1*%
%TO.N,/Second6*%
X97814000Y-117995900D03*
%TO.P,U105,2,2*%
%TO.N,/B2*%
X97814000Y-118495900D03*
%TO.P,U105,3,3*%
%TO.N,/G2*%
X98314000Y-118495900D03*
%TO.P,U105,4,4*%
%TO.N,/R2*%
X98314000Y-117995900D03*
%TD*%
%TO.P,U129,1,1*%
%TO.N,/Second10*%
X90250000Y-83295500D03*
%TO.P,U129,2,2*%
%TO.N,/B2*%
X90250000Y-83795500D03*
%TO.P,U129,3,3*%
%TO.N,/G2*%
X90750000Y-83795500D03*
%TO.P,U129,4,4*%
%TO.N,/R2*%
X90750000Y-83295500D03*
%TD*%
%TO.P,U95,1,1*%
%TO.N,/Second4*%
X115121300Y-110917900D03*
%TO.P,U95,2,2*%
%TO.N,/B4*%
X115121300Y-111417900D03*
%TO.P,U95,3,3*%
%TO.N,/G4*%
X115621300Y-111417900D03*
%TO.P,U95,4,4*%
%TO.N,/R4*%
X115621300Y-110917900D03*
%TD*%
%TO.P,U32,1,1*%
%TO.N,/Minute4*%
X115442400Y-104848800D03*
%TO.P,U32,2,2*%
%TO.N,/B1*%
X115442400Y-105348800D03*
%TO.P,U32,3,3*%
%TO.N,/G1*%
X115942400Y-105348800D03*
%TO.P,U32,4,4*%
%TO.N,/R1*%
X115942400Y-104848800D03*
%TD*%
%TO.P,U54,1,1*%
%TO.N,/Minute7*%
X85460600Y-108000000D03*
%TO.P,U54,2,2*%
%TO.N,/B5*%
X85460600Y-108500000D03*
%TO.P,U54,3,3*%
%TO.N,/G5*%
X85960600Y-108500000D03*
%TO.P,U54,4,4*%
%TO.N,/R5*%
X85960600Y-108000000D03*
%TD*%
%TO.P,U128,1,1*%
%TO.N,/Second10*%
X88582100Y-84378700D03*
%TO.P,U128,2,2*%
%TO.N,/B1*%
X88582100Y-84878700D03*
%TO.P,U128,3,3*%
%TO.N,/G1*%
X89082100Y-84878700D03*
%TO.P,U128,4,4*%
%TO.N,/R1*%
X89082100Y-84378700D03*
%TD*%
%TO.P,U30,1,1*%
%TO.N,/Minute3*%
X116159600Y-101474700D03*
%TO.P,U30,2,2*%
%TO.N,/B5*%
X116159600Y-101974700D03*
%TO.P,U30,3,3*%
%TO.N,/G5*%
X116659600Y-101974700D03*
%TO.P,U30,4,4*%
%TO.N,/R5*%
X116659600Y-101474700D03*
%TD*%
%TO.P,U126,1,1*%
%TO.N,/Second9*%
X85630200Y-87036500D03*
%TO.P,U126,2,2*%
%TO.N,/B5*%
X85630200Y-87536500D03*
%TO.P,U126,3,3*%
%TO.N,/G5*%
X86130200Y-87536500D03*
%TO.P,U126,4,4*%
%TO.N,/R5*%
X86130200Y-87036500D03*
%TD*%
%TO.P,U31,1,1*%
%TO.N,/Minute3*%
X115889400Y-103180500D03*
%TO.P,U31,2,2*%
%TO.N,/B6*%
X115889400Y-103680500D03*
%TO.P,U31,3,3*%
%TO.N,/G6*%
X116389400Y-103680500D03*
%TO.P,U31,4,4*%
%TO.N,/R6*%
X116389400Y-103180500D03*
%TD*%
%TO.P,U50,1,1*%
%TO.N,/Minute7*%
X90051500Y-113098800D03*
%TO.P,U50,2,2*%
%TO.N,/B1*%
X90051500Y-113598800D03*
%TO.P,U50,3,3*%
%TO.N,/G1*%
X90551500Y-113598800D03*
%TO.P,U50,4,4*%
%TO.N,/R1*%
X90551500Y-113098800D03*
%TD*%
%TO.P,U62,1,1*%
%TO.N,/Minute9*%
X84057600Y-94651200D03*
%TO.P,U62,2,2*%
%TO.N,/B1*%
X84057600Y-95151200D03*
%TO.P,U62,3,3*%
%TO.N,/G1*%
X84557600Y-95151200D03*
%TO.P,U62,4,4*%
%TO.N,/R1*%
X84557600Y-94651200D03*
%TD*%
%TO.P,U106,1,1*%
%TO.N,/Second6*%
X95799700Y-118334800D03*
%TO.P,U106,2,2*%
%TO.N,/B3*%
X95799700Y-118834800D03*
%TO.P,U106,3,3*%
%TO.N,/G3*%
X96299700Y-118834800D03*
%TO.P,U106,4,4*%
%TO.N,/R3*%
X96299700Y-118334800D03*
%TD*%
%TO.P,U20,1,1*%
%TO.N,/Minute2*%
X109448500Y-86401200D03*
%TO.P,U20,2,2*%
%TO.N,/B1*%
X109448500Y-86901200D03*
%TO.P,U20,3,3*%
%TO.N,/G1*%
X109948500Y-86901200D03*
%TO.P,U20,4,4*%
%TO.N,/R1*%
X109948500Y-86401200D03*
%TD*%
%TO.P,U124,1,1*%
%TO.N,/Second9*%
X83295500Y-90250000D03*
%TO.P,U124,2,2*%
%TO.N,/B3*%
X83295500Y-90750000D03*
%TO.P,U124,3,3*%
%TO.N,/G3*%
X83795500Y-90750000D03*
%TO.P,U124,4,4*%
%TO.N,/R3*%
X83795500Y-90250000D03*
%TD*%
%TO.P,U93,1,1*%
%TO.N,/Second4*%
X117107400Y-107478000D03*
%TO.P,U93,2,2*%
%TO.N,/B2*%
X117107400Y-107978000D03*
%TO.P,U93,3,3*%
%TO.N,/G2*%
X117607400Y-107978000D03*
%TO.P,U93,4,4*%
%TO.N,/R2*%
X117607400Y-107478000D03*
%TD*%
%TO.P,U103,1,1*%
%TO.N,/Second5*%
X101786000Y-117995900D03*
%TO.P,U103,2,2*%
%TO.N,/B6*%
X101786000Y-118495900D03*
%TO.P,U103,3,3*%
%TO.N,/G6*%
X102286000Y-118495900D03*
%TO.P,U103,4,4*%
%TO.N,/R6*%
X102286000Y-117995900D03*
%TD*%
%TO.P,U86,1,1*%
%TO.N,/Second3*%
X117820100Y-93878700D03*
%TO.P,U86,2,2*%
%TO.N,/B1*%
X117820100Y-94378700D03*
%TO.P,U86,3,3*%
%TO.N,/G1*%
X118320100Y-94378700D03*
%TO.P,U86,4,4*%
%TO.N,/R1*%
X118320100Y-93878700D03*
%TD*%
%TO.P,U112,1,1*%
%TO.N,/Second7*%
X85630200Y-112463500D03*
%TO.P,U112,2,2*%
%TO.N,/B3*%
X85630200Y-112963500D03*
%TO.P,U112,3,3*%
%TO.N,/G3*%
X86130200Y-112963500D03*
%TO.P,U112,4,4*%
%TO.N,/R3*%
X86130200Y-112463500D03*
%TD*%
D14*
%TO.P,SW1,1,1*%
%TO.N,Net-(U135-PF0)*%
X92375000Y-108000000D03*
%TO.P,SW1,2,2*%
%TO.N,Net-(U135-PF1)*%
X95625000Y-108000000D03*
%TO.P,SW1,3,3*%
%TO.N,unconnected-(SW1-Pad3)*%
X92375000Y-110000000D03*
%TO.P,SW1,4,4*%
%TO.N,unconnected-(SW1-Pad4)*%
X95625000Y-110000000D03*
D15*
%TO.P,SW1,SH1*%
%TO.N,N/C*%
X94000000Y-107350000D03*
%TO.P,SW1,SH2*%
X94000000Y-110650000D03*
%TD*%
D10*
%TO.P,U63,1,1*%
%TO.N,/Minute9*%
X84676500Y-93038800D03*
%TO.P,U63,2,2*%
%TO.N,/B2*%
X84676500Y-93538800D03*
%TO.P,U63,3,3*%
%TO.N,/G2*%
X85176500Y-93538800D03*
%TO.P,U63,4,4*%
%TO.N,/R2*%
X85176500Y-93038800D03*
%TD*%
%TO.P,U84,1,1*%
%TO.N,/Second2*%
X116204500Y-90250000D03*
%TO.P,U84,2,2*%
%TO.N,/B5*%
X116204500Y-90750000D03*
%TO.P,U84,3,3*%
%TO.N,/G5*%
X116704500Y-90750000D03*
%TO.P,U84,4,4*%
%TO.N,/R5*%
X116704500Y-90250000D03*
%TD*%
%TO.P,U85,1,1*%
%TO.N,/Second2*%
X117107400Y-92022000D03*
%TO.P,U85,2,2*%
%TO.N,/B6*%
X117107400Y-92522000D03*
%TO.P,U85,3,3*%
%TO.N,/G6*%
X117607400Y-92522000D03*
%TO.P,U85,4,4*%
%TO.N,/R6*%
X117607400Y-92022000D03*
%TD*%
%TO.P,U82,1,1*%
%TO.N,/Second2*%
X113869800Y-87036500D03*
%TO.P,U82,2,2*%
%TO.N,/B3*%
X113869800Y-87536500D03*
%TO.P,U82,3,3*%
%TO.N,/G3*%
X114369800Y-87536500D03*
%TO.P,U82,4,4*%
%TO.N,/R3*%
X114369800Y-87036500D03*
%TD*%
%TO.P,U66,1,1*%
%TO.N,/Minute9*%
X87488100Y-88709300D03*
%TO.P,U66,2,2*%
%TO.N,/B5*%
X87488100Y-89209300D03*
%TO.P,U66,3,3*%
%TO.N,/G5*%
X87988100Y-89209300D03*
%TO.P,U66,4,4*%
%TO.N,/R5*%
X87988100Y-88709300D03*
%TD*%
%TO.P,U60,1,1*%
%TO.N,/Minute8*%
X83340400Y-98025300D03*
%TO.P,U60,2,2*%
%TO.N,/B5*%
X83340400Y-98525300D03*
%TO.P,U60,3,3*%
%TO.N,/G5*%
X83840400Y-98525300D03*
%TO.P,U60,4,4*%
%TO.N,/R5*%
X83840400Y-98025300D03*
%TD*%
%TO.P,U14,1,1*%
%TO.N,/Minute1*%
X99750000Y-83250000D03*
%TO.P,U14,2,2*%
%TO.N,/B1*%
X99750000Y-83750000D03*
%TO.P,U14,3,3*%
%TO.N,/G1*%
X100250000Y-83750000D03*
%TO.P,U14,4,4*%
%TO.N,/R1*%
X100250000Y-83250000D03*
%TD*%
%TO.P,U38,1,1*%
%TO.N,/Minute5*%
X109448500Y-113098800D03*
%TO.P,U38,2,2*%
%TO.N,/B1*%
X109448500Y-113598800D03*
%TO.P,U38,3,3*%
%TO.N,/G1*%
X109948500Y-113598800D03*
%TO.P,U38,4,4*%
%TO.N,/R1*%
X109948500Y-113098800D03*
%TD*%
%TO.P,U76,1,1*%
%TO.N,/Second1*%
X103700300Y-81165200D03*
%TO.P,U76,2,2*%
%TO.N,/B3*%
X103700300Y-81665200D03*
%TO.P,U76,3,3*%
%TO.N,/G3*%
X104200300Y-81665200D03*
%TO.P,U76,4,4*%
%TO.N,/R3*%
X104200300Y-81165200D03*
%TD*%
%TO.P,U132,1,1*%
%TO.N,/Second10*%
X95799700Y-81165200D03*
%TO.P,U132,2,2*%
%TO.N,/B5*%
X95799700Y-81665200D03*
%TO.P,U132,3,3*%
%TO.N,/G5*%
X96299700Y-81665200D03*
%TO.P,U132,4,4*%
%TO.N,/R5*%
X96299700Y-81165200D03*
%TD*%
%TO.P,U119,1,1*%
%TO.N,/Second8*%
X80750000Y-99750000D03*
%TO.P,U119,2,2*%
%TO.N,/B4*%
X80750000Y-100250000D03*
%TO.P,U119,3,3*%
%TO.N,/G4*%
X81250000Y-100250000D03*
%TO.P,U119,4,4*%
%TO.N,/R4*%
X81250000Y-99750000D03*
%TD*%
%TO.P,U98,1,1*%
%TO.N,/Second5*%
X110917900Y-115121300D03*
%TO.P,U98,2,2*%
%TO.N,/B1*%
X110917900Y-115621300D03*
%TO.P,U98,3,3*%
%TO.N,/G1*%
X111417900Y-115621300D03*
%TO.P,U98,4,4*%
%TO.N,/R1*%
X111417900Y-115121300D03*
%TD*%
%TO.P,U23,1,1*%
%TO.N,/Minute2*%
X113098800Y-90051500D03*
%TO.P,U23,2,2*%
%TO.N,/B4*%
X113098800Y-90551500D03*
%TO.P,U23,3,3*%
%TO.N,/G4*%
X113598800Y-90551500D03*
%TO.P,U23,4,4*%
%TO.N,/R4*%
X113598800Y-90051500D03*
%TD*%
%TO.P,U75,1,1*%
%TO.N,/Second1*%
X101736000Y-80854100D03*
%TO.P,U75,2,2*%
%TO.N,/B2*%
X101736000Y-81354100D03*
%TO.P,U75,3,3*%
%TO.N,/G2*%
X102236000Y-81354100D03*
%TO.P,U75,4,4*%
%TO.N,/R2*%
X102236000Y-80854100D03*
%TD*%
%TO.P,U10,1,1*%
%TO.N,/Hour2*%
X87625600Y-106750000D03*
%TO.P,U10,2,2*%
%TO.N,/B3*%
X87625600Y-107250000D03*
%TO.P,U10,3,3*%
%TO.N,/G3*%
X88125600Y-107250000D03*
%TO.P,U10,4,4*%
%TO.N,/R3*%
X88125600Y-106750000D03*
%TD*%
%TO.P,U11,1,1*%
%TO.N,/Hour2*%
X85750000Y-99750000D03*
%TO.P,U11,2,2*%
%TO.N,/B4*%
X85750000Y-100250000D03*
%TO.P,U11,3,3*%
%TO.N,/G4*%
X86250000Y-100250000D03*
%TO.P,U11,4,4*%
%TO.N,/R4*%
X86250000Y-99750000D03*
%TD*%
%TO.P,U94,1,1*%
%TO.N,/Second4*%
X116204500Y-109250000D03*
%TO.P,U94,2,2*%
%TO.N,/B3*%
X116204500Y-109750000D03*
%TO.P,U94,3,3*%
%TO.N,/G3*%
X116704500Y-109750000D03*
%TO.P,U94,4,4*%
%TO.N,/R3*%
X116704500Y-109250000D03*
%TD*%
%TO.P,U115,1,1*%
%TO.N,/Second7*%
X82392600Y-107478000D03*
%TO.P,U115,2,2*%
%TO.N,/B6*%
X82392600Y-107978000D03*
%TO.P,U115,3,3*%
%TO.N,/G6*%
X82892600Y-107978000D03*
%TO.P,U115,4,4*%
%TO.N,/R6*%
X82892600Y-107478000D03*
%TD*%
%TO.P,U111,1,1*%
%TO.N,/Second7*%
X87036500Y-113869800D03*
%TO.P,U111,2,2*%
%TO.N,/B2*%
X87036500Y-114369800D03*
%TO.P,U111,3,3*%
%TO.N,/G2*%
X87536500Y-114369800D03*
%TO.P,U111,4,4*%
%TO.N,/R2*%
X87536500Y-113869800D03*
%TD*%
%TO.P,U51,1,1*%
%TO.N,/Minute7*%
X88709300Y-112011900D03*
%TO.P,U51,2,2*%
%TO.N,/B2*%
X88709300Y-112511900D03*
%TO.P,U51,3,3*%
%TO.N,/G2*%
X89209300Y-112511900D03*
%TO.P,U51,4,4*%
%TO.N,/R2*%
X89209300Y-112011900D03*
%TD*%
%TO.P,U74,1,1*%
%TO.N,/Second1*%
X99750000Y-80750000D03*
%TO.P,U74,2,2*%
%TO.N,/B1*%
X99750000Y-81250000D03*
%TO.P,U74,3,3*%
%TO.N,/G1*%
X100250000Y-81250000D03*
%TO.P,U74,4,4*%
%TO.N,/R1*%
X100250000Y-80750000D03*
%TD*%
%TO.P,U13,1,1*%
%TO.N,/Hour2*%
X92750000Y-87625600D03*
%TO.P,U13,2,2*%
%TO.N,/B6*%
X92750000Y-88125600D03*
%TO.P,U13,3,3*%
%TO.N,/G6*%
X93250000Y-88125600D03*
%TO.P,U13,4,4*%
%TO.N,/R6*%
X93250000Y-87625600D03*
%TD*%
%TO.P,U36,1,1*%
%TO.N,/Minute4*%
X112011900Y-110790700D03*
%TO.P,U36,2,2*%
%TO.N,/B5*%
X112011900Y-111290700D03*
%TO.P,U36,3,3*%
%TO.N,/G5*%
X112511900Y-111290700D03*
%TO.P,U36,4,4*%
%TO.N,/R5*%
X112511900Y-110790700D03*
%TD*%
%TO.P,U8,1,1*%
%TO.N,/Hour2*%
X99800000Y-113100000D03*
%TO.P,U8,2,2*%
%TO.N,/B1*%
X99800000Y-113600000D03*
%TO.P,U8,3,3*%
%TO.N,/G1*%
X100300000Y-113600000D03*
%TO.P,U8,4,4*%
%TO.N,/R1*%
X100300000Y-113100000D03*
%TD*%
%TO.P,U16,1,1*%
%TO.N,/Minute1*%
X103180500Y-83610600D03*
%TO.P,U16,2,2*%
%TO.N,/B3*%
X103180500Y-84110600D03*
%TO.P,U16,3,3*%
%TO.N,/G3*%
X103680500Y-84110600D03*
%TO.P,U16,4,4*%
%TO.N,/R3*%
X103680500Y-83610600D03*
%TD*%
%TO.P,U5,1,1*%
%TO.N,/Hour1*%
X113750000Y-99750000D03*
%TO.P,U5,2,2*%
%TO.N,/B4*%
X113750000Y-100250000D03*
%TO.P,U5,3,3*%
%TO.N,/G4*%
X114250000Y-100250000D03*
%TO.P,U5,4,4*%
%TO.N,/R4*%
X114250000Y-99750000D03*
%TD*%
%TO.P,U79,1,1*%
%TO.N,/Second1*%
X109250000Y-83295500D03*
%TO.P,U79,2,2*%
%TO.N,/B6*%
X109250000Y-83795500D03*
%TO.P,U79,3,3*%
%TO.N,/G6*%
X109750000Y-83795500D03*
%TO.P,U79,4,4*%
%TO.N,/R6*%
X109750000Y-83295500D03*
%TD*%
%TO.P,U29,1,1*%
%TO.N,/Minute3*%
X116250000Y-99750000D03*
%TO.P,U29,2,2*%
%TO.N,/B4*%
X116250000Y-100250000D03*
%TO.P,U29,3,3*%
%TO.N,/G4*%
X116750000Y-100250000D03*
%TO.P,U29,4,4*%
%TO.N,/R4*%
X116750000Y-99750000D03*
%TD*%
%TO.P,U102,1,1*%
%TO.N,/Second5*%
X103750300Y-117684800D03*
%TO.P,U102,2,2*%
%TO.N,/B5*%
X103750300Y-118184800D03*
%TO.P,U102,3,3*%
%TO.N,/G5*%
X104250300Y-118184800D03*
%TO.P,U102,4,4*%
%TO.N,/R5*%
X104250300Y-117684800D03*
%TD*%
%TO.P,U56,1,1*%
%TO.N,/Minute8*%
X84057600Y-104848800D03*
%TO.P,U56,2,2*%
%TO.N,/B1*%
X84057600Y-105348800D03*
%TO.P,U56,3,3*%
%TO.N,/G1*%
X84557600Y-105348800D03*
%TO.P,U56,4,4*%
%TO.N,/R1*%
X84557600Y-104848800D03*
%TD*%
%TO.P,U12,1,1*%
%TO.N,/Hour2*%
X87625600Y-92750000D03*
%TO.P,U12,2,2*%
%TO.N,/B5*%
X87625600Y-93250000D03*
%TO.P,U12,3,3*%
%TO.N,/G5*%
X88125600Y-93250000D03*
%TO.P,U12,4,4*%
%TO.N,/R5*%
X88125600Y-92750000D03*
%TD*%
%TO.P,U33,1,1*%
%TO.N,/Minute4*%
X114823500Y-106461200D03*
%TO.P,U33,2,2*%
%TO.N,/B2*%
X114823500Y-106961200D03*
%TO.P,U33,3,3*%
%TO.N,/G2*%
X115323500Y-106961200D03*
%TO.P,U33,4,4*%
%TO.N,/R2*%
X115323500Y-106461200D03*
%TD*%
%TO.P,U57,1,1*%
%TO.N,/Minute8*%
X83610600Y-103180500D03*
%TO.P,U57,2,2*%
%TO.N,/B2*%
X83610600Y-103680500D03*
%TO.P,U57,3,3*%
%TO.N,/G2*%
X84110600Y-103680500D03*
%TO.P,U57,4,4*%
%TO.N,/R2*%
X84110600Y-103180500D03*
%TD*%
%TO.P,U17,1,1*%
%TO.N,/Minute1*%
X104848800Y-84057600D03*
%TO.P,U17,2,2*%
%TO.N,/B4*%
X104848800Y-84557600D03*
%TO.P,U17,3,3*%
%TO.N,/G4*%
X105348800Y-84557600D03*
%TO.P,U17,4,4*%
%TO.N,/R4*%
X105348800Y-84057600D03*
%TD*%
%TO.P,U67,1,1*%
%TO.N,/Minute9*%
X88709300Y-87488100D03*
%TO.P,U67,2,2*%
%TO.N,/B6*%
X88709300Y-87988100D03*
%TO.P,U67,3,3*%
%TO.N,/G6*%
X89209300Y-87988100D03*
%TO.P,U67,4,4*%
%TO.N,/R6*%
X89209300Y-87488100D03*
%TD*%
%TO.P,U71,1,1*%
%TO.N,/Minute10*%
X94651200Y-84057600D03*
%TO.P,U71,2,2*%
%TO.N,/B4*%
X94651200Y-84557600D03*
%TO.P,U71,3,3*%
%TO.N,/G4*%
X95151200Y-84557600D03*
%TO.P,U71,4,4*%
%TO.N,/R4*%
X95151200Y-84057600D03*
%TD*%
D16*
%TO.P,J1,1,MISO*%
%TO.N,/B5*%
X110325000Y-102500000D03*
%TO.P,J1,2,VCC*%
%TO.N,Net-(J1-VCC)*%
X110325000Y-101500000D03*
%TO.P,J1,3,SCK*%
%TO.N,/R6*%
X110325000Y-100500000D03*
%TO.P,J1,4,MOSI*%
%TO.N,/G5*%
X110325000Y-99500000D03*
%TO.P,J1,5,~{RST}*%
%TO.N,Net-(J1-~{RST})*%
X110325000Y-98500000D03*
%TO.P,J1,6,GND*%
%TO.N,Net-(J1-GND)*%
X110325000Y-97500000D03*
D17*
%TO.P,J1,MP*%
%TO.N,N/C*%
X107800000Y-103800000D03*
X107800000Y-96200000D03*
%TD*%
D10*
%TO.P,U78,1,1*%
%TO.N,/Second1*%
X107478000Y-82392600D03*
%TO.P,U78,2,2*%
%TO.N,/B5*%
X107478000Y-82892600D03*
%TO.P,U78,3,3*%
%TO.N,/G5*%
X107978000Y-82892600D03*
%TO.P,U78,4,4*%
%TO.N,/R5*%
X107978000Y-82392600D03*
%TD*%
%TO.P,U88,1,1*%
%TO.N,/Second3*%
X118645900Y-97764000D03*
%TO.P,U88,2,2*%
%TO.N,/B3*%
X118645900Y-98264000D03*
%TO.P,U88,3,3*%
%TO.N,/G3*%
X119145900Y-98264000D03*
%TO.P,U88,4,4*%
%TO.N,/R3*%
X119145900Y-97764000D03*
%TD*%
%TO.P,U40,1,1*%
%TO.N,/Minute5*%
X106461200Y-114823500D03*
%TO.P,U40,2,2*%
%TO.N,/B3*%
X106461200Y-115323500D03*
%TO.P,U40,3,3*%
%TO.N,/G3*%
X106961200Y-115323500D03*
%TO.P,U40,4,4*%
%TO.N,/R3*%
X106961200Y-114823500D03*
%TD*%
D18*
%TO.P,U134,1,SDO*%
%TO.N,unconnected-(U134-SDO-Pad1)*%
X91250000Y-95262500D03*
%TO.P,U134,2,ASDx*%
%TO.N,unconnected-(U134-ASDx-Pad2)*%
X91750000Y-95262500D03*
%TO.P,U134,3,ASCx*%
%TO.N,unconnected-(U134-ASCx-Pad3)*%
X92250000Y-95262500D03*
%TO.P,U134,4,INT1*%
%TO.N,Net-(U134-INT1)*%
X92750000Y-95262500D03*
D19*
%TO.P,U134,5,VDDIO*%
%TO.N,unconnected-(U134-VDDIO-Pad5)*%
X93012500Y-94500000D03*
%TO.P,U134,6,GNDIO*%
%TO.N,unconnected-(U134-GNDIO-Pad6)*%
X93012500Y-94000000D03*
%TO.P,U134,7,GND*%
%TO.N,Net-(J1-GND)*%
X93012500Y-93500000D03*
D18*
%TO.P,U134,8,VDD*%
%TO.N,Net-(J1-VCC)*%
X92750000Y-92737500D03*
%TO.P,U134,9,INT2*%
%TO.N,unconnected-(U134-INT2-Pad9)*%
X92250000Y-92737500D03*
%TO.P,U134,10,OCSB*%
%TO.N,unconnected-(U134-OCSB-Pad10)*%
X91750000Y-92737500D03*
%TO.P,U134,11,OSDO*%
%TO.N,unconnected-(U134-OSDO-Pad11)*%
X91250000Y-92737500D03*
D19*
%TO.P,U134,12,CSB*%
%TO.N,unconnected-(U134-CSB-Pad12)*%
X90987500Y-93500000D03*
%TO.P,U134,13,SCx*%
%TO.N,Net-(U134-SCx)*%
X90987500Y-94000000D03*
%TO.P,U134,14,SDx*%
%TO.N,Net-(U134-SDx)*%
X90987500Y-94500000D03*
%TD*%
D10*
%TO.P,U113,1,1*%
%TO.N,/Second7*%
X84378700Y-110917900D03*
%TO.P,U113,2,2*%
%TO.N,/B4*%
X84378700Y-111417900D03*
%TO.P,U113,3,3*%
%TO.N,/G4*%
X84878700Y-111417900D03*
%TO.P,U113,4,4*%
%TO.N,/R4*%
X84878700Y-110917900D03*
%TD*%
%TO.P,U26,1,1*%
%TO.N,/Minute3*%
X115442400Y-94651200D03*
%TO.P,U26,2,2*%
%TO.N,/B1*%
X115442400Y-95151200D03*
%TO.P,U26,3,3*%
%TO.N,/G1*%
X115942400Y-95151200D03*
%TO.P,U26,4,4*%
%TO.N,/R1*%
X115942400Y-94651200D03*
%TD*%
%TO.P,U47,1,1*%
%TO.N,/Minute6*%
X94651200Y-115442400D03*
%TO.P,U47,2,2*%
%TO.N,/B4*%
X94651200Y-115942400D03*
%TO.P,U47,3,3*%
%TO.N,/G4*%
X95151200Y-115942400D03*
%TO.P,U47,4,4*%
%TO.N,/R4*%
X95151200Y-115442400D03*
%TD*%
%TO.P,U91,1,1*%
%TO.N,/Second3*%
X118334800Y-103700300D03*
%TO.P,U91,2,2*%
%TO.N,/B6*%
X118334800Y-104200300D03*
%TO.P,U91,3,3*%
%TO.N,/G6*%
X118834800Y-104200300D03*
%TO.P,U91,4,4*%
%TO.N,/R6*%
X118834800Y-103700300D03*
%TD*%
%TO.P,U52,1,1*%
%TO.N,/Minute7*%
X87488100Y-110790700D03*
%TO.P,U52,2,2*%
%TO.N,/B3*%
X87488100Y-111290700D03*
%TO.P,U52,3,3*%
%TO.N,/G3*%
X87988100Y-111290700D03*
%TO.P,U52,4,4*%
%TO.N,/R3*%
X87988100Y-110790700D03*
%TD*%
%TO.P,U116,1,1*%
%TO.N,/Second8*%
X81679900Y-105621300D03*
%TO.P,U116,2,2*%
%TO.N,/B1*%
X81679900Y-106121300D03*
%TO.P,U116,3,3*%
%TO.N,/G1*%
X82179900Y-106121300D03*
%TO.P,U116,4,4*%
%TO.N,/R1*%
X82179900Y-105621300D03*
%TD*%
%TO.P,U122,1,1*%
%TO.N,/Second9*%
X81679900Y-93878700D03*
%TO.P,U122,2,2*%
%TO.N,/B1*%
X81679900Y-94378700D03*
%TO.P,U122,3,3*%
%TO.N,/G1*%
X82179900Y-94378700D03*
%TO.P,U122,4,4*%
%TO.N,/R1*%
X82179900Y-93878700D03*
%TD*%
%TO.P,U110,1,1*%
%TO.N,/Second7*%
X88582100Y-115121300D03*
%TO.P,U110,2,2*%
%TO.N,/B1*%
X88582100Y-115621300D03*
%TO.P,U110,3,3*%
%TO.N,/G1*%
X89082100Y-115621300D03*
%TO.P,U110,4,4*%
%TO.N,/R1*%
X89082100Y-115121300D03*
%TD*%
D20*
%TO.P,U135,1,NC*%
%TO.N,unconnected-(U135-NC-Pad1)*%
X95612500Y-96250000D03*
%TO.P,U135,2,PE0*%
%TO.N,Net-(U134-SCx)*%
X95612500Y-96750000D03*
%TO.P,U135,3,PE1*%
%TO.N,Net-(U134-SDx)*%
X95612500Y-97250000D03*
%TO.P,U135,4,PE2*%
%TO.N,/Second1*%
X95612500Y-97750000D03*
%TO.P,U135,5,PE3*%
%TO.N,/Second2*%
X95612500Y-98250000D03*
%TO.P,U135,6,PE4*%
%TO.N,/Second3*%
X95612500Y-98750000D03*
%TO.P,U135,7,PE5*%
%TO.N,/Second4*%
X95612500Y-99250000D03*
%TO.P,U135,8,PE6*%
%TO.N,/Second5*%
X95612500Y-99750000D03*
%TO.P,U135,9,PE7*%
%TO.N,/Second6*%
X95612500Y-100250000D03*
%TO.P,U135,10,PB0*%
%TO.N,/B3*%
X95612500Y-100750000D03*
%TO.P,U135,11,PB1*%
%TO.N,/R4*%
X95612500Y-101250000D03*
%TO.P,U135,12,PB2*%
%TO.N,/G4*%
X95612500Y-101750000D03*
%TO.P,U135,13,PB3*%
%TO.N,/B4*%
X95612500Y-102250000D03*
%TO.P,U135,14,PB4*%
%TO.N,/R5*%
X95612500Y-102750000D03*
%TO.P,U135,15,PB5*%
%TO.N,/G5*%
X95612500Y-103250000D03*
%TO.P,U135,16,PB6*%
%TO.N,/B5*%
X95612500Y-103750000D03*
D21*
%TO.P,U135,17,PB7*%
%TO.N,/R6*%
X96300000Y-104437500D03*
%TO.P,U135,18,PG3*%
%TO.N,/Second10*%
X96800000Y-104437500D03*
%TO.P,U135,19,PG4*%
%TO.N,unconnected-(U135-PG4-Pad19)*%
X97300000Y-104437500D03*
%TO.P,U135,20,PG5/~{RESET}*%
%TO.N,Net-(J1-~{RST})*%
X97800000Y-104437500D03*
%TO.P,U135,21,VCC*%
%TO.N,Net-(J1-VCC)*%
X98300000Y-104437500D03*
%TO.P,U135,22,GND*%
%TO.N,Net-(J1-GND)*%
X98800000Y-104437500D03*
%TO.P,U135,23,XTAL2*%
%TO.N,unconnected-(U135-XTAL2-Pad23)*%
X99300000Y-104437500D03*
%TO.P,U135,24,XTAL1*%
%TO.N,unconnected-(U135-XTAL1-Pad24)*%
X99800000Y-104437500D03*
%TO.P,U135,25,PD0*%
%TO.N,unconnected-(U135-PD0-Pad25)*%
X100300000Y-104437500D03*
%TO.P,U135,26,PD1*%
%TO.N,Net-(U134-INT1)*%
X100800000Y-104437500D03*
%TO.P,U135,27,PD2*%
%TO.N,/Minute5*%
X101300000Y-104437500D03*
%TO.P,U135,28,PD3*%
%TO.N,/Minute6*%
X101800000Y-104437500D03*
%TO.P,U135,29,PD4*%
%TO.N,/Minute7*%
X102300000Y-104437500D03*
%TO.P,U135,30,PD5*%
%TO.N,/Minute8*%
X102800000Y-104437500D03*
%TO.P,U135,31,PD6*%
%TO.N,Net-(U135-PD6)*%
X103300000Y-104437500D03*
%TO.P,U135,32,PD7*%
%TO.N,Net-(U135-PD7)*%
X103800000Y-104437500D03*
D20*
%TO.P,U135,33,PG0*%
%TO.N,/Second7*%
X104487500Y-103750000D03*
%TO.P,U135,34,PG1*%
%TO.N,/Second8*%
X104487500Y-103250000D03*
%TO.P,U135,35,PC0*%
%TO.N,/G6*%
X104487500Y-102750000D03*
%TO.P,U135,36,PC1*%
%TO.N,/B6*%
X104487500Y-102250000D03*
%TO.P,U135,37,PC2*%
%TO.N,/Hour1*%
X104487500Y-101750000D03*
%TO.P,U135,38,PC3*%
%TO.N,/Hour2*%
X104487500Y-101250000D03*
%TO.P,U135,39,PC4*%
%TO.N,/Minute1*%
X104487500Y-100750000D03*
%TO.P,U135,40,PC5*%
%TO.N,/Minute2*%
X104487500Y-100250000D03*
%TO.P,U135,41,PC6*%
%TO.N,/Minute3*%
X104487500Y-99750000D03*
%TO.P,U135,42,PC7*%
%TO.N,/Minute4*%
X104487500Y-99250000D03*
%TO.P,U135,43,PG2*%
%TO.N,/Second9*%
X104487500Y-98750000D03*
%TO.P,U135,44,PA7*%
%TO.N,/G3*%
X104487500Y-98250000D03*
%TO.P,U135,45,PA6*%
%TO.N,/R3*%
X104487500Y-97750000D03*
%TO.P,U135,46,PA5*%
%TO.N,/B2*%
X104487500Y-97250000D03*
%TO.P,U135,47,PA4*%
%TO.N,/G2*%
X104487500Y-96750000D03*
%TO.P,U135,48,PA3*%
%TO.N,/R2*%
X104487500Y-96250000D03*
D21*
%TO.P,U135,49,PA2*%
%TO.N,/B1*%
X103800000Y-95562500D03*
%TO.P,U135,50,PA1*%
%TO.N,/G1*%
X103300000Y-95562500D03*
%TO.P,U135,51,PA0*%
%TO.N,/R1*%
X102800000Y-95562500D03*
%TO.P,U135,52,VCC*%
%TO.N,Net-(J1-VCC)*%
X102300000Y-95562500D03*
%TO.P,U135,53,GND*%
%TO.N,Net-(J1-GND)*%
X101800000Y-95562500D03*
%TO.P,U135,54,PF7*%
%TO.N,unconnected-(U135-PF7-Pad54)*%
X101300000Y-95562500D03*
%TO.P,U135,55,PF6*%
%TO.N,unconnected-(U135-PF6-Pad55)*%
X100800000Y-95562500D03*
%TO.P,U135,56,PF5*%
%TO.N,/Minute10*%
X100300000Y-95562500D03*
%TO.P,U135,57,PF4*%
%TO.N,/Minute9*%
X99800000Y-95562500D03*
%TO.P,U135,58,PF3*%
%TO.N,Net-(U135-PF3)*%
X99300000Y-95562500D03*
%TO.P,U135,59,PF2*%
%TO.N,Net-(U135-PF2)*%
X98800000Y-95562500D03*
%TO.P,U135,60,PF1*%
%TO.N,Net-(U135-PF1)*%
X98300000Y-95562500D03*
%TO.P,U135,61,PF0*%
%TO.N,Net-(U135-PF0)*%
X97800000Y-95562500D03*
%TO.P,U135,62,AREF*%
%TO.N,unconnected-(U135-AREF-Pad62)*%
X97300000Y-95562500D03*
%TO.P,U135,63,GND*%
%TO.N,Net-(J1-GND)*%
X96800000Y-95562500D03*
%TO.P,U135,64,AVCC*%
%TO.N,unconnected-(U135-AVCC-Pad64)*%
X96300000Y-95562500D03*
D22*
%TO.P,U135,65,GND*%
%TO.N,Net-(J1-GND)*%
X100050000Y-100000000D03*
%TD*%
D10*
%TO.P,U6,1,1*%
%TO.N,/Hour1*%
X111874400Y-106750000D03*
%TO.P,U6,2,2*%
%TO.N,/B5*%
X111874400Y-107250000D03*
%TO.P,U6,3,3*%
%TO.N,/G5*%
X112374400Y-107250000D03*
%TO.P,U6,4,4*%
%TO.N,/R5*%
X112374400Y-106750000D03*
%TD*%
%TO.P,U99,1,1*%
%TO.N,/Second5*%
X109250000Y-116204500D03*
%TO.P,U99,2,2*%
%TO.N,/B2*%
X109250000Y-116704500D03*
%TO.P,U99,3,3*%
%TO.N,/G2*%
X109750000Y-116704500D03*
%TO.P,U99,4,4*%
%TO.N,/R2*%
X109750000Y-116204500D03*
%TD*%
%TO.P,U100,1,1*%
%TO.N,/Second5*%
X107478000Y-117107400D03*
%TO.P,U100,2,2*%
%TO.N,/B3*%
X107478000Y-117607400D03*
%TO.P,U100,3,3*%
%TO.N,/G3*%
X107978000Y-117607400D03*
%TO.P,U100,4,4*%
%TO.N,/R3*%
X107978000Y-117107400D03*
%TD*%
%TO.P,U123,1,1*%
%TO.N,/Second9*%
X82392600Y-92022000D03*
%TO.P,U123,2,2*%
%TO.N,/B2*%
X82392600Y-92522000D03*
%TO.P,U123,3,3*%
%TO.N,/G2*%
X82892600Y-92522000D03*
%TO.P,U123,4,4*%
%TO.N,/R2*%
X82892600Y-92022000D03*
%TD*%
%TO.P,U28,1,1*%
%TO.N,/Minute3*%
X116159600Y-98025300D03*
%TO.P,U28,2,2*%
%TO.N,/B3*%
X116159600Y-98525300D03*
%TO.P,U28,3,3*%
%TO.N,/G3*%
X116659600Y-98525300D03*
%TO.P,U28,4,4*%
%TO.N,/R3*%
X116659600Y-98025300D03*
%TD*%
%TO.P,U45,1,1*%
%TO.N,/Minute6*%
X98075300Y-115509600D03*
%TO.P,U45,2,2*%
%TO.N,/B2*%
X98075300Y-116009600D03*
%TO.P,U45,3,3*%
%TO.N,/G2*%
X98575300Y-116009600D03*
%TO.P,U45,4,4*%
%TO.N,/R2*%
X98575300Y-115509600D03*
%TD*%
D23*
%TO.N,Net-(U135-PD6)*%
X99039200Y-106574400D03*
X98472900Y-105706600D03*
X103188200Y-105449500D03*
%TO.N,Net-(U135-PD7)*%
X104322100Y-105697300D03*
X102351500Y-106109100D03*
%TO.N,Net-(U134-SDx)*%
X94217900Y-95183700D03*
X90729000Y-95112500D03*
%TO.N,Net-(U134-SCx)*%
X91939500Y-94379600D03*
X94411400Y-94509900D03*
%TO.N,Net-(U134-INT1)*%
X92673700Y-96016600D03*
X93923500Y-96271800D03*
X99711100Y-96647700D03*
X100463700Y-105395400D03*
%TO.N,Net-(U135-PF2)*%
X99214400Y-94784600D03*
X99529500Y-105460700D03*
X103489000Y-106870900D03*
%TO.N,Net-(U135-PF3)*%
X108273600Y-106874400D03*
X101448500Y-106113600D03*
X101500100Y-96878100D03*
%TO.N,Net-(U135-PF1)*%
X98128100Y-96841500D03*
X97878800Y-107684700D03*
X96739400Y-107903200D03*
%TO.N,Net-(U135-PF0)*%
X97378400Y-96866600D03*
X97100300Y-106646000D03*
X93139900Y-107303800D03*
%TO.N,/R5*%
X94745100Y-103085800D03*
X93610800Y-102796200D03*
X117510400Y-90339000D03*
X93929100Y-99562300D03*
X94306800Y-108263500D03*
X86485500Y-86379400D03*
X88155300Y-86526800D03*
X88655700Y-89585200D03*
X103794900Y-113497500D03*
X88301400Y-92141200D03*
X88727700Y-96183100D03*
X94062200Y-114733600D03*
X92487900Y-115585300D03*
X104322100Y-109074700D03*
X115332300Y-90339000D03*
X108165300Y-81883200D03*
X107504200Y-83625600D03*
X97239300Y-81757200D03*
X112648700Y-109036800D03*
X112937600Y-106295100D03*
X88254200Y-82392000D03*
X84532700Y-97678400D03*
X119813100Y-102464200D03*
X117862200Y-102099200D03*
X112949900Y-104826100D03*
X111747600Y-90526000D03*
X109696600Y-90106600D03*
X83732500Y-106756200D03*
X90384100Y-108260000D03*
X89897900Y-107105600D03*
X104595200Y-117427200D03*
X85938700Y-107003300D03*
X82504300Y-96995000D03*
%TO.N,/Second9*%
X85081100Y-87315000D03*
X86214000Y-85195300D03*
X102849600Y-96835500D03*
X103106900Y-91288800D03*
X96759100Y-91288800D03*
X96973000Y-86128500D03*
%TO.N,/Hour1*%
X105901900Y-111318700D03*
X105931400Y-102798400D03*
X113050600Y-101937500D03*
X105386200Y-102222500D03*
X111974800Y-106045700D03*
X112348700Y-102015400D03*
X105623200Y-86943200D03*
X103215900Y-86703400D03*
X101260200Y-86145600D03*
X99241700Y-86225900D03*
X111182200Y-94232000D03*
X106596600Y-86956200D03*
X105658000Y-90369200D03*
X109069800Y-90402300D03*
X110096600Y-94006800D03*
%TO.N,/Second5*%
X106061100Y-116110900D03*
X107278300Y-116392700D03*
X109715300Y-115292600D03*
X103581400Y-117832500D03*
X101822300Y-117888000D03*
X94715300Y-100003800D03*
X106149200Y-101800400D03*
X106388300Y-105668100D03*
X107712700Y-105937400D03*
%TO.N,/B1*%
X99242300Y-119300300D03*
X99660000Y-117333000D03*
X89032700Y-85883300D03*
X89895400Y-87411800D03*
X98873400Y-111368800D03*
X110277600Y-84979000D03*
X99057900Y-113484000D03*
X117224800Y-94554300D03*
X110516000Y-95092400D03*
X109571100Y-89010600D03*
X110837200Y-89409200D03*
X116489300Y-95675300D03*
X81401800Y-107141000D03*
X99705300Y-88127100D03*
X99699300Y-87313600D03*
X99835500Y-84938300D03*
X81173900Y-93943600D03*
X82763400Y-93877800D03*
X103919500Y-94589500D03*
X100445500Y-93750300D03*
X89732500Y-110620600D03*
X89590800Y-106561000D03*
X83823500Y-87378900D03*
X117817100Y-106629100D03*
X115106800Y-105852100D03*
X115133100Y-103999200D03*
X112990900Y-103471100D03*
X110919600Y-103471100D03*
X111398800Y-116327100D03*
X83531700Y-105357400D03*
X79980100Y-106549000D03*
X108463200Y-116693700D03*
%TO.N,/Second8*%
X80937300Y-105125800D03*
X105287500Y-103923700D03*
X80382400Y-104019900D03*
%TO.N,/Second1*%
X103425600Y-80122200D03*
X101752400Y-80209700D03*
X106975900Y-82253100D03*
X108520900Y-82632100D03*
X99843700Y-79909300D03*
X98538600Y-94591100D03*
X94888000Y-95678500D03*
X94532900Y-97021000D03*
X106000400Y-79952900D03*
%TO.N,/Minute1*%
X101533400Y-82531300D03*
X99799400Y-82491000D03*
X106823000Y-84130600D03*
X108648800Y-84432100D03*
X103487600Y-100506200D03*
X104004800Y-85681500D03*
X105731300Y-85933900D03*
X105912200Y-85145300D03*
X103563500Y-82629600D03*
%TO.N,/Minute7*%
X101787000Y-103421200D03*
X92228900Y-104161700D03*
X91877600Y-107196100D03*
X90587400Y-107207100D03*
X90231000Y-111578400D03*
X89148300Y-111492300D03*
X85011900Y-105805500D03*
X86100300Y-105102400D03*
X87622800Y-104228900D03*
%TO.N,/Second10*%
X89746300Y-82974900D03*
X96379000Y-102924100D03*
X96921000Y-80644500D03*
X93618200Y-80491300D03*
X91183700Y-82717700D03*
X89133500Y-80807800D03*
X88711300Y-82914400D03*
%TO.N,/R2*%
X102640900Y-79882800D03*
X102112500Y-82217800D03*
X102055200Y-84671700D03*
X117161400Y-95542300D03*
X98052700Y-118087000D03*
X91942900Y-84763000D03*
X119295700Y-95454000D03*
X105108100Y-95580800D03*
X97974700Y-113529500D03*
X86628200Y-103321900D03*
X85810800Y-93637600D03*
X98325300Y-115380200D03*
X110388900Y-115755300D03*
X84873600Y-103267700D03*
X109254200Y-95357300D03*
X109254200Y-94313800D03*
X107477200Y-94312600D03*
X107759200Y-90085900D03*
X93805600Y-113095700D03*
X93794500Y-111929200D03*
X93126100Y-103287000D03*
X83316100Y-91635300D03*
X116133100Y-106941500D03*
X118636700Y-107306900D03*
X107473700Y-86746700D03*
X115674400Y-113808500D03*
X87234900Y-83354800D03*
X91416000Y-83364000D03*
X113177000Y-84921200D03*
X111280100Y-86306300D03*
X108928800Y-113664600D03*
X88203600Y-113499900D03*
X89259100Y-113432000D03*
X82065500Y-103299100D03*
%TO.N,/G4*%
X94532600Y-85382700D03*
X87273800Y-100307400D03*
X94864500Y-83453900D03*
X86929600Y-110719800D03*
X81110200Y-100818900D03*
X83211000Y-100755900D03*
X105857300Y-83837100D03*
X85483200Y-111255700D03*
X94036900Y-100268700D03*
X94376700Y-118943200D03*
X89796800Y-118601300D03*
X89560000Y-117530700D03*
X87480200Y-117011500D03*
X87600500Y-115958100D03*
X86151100Y-115165600D03*
X115618900Y-112237600D03*
X114527900Y-110589600D03*
X114384500Y-100929700D03*
X119522700Y-100884300D03*
X116634000Y-89032400D03*
X114583500Y-89478700D03*
X93918700Y-120107000D03*
X106565400Y-120214300D03*
X116516200Y-87587400D03*
X112030800Y-85079800D03*
X116995400Y-100763000D03*
X117737500Y-89105800D03*
X120779100Y-100969100D03*
X116409400Y-110726000D03*
X116644800Y-104304000D03*
X120532300Y-104157800D03*
X106041700Y-119727200D03*
X105794500Y-114937100D03*
%TO.N,/Minute8*%
X84582700Y-102448400D03*
X102510100Y-103345200D03*
X85629400Y-102275200D03*
X81891900Y-98544500D03*
X82707500Y-102141100D03*
%TO.N,/Minute9*%
X83415500Y-95066600D03*
X84346400Y-92480400D03*
X99618600Y-94310300D03*
X85630500Y-89203400D03*
X86817600Y-89106600D03*
%TO.N,/R3*%
X113096000Y-97823700D03*
X103720200Y-98083900D03*
X113055100Y-93405300D03*
X97332200Y-115820800D03*
X87683100Y-112446100D03*
X86721300Y-112193400D03*
X91602800Y-81465300D03*
X104198700Y-80590800D03*
X88022400Y-110286300D03*
X95570100Y-116962200D03*
X119767000Y-98368000D03*
X117120800Y-97623400D03*
X82186200Y-101684500D03*
X86989000Y-101939100D03*
X113025800Y-88499000D03*
X113204800Y-87818000D03*
X115063900Y-87233600D03*
X110666900Y-80807800D03*
X82111200Y-91250000D03*
X84976500Y-90351500D03*
X90841300Y-81465300D03*
X89735000Y-83927700D03*
X85664400Y-84512900D03*
X115166300Y-108006000D03*
X114998600Y-99049100D03*
X107357800Y-114263600D03*
X107510500Y-97569200D03*
X107474300Y-115743000D03*
%TO.N,/B3*%
X95206600Y-118787900D03*
X90224400Y-91858800D03*
X92096800Y-91978400D03*
X92614800Y-85759900D03*
X96172600Y-116914900D03*
X85201000Y-114517300D03*
X86128300Y-114362100D03*
X86986400Y-111471200D03*
X87725100Y-107958300D03*
X89987500Y-103023400D03*
X81059600Y-102920200D03*
X82976500Y-102918400D03*
X94731100Y-100681600D03*
X90507000Y-100797600D03*
X106674700Y-118645500D03*
X95614800Y-112452400D03*
X95681100Y-116113700D03*
X93026300Y-89570200D03*
X84140100Y-91543700D03*
X87589900Y-102965900D03*
X85923900Y-92503600D03*
X103569200Y-84991800D03*
X103580700Y-88989000D03*
X115423200Y-109617800D03*
X113498200Y-108793000D03*
X111860200Y-96811800D03*
X112077400Y-99054300D03*
X117618600Y-99038400D03*
X111362500Y-93475800D03*
X112463200Y-87933000D03*
X112269800Y-89717100D03*
X108264700Y-89327700D03*
X108296400Y-92102200D03*
X111307900Y-92363900D03*
%TO.N,/Second6*%
X91520300Y-117447400D03*
X96380200Y-100652800D03*
X94766600Y-117194600D03*
X93935900Y-117152300D03*
X95541200Y-117582500D03*
X99373300Y-117897500D03*
X97190600Y-117622300D03*
X90581200Y-117337400D03*
%TO.N,/Hour2*%
X99590100Y-111160700D03*
X103507800Y-101398800D03*
X102880700Y-111562500D03*
X92594100Y-111288900D03*
X92314800Y-105742300D03*
X88946300Y-105556100D03*
X87428500Y-105369800D03*
X87222600Y-97907700D03*
X86217400Y-98012300D03*
X87674100Y-92157400D03*
X92079900Y-88986000D03*
X88201400Y-90394900D03*
%TO.N,/G3*%
X104273600Y-82329000D03*
X104319700Y-83850000D03*
X105926200Y-97800100D03*
X106532300Y-94489300D03*
X105311700Y-93893700D03*
X88252100Y-108282400D03*
X105330100Y-91981800D03*
X92555600Y-83747800D03*
X93284300Y-86226600D03*
X93209000Y-91234300D03*
X88091100Y-111906800D03*
X117487000Y-98436100D03*
X119807000Y-98992300D03*
X112141200Y-94780700D03*
X87675600Y-99502100D03*
X81875500Y-102378100D03*
X85135100Y-91022700D03*
X112988200Y-98994600D03*
X85067900Y-99617700D03*
X84890500Y-100755500D03*
X108484100Y-117622000D03*
X106917800Y-117296300D03*
X118146500Y-109960800D03*
X116956000Y-110378300D03*
X113090500Y-89302500D03*
X87031800Y-99447200D03*
X86479800Y-91805900D03*
X97024800Y-116896100D03*
X99228500Y-116202900D03*
X104444500Y-116401400D03*
X98576100Y-114573800D03*
X98320300Y-112406900D03*
X94735900Y-111909800D03*
X92095200Y-112284400D03*
%TO.N,/G6*%
X89758600Y-88256000D03*
X93939000Y-88348800D03*
X108249000Y-87403800D03*
X100930100Y-87611300D03*
X100774800Y-85288000D03*
X98812500Y-85389400D03*
X108618900Y-92829000D03*
X116161800Y-93053300D03*
X118131000Y-92571400D03*
X87560600Y-87352700D03*
X87446300Y-86694500D03*
X88021300Y-88132900D03*
X87318800Y-96337800D03*
X82386100Y-96335700D03*
X95640200Y-85316000D03*
X95640200Y-86347000D03*
X94014500Y-86336000D03*
X117149100Y-103895700D03*
X112221100Y-113057700D03*
X112949500Y-115288800D03*
X108400900Y-112554600D03*
X112122500Y-115382900D03*
X111507100Y-117336200D03*
X103528700Y-103522000D03*
X109337700Y-103999200D03*
X109522900Y-111978500D03*
X90828800Y-117974300D03*
X88928000Y-117611000D03*
X88866600Y-109738400D03*
X85872400Y-109786000D03*
X85002200Y-107660900D03*
X83314600Y-108525100D03*
X102441200Y-117811200D03*
X102743400Y-119211900D03*
X107144500Y-102798000D03*
X107226100Y-92738600D03*
X107104700Y-93542100D03*
X84929000Y-96893000D03*
X86127000Y-96731600D03*
%TO.N,/Minute10*%
X93271400Y-83373400D03*
X94539100Y-82909800D03*
X90841600Y-84543100D03*
X97491600Y-84098600D03*
X94139700Y-84077400D03*
X96118300Y-83108700D03*
X100633300Y-92943600D03*
X97893700Y-92249700D03*
X89416900Y-86554600D03*
X90451000Y-85405000D03*
%TO.N,/G2*%
X105277200Y-96399600D03*
X110490600Y-88747000D03*
X110666900Y-119270200D03*
X98741500Y-119956700D03*
X108546300Y-115055200D03*
X119039900Y-96804600D03*
X117123400Y-96740600D03*
X105902600Y-96069900D03*
X91482000Y-84047800D03*
X91914700Y-86464100D03*
X102983200Y-85494100D03*
X103038200Y-87895300D03*
X109824700Y-117428400D03*
X109884200Y-95655600D03*
X104422400Y-88153100D03*
X91605700Y-89642200D03*
X99244400Y-89967400D03*
X99022000Y-88446400D03*
X102068100Y-88516000D03*
X107372400Y-88634600D03*
X117821600Y-108548800D03*
X87844800Y-115154600D03*
X88284700Y-117516900D03*
X91280700Y-92039100D03*
X93509700Y-113981000D03*
X83805700Y-93132200D03*
X85050200Y-94168000D03*
X84656200Y-103880700D03*
%TO.N,/Second2*%
X116214800Y-91505800D03*
X116224000Y-89742600D03*
X114617200Y-88546800D03*
X116219900Y-88546800D03*
X111961800Y-86293700D03*
X113321100Y-87007300D03*
X110459100Y-83919900D03*
X112704000Y-83416200D03*
X96475900Y-96377500D03*
X96125000Y-91051900D03*
X111093500Y-90003900D03*
%TO.N,/Second3*%
X118058100Y-97076300D03*
X118043400Y-101394900D03*
X117661000Y-103271200D03*
X96708400Y-97663800D03*
X118112900Y-95090900D03*
X118418300Y-93311300D03*
%TO.N,/Minute6*%
X97047500Y-114762400D03*
X94580100Y-114231300D03*
X101847600Y-105396900D03*
X99748600Y-115210400D03*
X99823500Y-112355000D03*
X101772200Y-111859500D03*
%TO.N,/Second7*%
X81768000Y-109700200D03*
X104919400Y-105357200D03*
X104322100Y-107093900D03*
X103187900Y-107535400D03*
X103355900Y-109593700D03*
X81847200Y-107942600D03*
X83538600Y-111313100D03*
X89516300Y-114689800D03*
X89033200Y-110558000D03*
X86137800Y-111916600D03*
X86725800Y-113361000D03*
X85927400Y-113699000D03*
%TO.N,Net-(J1-~{RST})*%
X109171400Y-98993000D03*
X105482700Y-98492800D03*
X104321000Y-104865600D03*
X97668200Y-105825900D03*
%TO.N,/B5*%
X112066200Y-111886300D03*
X112138000Y-108331900D03*
X115272800Y-91948800D03*
X93004800Y-116321400D03*
X89782300Y-108231700D03*
X106534800Y-86052600D03*
X106850500Y-83326500D03*
X106038300Y-88495400D03*
X108383700Y-88045000D03*
X115614800Y-89770300D03*
X94793900Y-108652600D03*
X95420300Y-104698600D03*
X111713700Y-109626700D03*
X110476200Y-104827400D03*
X111587200Y-104827400D03*
X96551100Y-88945200D03*
X116228500Y-102487500D03*
X83538600Y-110252600D03*
X112081000Y-102734100D03*
X103683700Y-108953500D03*
X102993900Y-117129100D03*
X91900600Y-118122200D03*
X113933800Y-113497900D03*
X84825200Y-108835200D03*
X83033200Y-99039700D03*
X87051100Y-94699400D03*
X86045900Y-94844500D03*
X85171900Y-98200900D03*
X85597700Y-104012200D03*
X86611200Y-104012200D03*
X86813100Y-107530500D03*
X82138000Y-99406400D03*
%TO.N,/R6*%
X88937300Y-86961700D03*
X93701500Y-87245000D03*
X89572600Y-105346500D03*
X118119000Y-91226500D03*
X96291700Y-105546700D03*
X84614300Y-96257300D03*
X89650900Y-96517200D03*
X116102700Y-92120000D03*
X81703100Y-95268000D03*
X98246100Y-80256200D03*
X110432900Y-91962100D03*
X98246100Y-82828500D03*
X108946500Y-84995700D03*
X108789300Y-98150600D03*
X108987800Y-93510300D03*
X110216300Y-93327600D03*
X113024600Y-113179700D03*
X117078700Y-103002500D03*
X111513400Y-104000800D03*
X98298100Y-87245000D03*
X109625100Y-103247300D03*
X108550900Y-99741200D03*
X110538300Y-82840800D03*
X100525900Y-110803900D03*
X100325100Y-107591200D03*
X97042600Y-107321800D03*
X82447300Y-106871800D03*
X104963100Y-111403400D03*
X104259300Y-114157200D03*
X102573300Y-114071700D03*
X102477400Y-116181500D03*
X88893100Y-106590500D03*
X100525900Y-109523100D03*
X92915700Y-109113200D03*
X92511400Y-114558600D03*
X90504600Y-115231700D03*
X107192900Y-111290500D03*
X111328500Y-111421200D03*
X85747000Y-105938800D03*
X109928100Y-111190600D03*
%TO.N,/G1*%
X102851000Y-92827300D03*
X102696000Y-88444200D03*
X100514000Y-88086800D03*
X90501300Y-87412500D03*
X89558000Y-85475100D03*
X84536700Y-95655000D03*
X82535000Y-95468900D03*
X100201000Y-82019800D03*
X100233100Y-84399800D03*
X116107800Y-105946900D03*
X118861600Y-94537000D03*
X119298600Y-105150800D03*
X90653600Y-95897800D03*
X118917700Y-106246200D03*
X82929100Y-105460500D03*
X107973800Y-93193300D03*
X108279700Y-106253700D03*
X100276600Y-117298300D03*
X100437100Y-115127100D03*
X111246200Y-114315200D03*
X109863800Y-114250600D03*
X110491300Y-106553800D03*
X100656800Y-118297500D03*
X100314700Y-87239400D03*
X90675800Y-114325200D03*
X88606400Y-116145200D03*
X96689300Y-113570900D03*
X110299300Y-90651300D03*
X107393600Y-92019600D03*
%TO.N,/G5*%
X88040500Y-89716600D03*
X94721300Y-104261300D03*
X91469100Y-104538200D03*
X86452900Y-88336700D03*
X112541400Y-101175500D03*
X93070500Y-117036400D03*
X91833600Y-116526000D03*
X91928800Y-109308900D03*
X84462000Y-109965300D03*
X117210100Y-91064200D03*
X107608600Y-84641000D03*
X106701700Y-91113400D03*
X115455000Y-91083400D03*
X88839500Y-93212000D03*
X96355600Y-82474500D03*
X96962900Y-84955100D03*
X111384200Y-96281400D03*
X111567700Y-91146800D03*
X95772300Y-92912900D03*
X106329100Y-92017100D03*
X99930200Y-92048800D03*
X99848500Y-93010100D03*
X119165000Y-103015400D03*
X117216000Y-101627900D03*
X90067800Y-93207600D03*
X113144800Y-111710400D03*
X114894400Y-112197100D03*
X113772900Y-105774500D03*
X114171500Y-101933200D03*
X110982200Y-110730500D03*
X110491300Y-105683800D03*
X110982200Y-108157600D03*
X105034800Y-108850200D03*
X104414400Y-113161100D03*
X84581600Y-98544500D03*
X88410400Y-97055800D03*
X88229100Y-93774500D03*
X82685900Y-97936000D03*
%TO.N,/Second4*%
X94756600Y-98473400D03*
X109060800Y-101945400D03*
X109101200Y-105251200D03*
X117317300Y-105543400D03*
X116863800Y-111373500D03*
X115701800Y-109013800D03*
X117313500Y-109253800D03*
X114612100Y-111295200D03*
X114521300Y-114242000D03*
X113684700Y-114196000D03*
%TO.N,/B2*%
X90975800Y-85880900D03*
X103656300Y-96773400D03*
X90986300Y-90202700D03*
X103608900Y-89954000D03*
X101007900Y-82166500D03*
X102129900Y-89873300D03*
X92867900Y-112880500D03*
X96614200Y-112727600D03*
X117609600Y-96265900D03*
X115026800Y-96099300D03*
X113733800Y-96078600D03*
X114670200Y-107480600D03*
X87007500Y-114873700D03*
X87228300Y-112938100D03*
X116278800Y-107565900D03*
X106328400Y-89486200D03*
X110180800Y-87786000D03*
X112372000Y-86887300D03*
X108130200Y-108896100D03*
X108389800Y-115863500D03*
X98081000Y-117171200D03*
X84146000Y-93767700D03*
X90203200Y-94172600D03*
X109102400Y-117225700D03*
X97117800Y-119201600D03*
X83721000Y-112728500D03*
X82573800Y-103897600D03*
X81549800Y-105083100D03*
%TO.N,/Minute2*%
X113982200Y-93190900D03*
X113993400Y-98719700D03*
X105669400Y-100852000D03*
X111426900Y-88795200D03*
X110778900Y-86936500D03*
X108932000Y-86657100D03*
%TO.N,/B6*%
X106924600Y-113195500D03*
X88784000Y-88700500D03*
X105655500Y-105089200D03*
X101369600Y-117293300D03*
X101702400Y-113784500D03*
X117740600Y-104162600D03*
X111848000Y-113672200D03*
X83579200Y-97322900D03*
X98086300Y-84698000D03*
X97332300Y-83005600D03*
X107319500Y-85622600D03*
X92975000Y-88657200D03*
X81415700Y-97090100D03*
X98057500Y-88446400D03*
X80907100Y-108020400D03*
X82318600Y-108791600D03*
X84539900Y-112146600D03*
X82644000Y-111969000D03*
X83972000Y-107576800D03*
X117160900Y-93928000D03*
X114401800Y-93928000D03*
X115161900Y-103349800D03*
X115984100Y-104183400D03*
X105434200Y-112655300D03*
X110696300Y-113932900D03*
X95848800Y-113929500D03*
X95848800Y-114875500D03*
X91504000Y-115144400D03*
X87077200Y-87965000D03*
X83751900Y-88117000D03*
X86664900Y-87182900D03*
X89608000Y-116569200D03*
X86078900Y-115846300D03*
%TO.N,/R4*%
X94968900Y-114735300D03*
X94650500Y-116454400D03*
X96893500Y-105449900D03*
X95271300Y-106648100D03*
X95396300Y-110701300D03*
X106227700Y-81089200D03*
X105816000Y-82760900D03*
X94491600Y-80100200D03*
X97284400Y-80055100D03*
X97610800Y-82266800D03*
X115888500Y-87557200D03*
X115028500Y-87899700D03*
X114015100Y-88489200D03*
X113926700Y-85178800D03*
X108492500Y-83392100D03*
X115034600Y-94086900D03*
X117633200Y-99986300D03*
X115101300Y-100074000D03*
X114021200Y-106759600D03*
X110151000Y-107277100D03*
X109896900Y-110554500D03*
X114428400Y-109861500D03*
X85627700Y-88346600D03*
X86627100Y-84195700D03*
X90030900Y-84662100D03*
X90691400Y-82298400D03*
X95246000Y-82298400D03*
X106557200Y-110038300D03*
X106042500Y-117111400D03*
X105514100Y-114081300D03*
X91068500Y-110408400D03*
X90859900Y-109205600D03*
X87723000Y-109174900D03*
X85131500Y-109998100D03*
X86685000Y-108653300D03*
X96438200Y-101953100D03*
X83855800Y-99092000D03*
X86191600Y-99117100D03*
X81015100Y-99097900D03*
%TO.N,/Minute5*%
X101832000Y-115081200D03*
X100752400Y-106106200D03*
X102973300Y-115135000D03*
X102042100Y-113174800D03*
X101201600Y-112839700D03*
X104824400Y-114929200D03*
X105227000Y-113277800D03*
X106112100Y-113436100D03*
%TO.N,/Minute4*%
X105416700Y-99661800D03*
X106712200Y-99767200D03*
X106491800Y-108178000D03*
X113124500Y-107812500D03*
X112362300Y-109952900D03*
X110361000Y-110112200D03*
%TO.N,/R1*%
X116215400Y-93776800D03*
X102546900Y-93618000D03*
X100829200Y-84686200D03*
X101776700Y-85525800D03*
X102489700Y-85993300D03*
X102195200Y-87112500D03*
X109848400Y-85801900D03*
X111470100Y-83577500D03*
X111491700Y-85627500D03*
X89319900Y-81785400D03*
X100762500Y-80918000D03*
X113535700Y-93775700D03*
X113576900Y-86194000D03*
X118799200Y-92399900D03*
X117717800Y-93116200D03*
X118242500Y-105065400D03*
X117087900Y-104929100D03*
X82353600Y-93340600D03*
X83600300Y-94082600D03*
X109101200Y-106126200D03*
X109088500Y-111105200D03*
X91281800Y-115823900D03*
X100888900Y-114224400D03*
X82268900Y-104914800D03*
X100453700Y-112399000D03*
X91229100Y-107811300D03*
X89004600Y-107873100D03*
X88638500Y-104879300D03*
X85296800Y-104914800D03*
X81135100Y-94787000D03*
X80250400Y-104645000D03*
%TO.N,/B4*%
X105219700Y-85063000D03*
X94934300Y-86459700D03*
X95486300Y-88726100D03*
X86359300Y-100814600D03*
X93908500Y-89391700D03*
X85821700Y-110592700D03*
X81897600Y-100921200D03*
X93142400Y-101552000D03*
X91666600Y-101751000D03*
X112894800Y-91233700D03*
X105560700Y-91281200D03*
X94347300Y-101579400D03*
X105163400Y-82675500D03*
X112775800Y-96158100D03*
X113395000Y-96675100D03*
X105196300Y-89978600D03*
X93980300Y-90598600D03*
X84680300Y-89595400D03*
X85831400Y-89998800D03*
X113581000Y-100832100D03*
X115646300Y-99399500D03*
X119791200Y-100080800D03*
X93366300Y-118303400D03*
X89859500Y-90708800D03*
X93951100Y-116283300D03*
X104936500Y-118812300D03*
X113667100Y-110730500D03*
%TO.N,/Minute3*%
X115083600Y-97973800D03*
X103639400Y-99080500D03*
X112061100Y-98232900D03*
X112283600Y-100522100D03*
X115385200Y-101663800D03*
%TO.N,Net-(J1-VCC)*%
X92895600Y-91846400D03*
X89133500Y-96946600D03*
X92393500Y-98502500D03*
X109197700Y-100230700D03*
X108275900Y-101500000D03*
X102653700Y-94589000D03*
X98630300Y-103500200D03*
%TO.N,Net-(J1-GND)*%
X110325000Y-96845700D03*
X96517800Y-99662100D03*
X92009500Y-93537500D03*
X92040400Y-101162400D03*
X101609000Y-94587900D03*
X98908800Y-105291500D03*
X100536700Y-103398400D03*
X96721900Y-94591100D03*
%TD*%
D24*
%TO.N,Net-(U135-PD6)*%
X98750000Y-106863600D02*
X99039200Y-106574400D01*
X98750000Y-108000000D02*
X98750000Y-106863600D01*
X103300000Y-105337700D02*
X103300000Y-104437500D01*
X103188200Y-105449500D02*
X103300000Y-105337700D01*
%TO.N,Net-(U135-PD7)*%
X103800000Y-105175200D02*
X104322100Y-105697300D01*
X103800000Y-104437500D02*
X103800000Y-105175200D01*
X101512300Y-106948300D02*
X101250000Y-106948300D01*
X102351500Y-106109100D02*
X101512300Y-106948300D01*
X101250000Y-108000000D02*
X101250000Y-106948300D01*
%TO.N,Net-(U134-SDx)*%
X90987500Y-94500000D02*
X90498300Y-94500000D01*
X90498300Y-94881800D02*
X90729000Y-95112500D01*
X90498300Y-94500000D02*
X90498300Y-94881800D01*
X94217900Y-95998100D02*
X94217900Y-95183700D01*
X94325200Y-96105400D02*
X94217900Y-95998100D01*
X94325200Y-96238500D02*
X94325200Y-96105400D01*
X95336700Y-97250000D02*
X94325200Y-96238500D01*
X95612500Y-97250000D02*
X95336700Y-97250000D01*
%TO.N,Net-(U134-SCx)*%
X91559900Y-94000000D02*
X91939500Y-94379600D01*
X90987500Y-94000000D02*
X91559900Y-94000000D01*
X95391500Y-96750000D02*
X95612500Y-96750000D01*
X94486300Y-95844800D02*
X95391500Y-96750000D01*
X94486300Y-95512200D02*
X94486300Y-95844800D01*
X94619600Y-95378900D02*
X94486300Y-95512200D01*
X94619600Y-94718100D02*
X94619600Y-95378900D01*
X94411400Y-94509900D02*
X94619600Y-94718100D01*
%TO.N,Net-(U134-INT1)*%
X92673700Y-95828000D02*
X92673700Y-96016600D01*
X92750000Y-95751700D02*
X92673700Y-95828000D01*
X100800000Y-105059100D02*
X100800000Y-104437500D01*
X100463700Y-105395400D02*
X100800000Y-105059100D01*
X92750000Y-95262500D02*
X92750000Y-95751700D01*
%TO.N,Net-(U135-PF2)*%
X98800000Y-95199000D02*
X99214400Y-94784600D01*
X98800000Y-95562500D02*
X98800000Y-95199000D01*
X103598300Y-106980200D02*
X103598300Y-108000000D01*
X103489000Y-106870900D02*
X103598300Y-106980200D01*
X104375000Y-108000000D02*
X103598300Y-108000000D01*
%TO.N,Net-(U135-PF3)*%
X108401700Y-107002500D02*
X108273600Y-106874400D01*
X108401700Y-108000000D02*
X108401700Y-107002500D01*
X107625000Y-108000000D02*
X108401700Y-108000000D01*
X100868000Y-96246000D02*
X101500100Y-96878100D01*
X99726100Y-96246000D02*
X100868000Y-96246000D01*
X99300000Y-95819900D02*
X99726100Y-96246000D01*
X99300000Y-95562500D02*
X99300000Y-95819900D01*
%TO.N,Net-(U135-PF1)*%
X98300000Y-96669600D02*
X98128100Y-96841500D01*
X98300000Y-95562500D02*
X98300000Y-96669600D01*
X95625000Y-108000000D02*
X96401700Y-108000000D01*
X96498500Y-107903200D02*
X96739400Y-107903200D01*
X96401700Y-108000000D02*
X96498500Y-107903200D01*
%TO.N,Net-(U135-PF0)*%
X92375000Y-108000000D02*
X93151700Y-108000000D01*
X93151700Y-107315600D02*
X93139900Y-107303800D01*
X93151700Y-108000000D02*
X93151700Y-107315600D01*
X97800000Y-96445000D02*
X97378400Y-96866600D01*
X97800000Y-95562500D02*
X97800000Y-96445000D01*
%TO.N,/R5*%
X88125600Y-92750000D02*
X88125600Y-92448300D01*
X95080900Y-102750000D02*
X94745100Y-103085800D01*
X95612500Y-102750000D02*
X95080900Y-102750000D01*
X114369800Y-112463500D02*
X114369800Y-112161800D01*
X116704500Y-90250000D02*
X117006200Y-90250000D01*
X96819500Y-83610600D02*
X96819500Y-83308900D01*
X96299700Y-81165200D02*
X96550600Y-81165200D01*
X96550600Y-81165200D02*
X96599900Y-81165200D01*
X96599900Y-81165200D02*
X96601400Y-81165200D01*
X87988100Y-88709300D02*
X88289800Y-88709300D01*
X86130200Y-87036500D02*
X86130200Y-86734800D01*
X88289800Y-89271900D02*
X88603100Y-89585200D01*
X88289800Y-88709300D02*
X88289800Y-89271900D01*
X103680500Y-115889400D02*
X103831400Y-115889400D01*
X93538800Y-114823500D02*
X93840500Y-114823500D01*
X108165300Y-81903600D02*
X108165300Y-81883200D01*
X107978000Y-82090900D02*
X108165300Y-81903600D01*
X107504200Y-84133500D02*
X106961200Y-84676500D01*
X107504200Y-83625600D02*
X107504200Y-84133500D01*
X107978000Y-82392600D02*
X107978000Y-82090900D01*
X96601400Y-81487200D02*
X96601400Y-81165200D01*
X96871400Y-81757200D02*
X96601400Y-81487200D01*
X112511900Y-110790700D02*
X112662800Y-110790700D01*
X112662800Y-110790700D02*
X112813600Y-110790700D01*
X112676100Y-106556600D02*
X112676100Y-106750000D01*
X112937600Y-106295100D02*
X112676100Y-106556600D01*
X112374400Y-106750000D02*
X112676100Y-106750000D01*
X96871400Y-83257000D02*
X96871400Y-81757200D01*
X96819500Y-83308900D02*
X96871400Y-83257000D01*
X97239300Y-81757200D02*
X96871400Y-81757200D01*
X112764100Y-109152200D02*
X112648700Y-109036800D01*
X112764100Y-110689400D02*
X112764100Y-109152200D01*
X112662800Y-110790700D02*
X112764100Y-110689400D01*
X103831400Y-113534000D02*
X103794900Y-113497500D01*
X103831400Y-115889400D02*
X103831400Y-113534000D01*
X112998700Y-110790700D02*
X112813600Y-110790700D01*
X114369800Y-112161800D02*
X112998700Y-110790700D01*
X88125600Y-92317000D02*
X88125600Y-92448300D01*
X88301400Y-92141200D02*
X88125600Y-92317000D01*
X88655700Y-89585200D02*
X88603100Y-89585200D01*
X92522000Y-115619400D02*
X92487900Y-115585300D01*
X92522000Y-117107400D02*
X92522000Y-115619400D01*
X88603100Y-91839500D02*
X88603100Y-89585200D01*
X88301400Y-92141200D02*
X88603100Y-91839500D01*
X93930400Y-114733600D02*
X94062200Y-114733600D01*
X93840500Y-114823500D02*
X93930400Y-114733600D01*
X83840400Y-98025300D02*
X84142100Y-98025300D01*
X114539400Y-91131900D02*
X115332300Y-90339000D01*
X114539400Y-91500000D02*
X114539400Y-91131900D01*
X117421400Y-90250000D02*
X117510400Y-90339000D01*
X117006200Y-90250000D02*
X117421400Y-90250000D01*
X119447600Y-102098700D02*
X119813100Y-102464200D01*
X119447600Y-101736000D02*
X119447600Y-102098700D01*
X116919800Y-101214500D02*
X116659600Y-101474700D01*
X117444300Y-101214500D02*
X116919800Y-101214500D01*
X117641600Y-101411800D02*
X117444300Y-101214500D01*
X117641600Y-101878600D02*
X117641600Y-101411800D01*
X117862200Y-102099200D02*
X117641600Y-101878600D01*
X119145900Y-101736000D02*
X119447600Y-101736000D01*
X86485500Y-86520500D02*
X86485500Y-86379400D01*
X86344500Y-86520500D02*
X86485500Y-86520500D01*
X86130200Y-86734800D02*
X86344500Y-86520500D01*
X84489000Y-97678400D02*
X84532700Y-97678400D01*
X84142100Y-98025300D02*
X84489000Y-97678400D01*
X83795500Y-108239200D02*
X83795500Y-109250000D01*
X83551100Y-107994800D02*
X83795500Y-108239200D01*
X83551100Y-106937600D02*
X83551100Y-107994800D01*
X83732500Y-106756200D02*
X83551100Y-106937600D01*
X85938700Y-107676400D02*
X85960600Y-107698300D01*
X85938700Y-107003300D02*
X85938700Y-107676400D01*
X85960600Y-108000000D02*
X85960600Y-107698300D01*
X104200300Y-117822100D02*
X104595200Y-117427200D01*
X104200300Y-118334800D02*
X104200300Y-117822100D01*
X82123100Y-96995000D02*
X81354100Y-97764000D01*
X82504300Y-96995000D02*
X82123100Y-96995000D01*
%TO.N,/Second9*%
X85630200Y-87036500D02*
X85328500Y-87036500D01*
X86650500Y-85630200D02*
X86734800Y-85630200D01*
X86215600Y-85195300D02*
X86650500Y-85630200D01*
X86214000Y-85195300D02*
X86215600Y-85195300D01*
X87036500Y-85630200D02*
X86734800Y-85630200D01*
X85081100Y-87283900D02*
X85081100Y-87315000D01*
X85328500Y-87036500D02*
X85081100Y-87283900D01*
X84378700Y-88017400D02*
X84378700Y-88582100D01*
X85081100Y-87315000D02*
X84378700Y-88017400D01*
X82392600Y-92022000D02*
X82137900Y-92022000D01*
X103163900Y-97149800D02*
X102849600Y-96835500D01*
X103163900Y-98159500D02*
X103163900Y-97149800D01*
X103678900Y-98674500D02*
X103163900Y-98159500D01*
X104412000Y-98674500D02*
X103678900Y-98674500D01*
X104487500Y-98750000D02*
X104412000Y-98674500D01*
X81679900Y-93878700D02*
X81679900Y-93577000D01*
X81679900Y-92480000D02*
X81679900Y-93577000D01*
X82137900Y-92022000D02*
X81679900Y-92480000D01*
X82993800Y-91119100D02*
X82392600Y-91720300D01*
X82993800Y-90250000D02*
X82993800Y-91119100D01*
X82392600Y-92022000D02*
X82392600Y-91720300D01*
X83295500Y-90250000D02*
X83144700Y-90250000D01*
X83144700Y-90250000D02*
X82993800Y-90250000D01*
X83144700Y-89514400D02*
X84077000Y-88582100D01*
X83144700Y-90250000D02*
X83144700Y-89514400D01*
X84378700Y-88582100D02*
X84077000Y-88582100D01*
%TO.N,/Hour1*%
X106750000Y-111874400D02*
X106448300Y-111874400D01*
X104884600Y-101750000D02*
X105371700Y-102237000D01*
X104487500Y-101750000D02*
X104884600Y-101750000D01*
X113750000Y-99750000D02*
X113448300Y-99750000D01*
X105901900Y-111328000D02*
X106448300Y-111874400D01*
X105901900Y-111318700D02*
X105901900Y-111328000D01*
X99750000Y-85750000D02*
X99448300Y-85750000D01*
X106750000Y-87625600D02*
X106448300Y-87625600D01*
X99448300Y-86019300D02*
X99241700Y-86225900D01*
X99448300Y-85750000D02*
X99448300Y-86019300D01*
X111874400Y-92750000D02*
X111572700Y-92750000D01*
X105371700Y-102237000D02*
X105386200Y-102222500D01*
X105765900Y-86943200D02*
X105623200Y-86943200D01*
X106448300Y-87625600D02*
X105765900Y-86943200D01*
X113050600Y-100147700D02*
X113050600Y-101937500D01*
X113448300Y-99750000D02*
X113050600Y-100147700D01*
X110960800Y-94010600D02*
X111182200Y-94232000D01*
X110960800Y-93309500D02*
X110960800Y-94010600D01*
X111520300Y-92750000D02*
X110960800Y-93309500D01*
X111572700Y-92750000D02*
X111520300Y-92750000D01*
X111874400Y-106146100D02*
X111974800Y-106045700D01*
X111874400Y-106750000D02*
X111874400Y-106146100D01*
X105931400Y-102797300D02*
X105931400Y-102798400D01*
X105930300Y-102796200D02*
X105931400Y-102797300D01*
X105930300Y-102795700D02*
X105930300Y-102796200D01*
X105371700Y-102237000D02*
X105930300Y-102795700D01*
%TO.N,/Second5*%
X110917900Y-115121300D02*
X110616200Y-115121300D01*
X109250000Y-116204500D02*
X109250000Y-115902800D01*
X107478000Y-116592400D02*
X107478000Y-117107400D01*
X107278300Y-116392700D02*
X107478000Y-116592400D01*
X110004200Y-115121300D02*
X110616200Y-115121300D01*
X109774100Y-115351400D02*
X110004200Y-115121300D01*
X109774100Y-115378700D02*
X109774100Y-115351400D01*
X109250000Y-115902800D02*
X109774100Y-115378700D01*
X109774100Y-115351400D02*
X109715300Y-115292600D01*
X105621300Y-116550700D02*
X106061100Y-116110900D01*
X105621300Y-117820100D02*
X105621300Y-116550700D01*
X103700300Y-117951400D02*
X103700300Y-118334800D01*
X103581400Y-117832500D02*
X103700300Y-117951400D01*
X101736000Y-117974300D02*
X101736000Y-118645900D01*
X101822300Y-117888000D02*
X101736000Y-117974300D01*
X94969100Y-99750000D02*
X94715300Y-100003800D01*
X95612500Y-99750000D02*
X94969100Y-99750000D01*
%TO.N,/B1*%
X99750000Y-81250000D02*
X99750000Y-81551700D01*
X99750000Y-116750000D02*
X99750000Y-117051700D01*
X99750000Y-119250000D02*
X99448300Y-119250000D01*
X90051500Y-87255700D02*
X90051500Y-86901200D01*
X89895400Y-87411800D02*
X90051500Y-87255700D01*
X110515900Y-84979000D02*
X110277600Y-84979000D01*
X110616200Y-84878700D02*
X110515900Y-84979000D01*
X110917900Y-84878700D02*
X110616200Y-84878700D01*
X99750000Y-114250000D02*
X99448300Y-114250000D01*
X88582100Y-85432700D02*
X88582100Y-84878700D01*
X89032700Y-85883300D02*
X88582100Y-85432700D01*
X117400400Y-94378700D02*
X117224800Y-94554300D01*
X117820100Y-94378700D02*
X117400400Y-94378700D01*
X115442400Y-95151200D02*
X115442400Y-95452900D01*
X99750000Y-87262900D02*
X99750000Y-86250000D01*
X99699300Y-87313600D02*
X99750000Y-87262900D01*
X99448300Y-113874400D02*
X99057900Y-113484000D01*
X99448300Y-114250000D02*
X99448300Y-113874400D01*
X116266900Y-95452900D02*
X116489300Y-95675300D01*
X115442400Y-95452900D02*
X116266900Y-95452900D01*
X99585500Y-84688300D02*
X99585500Y-83750000D01*
X99835500Y-84938300D02*
X99585500Y-84688300D01*
X99750000Y-83750000D02*
X99585500Y-83750000D01*
X99585500Y-83750000D02*
X99448300Y-83750000D01*
X99397600Y-81904100D02*
X99750000Y-81551700D01*
X99397600Y-83699300D02*
X99397600Y-81904100D01*
X99448300Y-83750000D02*
X99397600Y-83699300D01*
X81378200Y-94147900D02*
X81173900Y-93943600D01*
X81378200Y-94378700D02*
X81378200Y-94147900D01*
X81679900Y-94378700D02*
X81378200Y-94378700D01*
X103919500Y-95443000D02*
X103919500Y-94589500D01*
X103800000Y-95562500D02*
X103919500Y-95443000D01*
X81679900Y-106862900D02*
X81401800Y-107141000D01*
X81679900Y-106121300D02*
X81679900Y-106862900D01*
X115308400Y-105650500D02*
X115442400Y-105650500D01*
X115106800Y-105852100D02*
X115308400Y-105650500D01*
X115442400Y-105348800D02*
X115442400Y-105650500D01*
X117820100Y-106121300D02*
X117820100Y-106423000D01*
X110994700Y-115923000D02*
X110917900Y-115923000D01*
X111398800Y-116327100D02*
X110994700Y-115923000D01*
X117817100Y-106426000D02*
X117817100Y-106629100D01*
X117820100Y-106423000D02*
X117817100Y-106426000D01*
X90051500Y-113598800D02*
X89749800Y-113598800D01*
X84057600Y-105348800D02*
X83755900Y-105348800D01*
X88582100Y-115621300D02*
X88280400Y-115621300D01*
X99660000Y-117141700D02*
X99660000Y-117333000D01*
X99750000Y-117051700D02*
X99660000Y-117141700D01*
X109448500Y-113598800D02*
X109448500Y-113900500D01*
X89732500Y-113526700D02*
X89732500Y-110620600D01*
X89705100Y-113554100D02*
X89732500Y-113526700D01*
X99292600Y-119250000D02*
X99242300Y-119300300D01*
X99448300Y-119250000D02*
X99292600Y-119250000D01*
X89425500Y-113833700D02*
X89705100Y-113554100D01*
X89276900Y-113833700D02*
X89425500Y-113833700D01*
X88280400Y-114830200D02*
X89276900Y-113833700D01*
X88280400Y-115621300D02*
X88280400Y-114830200D01*
X89749800Y-113598800D02*
X89705100Y-113554100D01*
X83747300Y-105357400D02*
X83531700Y-105357400D01*
X83755900Y-105348800D02*
X83747300Y-105357400D01*
X108463200Y-116385700D02*
X108463200Y-116693700D01*
X109313600Y-115535300D02*
X108463200Y-116385700D01*
X109313600Y-114035400D02*
X109313600Y-115535300D01*
X109448500Y-113900500D02*
X109313600Y-114035400D01*
X110917900Y-115621300D02*
X110917900Y-115923000D01*
X109448500Y-88888000D02*
X109571100Y-89010600D01*
X109448500Y-86901200D02*
X109448500Y-88888000D01*
X83685300Y-95523500D02*
X84057600Y-95151200D01*
X83274000Y-95523500D02*
X83685300Y-95523500D01*
X82763400Y-95012900D02*
X83274000Y-95523500D01*
X82763400Y-93877800D02*
X82763400Y-95012900D01*
%TO.N,/Second8*%
X81165200Y-95799700D02*
X80863500Y-95799700D01*
X80854100Y-97764000D02*
X80854100Y-97613100D01*
X80854100Y-97613100D02*
X80854100Y-97462300D01*
X80750000Y-99750000D02*
X80750000Y-99448300D01*
X80854100Y-101736000D02*
X80854100Y-101434300D01*
X80863500Y-97452900D02*
X80863500Y-95799700D01*
X80854100Y-97462300D02*
X80863500Y-97452900D01*
X81165200Y-103700300D02*
X80863500Y-103700300D01*
X80489200Y-101434300D02*
X80854100Y-101434300D01*
X80420300Y-101365400D02*
X80489200Y-101434300D01*
X80420300Y-99778000D02*
X80420300Y-101365400D01*
X80750000Y-99448300D02*
X80420300Y-99778000D01*
X80518700Y-99217000D02*
X80750000Y-99448300D01*
X80518700Y-97948500D02*
X80518700Y-99217000D01*
X80854100Y-97613100D02*
X80518700Y-97948500D01*
X105287500Y-103811900D02*
X105287500Y-103923700D01*
X104725600Y-103250000D02*
X105287500Y-103811900D01*
X104487500Y-103250000D02*
X104725600Y-103250000D01*
X81378200Y-105566700D02*
X80937300Y-105125800D01*
X81378200Y-105621300D02*
X81378200Y-105566700D01*
X81679900Y-105621300D02*
X81378200Y-105621300D01*
X80489200Y-103700300D02*
X80863500Y-103700300D01*
X80489200Y-101434300D02*
X80489200Y-103700300D01*
X80489200Y-103913100D02*
X80382400Y-104019900D01*
X80489200Y-103700300D02*
X80489200Y-103913100D01*
%TO.N,/Second1*%
X103700300Y-81165200D02*
X103700300Y-80863500D01*
X101736000Y-80226100D02*
X101752400Y-80209700D01*
X101736000Y-80854100D02*
X101736000Y-80226100D01*
X109250000Y-83295500D02*
X108948300Y-83295500D01*
X99750000Y-80003000D02*
X99843700Y-79909300D01*
X99750000Y-80750000D02*
X99750000Y-80003000D01*
X103425600Y-80588800D02*
X103425600Y-80122200D01*
X103700300Y-80863500D02*
X103425600Y-80588800D01*
X108948300Y-83059500D02*
X108520900Y-82632100D01*
X108948300Y-83295500D02*
X108948300Y-83059500D01*
X105621300Y-80332000D02*
X105621300Y-81679900D01*
X106000400Y-79952900D02*
X105621300Y-80332000D01*
X107115400Y-82392600D02*
X106975900Y-82253100D01*
X107478000Y-82392600D02*
X107115400Y-82392600D01*
X95261900Y-97750000D02*
X94532900Y-97021000D01*
X95612500Y-97750000D02*
X95261900Y-97750000D01*
%TO.N,/Minute1*%
X101474700Y-83340400D02*
X101474700Y-83038700D01*
X99750000Y-83250000D02*
X99750000Y-82948300D01*
X99750000Y-82540400D02*
X99799400Y-82491000D01*
X99750000Y-82948300D02*
X99750000Y-82540400D01*
X106461200Y-84676500D02*
X106461200Y-84374800D01*
X106578800Y-84374800D02*
X106823000Y-84130600D01*
X106461200Y-84374800D02*
X106578800Y-84374800D01*
X103731400Y-100750000D02*
X103487600Y-100506200D01*
X104487500Y-100750000D02*
X103731400Y-100750000D01*
X106159500Y-84898000D02*
X106159500Y-84676500D01*
X105912200Y-85145300D02*
X106159500Y-84898000D01*
X106461200Y-84676500D02*
X106159500Y-84676500D01*
X101474700Y-82590000D02*
X101533400Y-82531300D01*
X101474700Y-83038700D02*
X101474700Y-82590000D01*
X103180500Y-83012600D02*
X103563500Y-82629600D01*
X103180500Y-83610600D02*
X103180500Y-83012600D01*
X104792600Y-84057600D02*
X104848800Y-84057600D01*
X104004800Y-84845400D02*
X104792600Y-84057600D01*
X104004800Y-85681500D02*
X104004800Y-84845400D01*
X108000000Y-85132100D02*
X108000000Y-85460600D01*
X108648800Y-84483300D02*
X108000000Y-85132100D01*
X108648800Y-84432100D02*
X108648800Y-84483300D01*
%TO.N,/Minute7*%
X88930400Y-111710200D02*
X89148300Y-111492300D01*
X88709300Y-111710200D02*
X88930400Y-111710200D01*
X88709300Y-112011900D02*
X88709300Y-111710200D01*
X90051500Y-111757900D02*
X90231000Y-111578400D01*
X90051500Y-113098800D02*
X90051500Y-111757900D01*
X86401200Y-109448500D02*
X86401200Y-109146800D01*
X85460600Y-108000000D02*
X85460600Y-107698300D01*
X102300000Y-103934200D02*
X101787000Y-103421200D01*
X102300000Y-104437500D02*
X102300000Y-103934200D01*
X84676500Y-106140900D02*
X85011900Y-105805500D01*
X84676500Y-106461200D02*
X84676500Y-106140900D01*
X86160100Y-106493800D02*
X86092300Y-106561600D01*
X86160100Y-105162200D02*
X86160100Y-106493800D01*
X86100300Y-105102400D02*
X86160100Y-105162200D01*
X85478200Y-107680700D02*
X85460600Y-107698300D01*
X85478200Y-106868600D02*
X85478200Y-107680700D01*
X85785200Y-106561600D02*
X85478200Y-106868600D01*
X86092300Y-106561600D02*
X85785200Y-106561600D01*
X86283300Y-109028900D02*
X86401200Y-109146800D01*
X86283300Y-108487000D02*
X86283300Y-109028900D01*
X86518700Y-108251600D02*
X86283300Y-108487000D01*
X86340500Y-106809800D02*
X86092300Y-106561600D01*
X86340500Y-108073400D02*
X86340500Y-106809800D01*
X86518700Y-108251600D02*
X86340500Y-108073400D01*
X86851400Y-108251600D02*
X86518700Y-108251600D01*
X87321300Y-108721500D02*
X86851400Y-108251600D01*
X87321300Y-109341200D02*
X87321300Y-108721500D01*
X87488100Y-109508000D02*
X87321300Y-109341200D01*
X87488100Y-110790700D02*
X87488100Y-109508000D01*
%TO.N,/Second10*%
X90250000Y-83295500D02*
X89948300Y-83295500D01*
X97764000Y-80854100D02*
X97462300Y-80854100D01*
X95799700Y-81165200D02*
X95799700Y-80863500D01*
X93878700Y-80751800D02*
X93878700Y-81679900D01*
X93618200Y-80491300D02*
X93878700Y-80751800D01*
X96921000Y-80854100D02*
X96921000Y-80644500D01*
X97462300Y-80854100D02*
X96921000Y-80854100D01*
X95809100Y-80854100D02*
X95799700Y-80863500D01*
X96921000Y-80854100D02*
X95809100Y-80854100D01*
X88582100Y-83043600D02*
X88711300Y-82914400D01*
X88582100Y-84378700D02*
X88582100Y-83043600D01*
X91508800Y-82392600D02*
X91183700Y-82717700D01*
X92022000Y-82392600D02*
X91508800Y-82392600D01*
X96800000Y-103345100D02*
X96379000Y-102924100D01*
X96800000Y-104437500D02*
X96800000Y-103345100D01*
X89746300Y-83093500D02*
X89746300Y-82974900D01*
X89948300Y-83295500D02*
X89746300Y-83093500D01*
%TO.N,/R2*%
X92000000Y-85440200D02*
X92000000Y-85158900D01*
X92000000Y-85440200D02*
X92000000Y-85460600D01*
X90750000Y-83295500D02*
X91051700Y-83295500D01*
X102640900Y-80147500D02*
X102640900Y-79882800D01*
X102236000Y-80552400D02*
X102640900Y-80147500D01*
X102236000Y-80854100D02*
X102236000Y-80552400D01*
X116389400Y-96319500D02*
X116691100Y-96319500D01*
X117161400Y-95849200D02*
X116691100Y-96319500D01*
X117161400Y-95542300D02*
X117161400Y-95849200D01*
X98264000Y-118645900D02*
X98264000Y-118344200D01*
X119136500Y-95613200D02*
X119295700Y-95454000D01*
X119136500Y-95799700D02*
X119136500Y-95613200D01*
X118834800Y-95799700D02*
X119136500Y-95799700D01*
X92000000Y-84820100D02*
X91942900Y-84763000D01*
X92000000Y-85158900D02*
X92000000Y-84820100D01*
X105108100Y-95629400D02*
X105108100Y-95580800D01*
X104487500Y-96250000D02*
X105108100Y-95629400D01*
X85176500Y-93038800D02*
X85478200Y-93038800D01*
X101974700Y-82355600D02*
X102112500Y-82217800D01*
X101974700Y-83340400D02*
X101974700Y-82355600D01*
X98525300Y-115580200D02*
X98525300Y-116159600D01*
X98325300Y-115380200D02*
X98525300Y-115580200D01*
X109750000Y-116204500D02*
X109750000Y-115902800D01*
X84786400Y-103180500D02*
X84873600Y-103267700D01*
X84110600Y-103180500D02*
X84786400Y-103180500D01*
X107774200Y-87848100D02*
X107551700Y-87625600D01*
X107774200Y-90070900D02*
X107774200Y-87848100D01*
X107759200Y-90085900D02*
X107774200Y-90070900D01*
X93250000Y-111874400D02*
X93551700Y-111874400D01*
X107250000Y-87625600D02*
X107400900Y-87625600D01*
X93627400Y-111950100D02*
X93551700Y-111874400D01*
X93773600Y-111950100D02*
X93627400Y-111950100D01*
X82892600Y-92022000D02*
X82892600Y-91720300D01*
X115652800Y-106461200D02*
X116133100Y-106941500D01*
X115323500Y-106461200D02*
X115652800Y-106461200D01*
X117607400Y-107478000D02*
X117909100Y-107478000D01*
X107525300Y-87625600D02*
X107550200Y-87625600D01*
X107550200Y-87625600D02*
X107551700Y-87625600D01*
X107400900Y-87625600D02*
X107525300Y-87625600D01*
X107550200Y-86823200D02*
X107473700Y-86746700D01*
X107550200Y-87625600D02*
X107550200Y-86823200D01*
X91416000Y-83364000D02*
X91391200Y-83388800D01*
X91942900Y-83940600D02*
X91391200Y-83388800D01*
X91942900Y-84763000D02*
X91942900Y-83940600D01*
X91297800Y-83295500D02*
X91051700Y-83295500D01*
X91391200Y-83388800D02*
X91297800Y-83295500D01*
X93773600Y-111950100D02*
X93794500Y-111929200D01*
X83231100Y-91720300D02*
X82892600Y-91720300D01*
X83316100Y-91635300D02*
X83231100Y-91720300D01*
X112963500Y-85134700D02*
X113177000Y-84921200D01*
X112963500Y-85630200D02*
X112963500Y-85134700D01*
X111280100Y-87175800D02*
X111290700Y-87186400D01*
X111280100Y-86306300D02*
X111280100Y-87175800D01*
X111290700Y-87488100D02*
X111290700Y-87186400D01*
X118465600Y-107478000D02*
X117909100Y-107478000D01*
X118636700Y-107306900D02*
X118465600Y-107478000D01*
X108500000Y-114039400D02*
X108500000Y-113737700D01*
X108855700Y-113737700D02*
X108928800Y-113664600D01*
X108500000Y-113737700D02*
X108855700Y-113737700D01*
X93805600Y-111982100D02*
X93773600Y-111950100D01*
X93805600Y-113095700D02*
X93805600Y-111982100D01*
X87838200Y-113865300D02*
X87838200Y-113869800D01*
X88203600Y-113499900D02*
X87838200Y-113865300D01*
X87536500Y-113869800D02*
X87838200Y-113869800D01*
X89511000Y-113180100D02*
X89259100Y-113432000D01*
X89511000Y-112011900D02*
X89511000Y-113180100D01*
X89209300Y-112011900D02*
X89511000Y-112011900D01*
X98052700Y-118132900D02*
X98052700Y-118087000D01*
X98264000Y-118344200D02*
X98052700Y-118132900D01*
X81665200Y-103700300D02*
X81665200Y-103398600D01*
X110241400Y-115902800D02*
X110388900Y-115755300D01*
X109750000Y-115902800D02*
X110241400Y-115902800D01*
X85810800Y-93371400D02*
X85478200Y-93038800D01*
X85810800Y-93637600D02*
X85810800Y-93371400D01*
X81966000Y-103398600D02*
X82065500Y-103299100D01*
X81665200Y-103398600D02*
X81966000Y-103398600D01*
%TO.N,/G4*%
X94378700Y-118320100D02*
X94478700Y-118320100D01*
X105348800Y-84557600D02*
X105650500Y-84557600D01*
X95151200Y-115942400D02*
X95151200Y-116244100D01*
X94378700Y-82179900D02*
X94378700Y-82481600D01*
X106121300Y-82480100D02*
X106121300Y-82481600D01*
X106121300Y-82430700D02*
X106121300Y-82480100D01*
X106121300Y-82179900D02*
X106121300Y-82430700D01*
X94963000Y-83355400D02*
X94864500Y-83453900D01*
X94963000Y-82743400D02*
X94963000Y-83355400D01*
X94701200Y-82481600D02*
X94963000Y-82743400D01*
X94378700Y-82481600D02*
X94701200Y-82481600D01*
X83750000Y-100250000D02*
X83750000Y-100551700D01*
X106259000Y-82619300D02*
X106121300Y-82481600D01*
X106259000Y-83435400D02*
X106259000Y-82619300D01*
X105857300Y-83837100D02*
X106259000Y-83435400D01*
X105857300Y-84350800D02*
X105857300Y-83837100D01*
X105650500Y-84557600D02*
X105857300Y-84350800D01*
X95151200Y-84557600D02*
X95151200Y-84859300D01*
X85321000Y-111417900D02*
X85180400Y-111417900D01*
X85483200Y-111255700D02*
X85321000Y-111417900D01*
X84878700Y-111417900D02*
X85180400Y-111417900D01*
X95152100Y-101750000D02*
X95612500Y-101750000D01*
X94036900Y-100634800D02*
X95152100Y-101750000D01*
X94036900Y-100268700D02*
X94036900Y-100634800D01*
X95168300Y-116261200D02*
X95151200Y-116244100D01*
X95168300Y-117361000D02*
X95168300Y-116261200D01*
X95133700Y-117395600D02*
X95168300Y-117361000D01*
X95133700Y-117665100D02*
X95133700Y-117395600D01*
X94478700Y-118320100D02*
X95133700Y-117665100D01*
X83545800Y-100755900D02*
X83750000Y-100551700D01*
X83211000Y-100755900D02*
X83545800Y-100755900D01*
X86901200Y-90551500D02*
X86901200Y-90853200D01*
X95056000Y-84859300D02*
X94532600Y-85382700D01*
X95151200Y-84859300D02*
X95056000Y-84859300D01*
X86901200Y-110691400D02*
X86929600Y-110719800D01*
X86901200Y-109948500D02*
X86901200Y-110691400D01*
X81250000Y-100679100D02*
X81110200Y-100818900D01*
X81250000Y-100250000D02*
X81250000Y-100679100D01*
X113900500Y-109962200D02*
X113900500Y-109948500D01*
X114527900Y-110589600D02*
X113900500Y-109962200D01*
X113598800Y-109948500D02*
X113900500Y-109948500D01*
X86250000Y-100250000D02*
X86528800Y-100250000D01*
X86586200Y-100307400D02*
X86528800Y-100250000D01*
X87273800Y-100307400D02*
X86586200Y-100307400D01*
X85152500Y-89355900D02*
X84878700Y-89082100D01*
X85152500Y-89887800D02*
X85152500Y-89355900D01*
X86117900Y-90853200D02*
X85152500Y-89887800D01*
X86881500Y-90853200D02*
X86117900Y-90853200D01*
X114250000Y-100250000D02*
X114250000Y-100551700D01*
X114250000Y-100795200D02*
X114250000Y-100551700D01*
X114384500Y-100929700D02*
X114250000Y-100795200D01*
X119250000Y-100611600D02*
X119250000Y-100250000D01*
X119522700Y-100884300D02*
X119250000Y-100611600D01*
X94378700Y-118941200D02*
X94376700Y-118943200D01*
X94378700Y-118320100D02*
X94378700Y-118941200D01*
X116584300Y-89082100D02*
X116634000Y-89032400D01*
X115621300Y-89082100D02*
X116584300Y-89082100D01*
X116784100Y-100551700D02*
X116995400Y-100763000D01*
X116750000Y-100551700D02*
X116784100Y-100551700D01*
X116750000Y-100250000D02*
X116750000Y-100551700D01*
X114583500Y-89650800D02*
X114583500Y-89478700D01*
X113682800Y-90551500D02*
X114583500Y-89650800D01*
X113598800Y-90551500D02*
X113682800Y-90551500D01*
X86901200Y-90853200D02*
X86881500Y-90853200D01*
X115618900Y-112241000D02*
X115618900Y-112237600D01*
X115621300Y-112238600D02*
X115618900Y-112241000D01*
X115621300Y-111417900D02*
X115621300Y-112238600D01*
X86629100Y-100149700D02*
X86528800Y-100250000D01*
X86629100Y-94114600D02*
X86629100Y-100149700D01*
X86881500Y-93862200D02*
X86629100Y-94114600D01*
X86881500Y-90853200D02*
X86881500Y-93862200D01*
X105348800Y-115942400D02*
X105650500Y-115942400D01*
X106121300Y-119770200D02*
X106121300Y-119727200D01*
X106565400Y-120214300D02*
X106121300Y-119770200D01*
X106121300Y-119727200D02*
X106041700Y-119727200D01*
X106121300Y-119727200D02*
X106121300Y-118320100D01*
X105794500Y-115798400D02*
X105650500Y-115942400D01*
X105794500Y-114937100D02*
X105794500Y-115798400D01*
%TO.N,/Minute8*%
X83610600Y-96319500D02*
X83308900Y-96319500D01*
X83340400Y-98025300D02*
X83340400Y-97723600D01*
X83250000Y-99750000D02*
X82948300Y-99750000D01*
X83340400Y-101474700D02*
X83038700Y-101474700D01*
X83610600Y-103180500D02*
X83610600Y-102878800D01*
X83177500Y-96450900D02*
X83308900Y-96319500D01*
X83177500Y-97560700D02*
X83177500Y-96450900D01*
X83340400Y-97723600D02*
X83177500Y-97560700D01*
X84152300Y-102878800D02*
X84582700Y-102448400D01*
X83610600Y-102878800D02*
X84152300Y-102878800D01*
X102800000Y-103635100D02*
X102510100Y-103345200D01*
X102800000Y-104437500D02*
X102800000Y-103635100D01*
X85629400Y-103246200D02*
X85629400Y-102275200D01*
X85173600Y-103702000D02*
X85629400Y-103246200D01*
X85173600Y-103949400D02*
X85173600Y-103702000D01*
X84575900Y-104547100D02*
X85173600Y-103949400D01*
X84057600Y-104547100D02*
X84575900Y-104547100D01*
X84057600Y-104848800D02*
X84057600Y-104547100D01*
X82621500Y-99423200D02*
X82948300Y-99750000D01*
X82621500Y-98667800D02*
X82621500Y-99423200D01*
X83038700Y-101809900D02*
X83038700Y-101474700D01*
X82707500Y-102141100D02*
X83038700Y-101809900D01*
X83264000Y-98025300D02*
X82621500Y-98667800D01*
X83340400Y-98025300D02*
X83264000Y-98025300D01*
X82015200Y-98667800D02*
X81891900Y-98544500D01*
X82621500Y-98667800D02*
X82015200Y-98667800D01*
X81891900Y-98544500D02*
X81938100Y-98590700D01*
X81938100Y-98590700D02*
X81891900Y-98544500D01*
X81891900Y-98544500D02*
X81893100Y-98545700D01*
X81893100Y-98545700D02*
X81891900Y-98544500D01*
%TO.N,/Minute9*%
X88709300Y-87488100D02*
X88407600Y-87488100D01*
X85460600Y-91500000D02*
X85158900Y-91500000D01*
X84676500Y-93038800D02*
X84676500Y-92737100D01*
X99800000Y-94491700D02*
X99618600Y-94310300D01*
X99800000Y-95562500D02*
X99800000Y-94491700D01*
X84057600Y-94651200D02*
X83755900Y-94651200D01*
X83755900Y-94726200D02*
X83415500Y-95066600D01*
X83755900Y-94651200D02*
X83755900Y-94726200D01*
X84676500Y-91982400D02*
X84676500Y-92480400D01*
X85158900Y-91500000D02*
X84676500Y-91982400D01*
X84676500Y-92480400D02*
X84346400Y-92480400D01*
X84676500Y-92480400D02*
X84676500Y-92737100D01*
X87488100Y-88709300D02*
X87488100Y-88407600D01*
X87186400Y-88737800D02*
X87186400Y-88709300D01*
X86817600Y-89106600D02*
X87186400Y-88737800D01*
X87488100Y-88709300D02*
X87186400Y-88709300D01*
X86401200Y-89974100D02*
X85630500Y-89203400D01*
X86401200Y-90051500D02*
X86401200Y-89974100D01*
X87488100Y-88098100D02*
X87488100Y-88407600D01*
X88098100Y-87488100D02*
X87488100Y-88098100D01*
X88407600Y-87488100D02*
X88098100Y-87488100D01*
%TO.N,/R3*%
X107978000Y-117107400D02*
X107978000Y-116805700D01*
X93538800Y-84676500D02*
X93538800Y-84374800D01*
X81354100Y-101736000D02*
X81655800Y-101736000D01*
X104200300Y-81165200D02*
X104502000Y-81165200D01*
X103680500Y-83610600D02*
X103680500Y-83308900D01*
X96819500Y-115889400D02*
X97121200Y-115889400D01*
X116704500Y-109250000D02*
X116704500Y-108948300D01*
X86130200Y-112463500D02*
X86431900Y-112463500D01*
X114539400Y-108000000D02*
X114841100Y-108000000D01*
X92522000Y-82392600D02*
X92672900Y-82392600D01*
X92672900Y-82392600D02*
X92823700Y-82392600D01*
X104200300Y-80592400D02*
X104200300Y-81165200D01*
X104198700Y-80590800D02*
X104200300Y-80592400D01*
X91745600Y-81465300D02*
X91602800Y-81465300D01*
X92672900Y-82392600D02*
X91745600Y-81465300D01*
X87988100Y-110790700D02*
X87988100Y-110489000D01*
X88022400Y-110454700D02*
X87988100Y-110489000D01*
X88022400Y-110286300D02*
X88022400Y-110454700D01*
X104054100Y-97750000D02*
X103720200Y-98083900D01*
X104487500Y-97750000D02*
X104054100Y-97750000D01*
X119447600Y-98048600D02*
X119447600Y-97764000D01*
X119767000Y-98368000D02*
X119447600Y-98048600D01*
X116659600Y-98025300D02*
X116961300Y-98025300D01*
X117120800Y-97865800D02*
X116961300Y-98025300D01*
X117120800Y-97623400D02*
X117120800Y-97865800D01*
X83840400Y-101474700D02*
X83840400Y-101173000D01*
X112676100Y-93026300D02*
X112676100Y-92750000D01*
X113055100Y-93405300D02*
X112676100Y-93026300D01*
X103861800Y-83308900D02*
X103680500Y-83308900D01*
X104675300Y-82495400D02*
X103861800Y-83308900D01*
X104675300Y-81338500D02*
X104675300Y-82495400D01*
X104502000Y-81165200D02*
X104675300Y-81338500D01*
X86702000Y-112193400D02*
X86431900Y-112463500D01*
X86721300Y-112193400D02*
X86702000Y-112193400D01*
X93483300Y-84319300D02*
X93538800Y-84374800D01*
X93483300Y-83729700D02*
X93483300Y-84319300D01*
X93702600Y-83510400D02*
X93483300Y-83729700D01*
X93702600Y-83182100D02*
X93702600Y-83510400D01*
X92913100Y-82392600D02*
X93702600Y-83182100D01*
X92823700Y-82392600D02*
X92913100Y-82392600D01*
X119145900Y-97764000D02*
X119447600Y-97764000D01*
X112374400Y-92750000D02*
X112676100Y-92750000D01*
X96299700Y-117691800D02*
X96299700Y-118334800D01*
X95570100Y-116962200D02*
X96299700Y-117691800D01*
X88125600Y-106750000D02*
X88276500Y-106750000D01*
X85960600Y-91500000D02*
X85960600Y-91198300D01*
X82697700Y-101173000D02*
X82186200Y-101684500D01*
X83840400Y-101173000D02*
X82697700Y-101173000D01*
X81707300Y-101684500D02*
X81655800Y-101736000D01*
X82186200Y-101684500D02*
X81707300Y-101684500D01*
X106961200Y-114823500D02*
X107212100Y-114823500D01*
X107212100Y-114823500D02*
X107261400Y-114823500D01*
X107261400Y-114823500D02*
X107262900Y-114823500D01*
X112511900Y-88709300D02*
X112813600Y-88709300D01*
X114868600Y-87233600D02*
X114671500Y-87036500D01*
X115063900Y-87233600D02*
X114868600Y-87233600D01*
X114369800Y-87036500D02*
X114671500Y-87036500D01*
X83795500Y-90250000D02*
X84097200Y-90250000D01*
X115762200Y-108006000D02*
X115166300Y-108006000D01*
X116704500Y-108948300D02*
X115762200Y-108006000D01*
X114847100Y-108006000D02*
X114841100Y-108000000D01*
X115166300Y-108006000D02*
X114847100Y-108006000D01*
X84875000Y-90250000D02*
X84976500Y-90351500D01*
X84097200Y-90250000D02*
X84875000Y-90250000D01*
X85113800Y-90351500D02*
X85960600Y-91198300D01*
X84976500Y-90351500D02*
X85113800Y-90351500D01*
X113023900Y-88499000D02*
X113025800Y-88499000D01*
X112813600Y-88709300D02*
X113023900Y-88499000D01*
X88125600Y-106750000D02*
X88125600Y-106448300D01*
X97263600Y-115889400D02*
X97332200Y-115820800D01*
X97121200Y-115889400D02*
X97263600Y-115889400D01*
X107262900Y-115531600D02*
X107262900Y-114823500D01*
X107474300Y-115743000D02*
X107262900Y-115531600D01*
X107357800Y-114728600D02*
X107357800Y-114263600D01*
X107262900Y-114823500D02*
X107357800Y-114728600D01*
X107978000Y-116246700D02*
X107474300Y-115743000D01*
X107978000Y-116805700D02*
X107978000Y-116246700D01*
X88617400Y-107090900D02*
X88276500Y-106750000D01*
X88617400Y-107692300D02*
X88617400Y-107090900D01*
X88602900Y-107706800D02*
X88617400Y-107692300D01*
X88602900Y-108039400D02*
X88602900Y-107706800D01*
X88646200Y-108082700D02*
X88602900Y-108039400D01*
X88646200Y-108108400D02*
X88646200Y-108082700D01*
X88653800Y-108116000D02*
X88646200Y-108108400D01*
X88653800Y-108448800D02*
X88653800Y-108116000D01*
X88646200Y-108456400D02*
X88653800Y-108448800D01*
X88646200Y-109390800D02*
X88646200Y-108456400D01*
X88022400Y-110014600D02*
X88646200Y-109390800D01*
X88022400Y-110286300D02*
X88022400Y-110014600D01*
X86989000Y-103027100D02*
X86989000Y-101939100D01*
X88125600Y-104163700D02*
X86989000Y-103027100D01*
X88125600Y-106448300D02*
X88125600Y-104163700D01*
%TO.N,/B3*%
X92022000Y-82892600D02*
X92022000Y-83194300D01*
X103700300Y-81665200D02*
X103700300Y-81966900D01*
X107478000Y-117607400D02*
X107176300Y-117607400D01*
X106461200Y-115323500D02*
X106461200Y-115625200D01*
X95253500Y-118834800D02*
X95206600Y-118787900D01*
X95799700Y-118834800D02*
X95253500Y-118834800D01*
X93038800Y-85176500D02*
X92738600Y-85176500D01*
X92738600Y-85176500D02*
X92737100Y-85176500D01*
X92738600Y-85636100D02*
X92614800Y-85759900D01*
X92738600Y-85176500D02*
X92738600Y-85636100D01*
X96319500Y-116389400D02*
X96319500Y-116691100D01*
X85630200Y-112963500D02*
X85630200Y-113265200D01*
X87488100Y-111290700D02*
X87186400Y-111290700D01*
X87005900Y-111471200D02*
X87186400Y-111290700D01*
X86986400Y-111471200D02*
X87005900Y-111471200D01*
X87625600Y-107250000D02*
X87625600Y-107551700D01*
X92737100Y-84498800D02*
X92737100Y-85176500D01*
X92153900Y-83915600D02*
X92737100Y-84498800D01*
X92153900Y-83326200D02*
X92153900Y-83915600D01*
X92022000Y-83194300D02*
X92153900Y-83326200D01*
X96172600Y-116691100D02*
X96319500Y-116691100D01*
X96172600Y-116421200D02*
X96172600Y-116691100D01*
X96143500Y-116392100D02*
X96172600Y-116421200D01*
X95959500Y-116392100D02*
X96143500Y-116392100D01*
X95681100Y-116113700D02*
X95959500Y-116392100D01*
X96172600Y-116691100D02*
X96172600Y-116914900D01*
X103136700Y-84110600D02*
X102880300Y-84110600D01*
X83648100Y-91051700D02*
X84140100Y-91543700D01*
X83295500Y-91051700D02*
X83648100Y-91051700D01*
X83295500Y-90750000D02*
X83295500Y-91051700D01*
X102845200Y-84075500D02*
X102880300Y-84110600D01*
X102845200Y-82779900D02*
X102845200Y-84075500D01*
X103658200Y-81966900D02*
X102845200Y-82779900D01*
X103700300Y-81966900D02*
X103658200Y-81966900D01*
X83340400Y-101974700D02*
X83340400Y-102276400D01*
X111874400Y-93250000D02*
X111572700Y-93250000D01*
X85460600Y-92000000D02*
X85460600Y-92301700D01*
X103136700Y-84110600D02*
X103180500Y-84110600D01*
X103180500Y-84110600D02*
X103180500Y-84412300D01*
X118645900Y-98264000D02*
X118344200Y-98264000D01*
X116159600Y-98525300D02*
X116159600Y-98827000D01*
X115555400Y-109750000D02*
X115423200Y-109617800D01*
X116204500Y-109750000D02*
X115555400Y-109750000D01*
X114039400Y-108500000D02*
X113737700Y-108500000D01*
X117746800Y-98861400D02*
X117618600Y-98861400D01*
X118344200Y-98264000D02*
X117746800Y-98861400D01*
X113737700Y-108553500D02*
X113498200Y-108793000D01*
X113737700Y-108500000D02*
X113737700Y-108553500D01*
X103569200Y-84801000D02*
X103569200Y-84991800D01*
X103180500Y-84412300D02*
X103569200Y-84801000D01*
X111501900Y-93475800D02*
X111572700Y-93405000D01*
X111362500Y-93475800D02*
X111501900Y-93475800D01*
X111572700Y-93405000D02*
X111572700Y-93250000D01*
X80854100Y-102714700D02*
X81059600Y-102920200D01*
X80854100Y-102236000D02*
X80854100Y-102714700D01*
X112980000Y-87416200D02*
X112463200Y-87933000D01*
X113447800Y-87416200D02*
X112980000Y-87416200D01*
X113568100Y-87536500D02*
X113447800Y-87416200D01*
X113869800Y-87536500D02*
X113568100Y-87536500D01*
X112063700Y-89511000D02*
X112269800Y-89717100D01*
X112011900Y-89511000D02*
X112063700Y-89511000D01*
X112011900Y-89209300D02*
X112011900Y-89511000D01*
X111576500Y-93405000D02*
X111572700Y-93405000D01*
X111585100Y-93413600D02*
X111576500Y-93405000D01*
X111585100Y-95914200D02*
X111585100Y-93413600D01*
X111860200Y-96189300D02*
X111585100Y-95914200D01*
X111860200Y-96811800D02*
X111860200Y-96189300D01*
X117618600Y-99038400D02*
X117618600Y-98861400D01*
X116194000Y-98861400D02*
X116159600Y-98827000D01*
X117618600Y-98861400D02*
X116194000Y-98861400D01*
X85722000Y-92301700D02*
X85923900Y-92503600D01*
X85460600Y-92301700D02*
X85722000Y-92301700D01*
X107085700Y-117698000D02*
X107176300Y-117607400D01*
X106751500Y-117698000D02*
X107085700Y-117698000D01*
X106751500Y-118568700D02*
X106674700Y-118645500D01*
X106751500Y-117698000D02*
X106751500Y-118568700D01*
X85201000Y-113694400D02*
X85630200Y-113265200D01*
X85201000Y-114517300D02*
X85201000Y-113694400D01*
X106462800Y-115626800D02*
X106461200Y-115625200D01*
X106462800Y-117409300D02*
X106462800Y-115626800D01*
X106751500Y-117698000D02*
X106462800Y-117409300D01*
X87725100Y-107651200D02*
X87725100Y-107958300D01*
X87625600Y-107551700D02*
X87725100Y-107651200D01*
X94799500Y-100750000D02*
X94731100Y-100681600D01*
X95612500Y-100750000D02*
X94799500Y-100750000D01*
X82976500Y-102640300D02*
X82976500Y-102918400D01*
X83340400Y-102276400D02*
X82976500Y-102640300D01*
%TO.N,/Second6*%
X92022000Y-117107400D02*
X91720300Y-117107400D01*
X95977400Y-100250000D02*
X96380200Y-100652800D01*
X95612500Y-100250000D02*
X95977400Y-100250000D01*
X93878700Y-117209500D02*
X93878700Y-117518400D01*
X93935900Y-117152300D02*
X93878700Y-117209500D01*
X95541200Y-117774600D02*
X95799700Y-118033100D01*
X95541200Y-117582500D02*
X95541200Y-117774600D01*
X95799700Y-118334800D02*
X95799700Y-118033100D01*
X99373300Y-118071600D02*
X99373300Y-117897500D01*
X99750000Y-118448300D02*
X99373300Y-118071600D01*
X99750000Y-118750000D02*
X99750000Y-118448300D01*
X97190600Y-118072500D02*
X97764000Y-118645900D01*
X97190600Y-117622300D02*
X97190600Y-118072500D01*
X91520300Y-117307400D02*
X91720300Y-117107400D01*
X91520300Y-117447400D02*
X91520300Y-117307400D01*
X93878700Y-117820100D02*
X93878700Y-117518400D01*
X90250000Y-116204500D02*
X89948300Y-116204500D01*
X90270700Y-117026900D02*
X90581200Y-117337400D01*
X89475700Y-117026900D02*
X90270700Y-117026900D01*
X89150200Y-116701400D02*
X89475700Y-117026900D01*
X89150200Y-116430800D02*
X89150200Y-116701400D01*
X89422300Y-116158700D02*
X89150200Y-116430800D01*
X89902500Y-116158700D02*
X89422300Y-116158700D01*
X89948300Y-116204500D02*
X89902500Y-116158700D01*
%TO.N,/Hour2*%
X99750000Y-113750000D02*
X99750000Y-113448300D01*
X92750000Y-111874400D02*
X92750000Y-111572700D01*
X104338700Y-101398800D02*
X103507800Y-101398800D01*
X104487500Y-101250000D02*
X104338700Y-101398800D01*
X85750000Y-99750000D02*
X85750000Y-99448300D01*
X92448300Y-88617600D02*
X92079900Y-88986000D01*
X92448300Y-87625600D02*
X92448300Y-88617600D01*
X92750000Y-87625600D02*
X92448300Y-87625600D01*
X87625600Y-92205900D02*
X87674100Y-92157400D01*
X87625600Y-92750000D02*
X87625600Y-92205900D01*
X85750000Y-98479700D02*
X86217400Y-98012300D01*
X85750000Y-99448300D02*
X85750000Y-98479700D01*
X87428500Y-106251200D02*
X87625600Y-106448300D01*
X87428500Y-105369800D02*
X87428500Y-106251200D01*
X99421800Y-113120100D02*
X99750000Y-113448300D01*
X99421800Y-111329000D02*
X99421800Y-113120100D01*
X99590100Y-111160700D02*
X99421800Y-111329000D01*
X87625600Y-106750000D02*
X87625600Y-106448300D01*
X92594100Y-111416800D02*
X92594100Y-111288900D01*
X92750000Y-111572700D02*
X92594100Y-111416800D01*
%TO.N,/G3*%
X86130200Y-112963500D02*
X86431900Y-112963500D01*
X104059100Y-84110600D02*
X103982200Y-84110600D01*
X104319700Y-83850000D02*
X104059100Y-84110600D01*
X103680500Y-84110600D02*
X103982200Y-84110600D01*
X88125600Y-107250000D02*
X88125600Y-107551700D01*
X93538800Y-85972100D02*
X93538800Y-85176500D01*
X93284300Y-86226600D02*
X93538800Y-85972100D01*
X92522000Y-82892600D02*
X92522000Y-83194300D01*
X87988100Y-111290700D02*
X87988100Y-111441500D01*
X87988100Y-111441500D02*
X87988100Y-111803800D01*
X87988100Y-111803800D02*
X88091100Y-111906800D01*
X104200300Y-82255700D02*
X104273600Y-82329000D01*
X104200300Y-81665200D02*
X104200300Y-82255700D01*
X96299700Y-118834800D02*
X96601400Y-118834800D01*
X96601400Y-116909200D02*
X96819500Y-116691100D01*
X96601400Y-118834800D02*
X96601400Y-116909200D01*
X92555600Y-83227900D02*
X92555600Y-83747800D01*
X92522000Y-83194300D02*
X92555600Y-83227900D01*
X117050500Y-98436100D02*
X117487000Y-98436100D01*
X116961300Y-98525300D02*
X117050500Y-98436100D01*
X119145900Y-98264000D02*
X119145900Y-98565700D01*
X116659600Y-98525300D02*
X116961300Y-98525300D01*
X112374400Y-94547500D02*
X112374400Y-93551700D01*
X112141200Y-94780700D02*
X112374400Y-94547500D01*
X112374400Y-93250000D02*
X112374400Y-93551700D01*
X81733400Y-102236000D02*
X81875500Y-102378100D01*
X81354100Y-102236000D02*
X81733400Y-102236000D01*
X83795500Y-90750000D02*
X84097200Y-90750000D01*
X119572500Y-98992300D02*
X119807000Y-98992300D01*
X119145900Y-98565700D02*
X119572500Y-98992300D01*
X105642100Y-98084200D02*
X105926200Y-97800100D01*
X104653300Y-98084200D02*
X105642100Y-98084200D01*
X104487500Y-98250000D02*
X104653300Y-98084200D01*
X84369900Y-91022700D02*
X85135100Y-91022700D01*
X84097200Y-90750000D02*
X84369900Y-91022700D01*
X84890500Y-101226300D02*
X84142100Y-101974700D01*
X84890500Y-100755500D02*
X84890500Y-101226300D01*
X83840400Y-101974700D02*
X84142100Y-101974700D01*
X108469500Y-117607400D02*
X108484100Y-117622000D01*
X107978000Y-117607400D02*
X108469500Y-117607400D01*
X106961200Y-115323500D02*
X106961200Y-115625200D01*
X115274200Y-110051700D02*
X116704500Y-110051700D01*
X114539400Y-109316900D02*
X115274200Y-110051700D01*
X114539400Y-108500000D02*
X114539400Y-109316900D01*
X116704500Y-110126800D02*
X116704500Y-110051700D01*
X116956000Y-110378300D02*
X116704500Y-110126800D01*
X116704500Y-110051700D02*
X116704500Y-109750000D01*
X114369800Y-87536500D02*
X114369800Y-87838200D01*
X114086600Y-87838200D02*
X114369800Y-87838200D01*
X113605000Y-88319800D02*
X114086600Y-87838200D01*
X113605000Y-88540200D02*
X113605000Y-88319800D01*
X112966600Y-89178600D02*
X113605000Y-88540200D01*
X112966600Y-89178600D02*
X113090500Y-89302500D01*
X112935900Y-89209300D02*
X112966600Y-89178600D01*
X112511900Y-89209300D02*
X112935900Y-89209300D01*
X86456400Y-91805900D02*
X86262300Y-92000000D01*
X86479800Y-91805900D02*
X86456400Y-91805900D01*
X85960600Y-92000000D02*
X86262300Y-92000000D01*
X86524900Y-112963500D02*
X86431900Y-112963500D01*
X87684600Y-111803800D02*
X86524900Y-112963500D01*
X87988100Y-111803800D02*
X87684600Y-111803800D01*
X106876600Y-117255100D02*
X106917800Y-117296300D01*
X106876600Y-115709800D02*
X106876600Y-117255100D01*
X106961200Y-115625200D02*
X106876600Y-115709800D01*
X96819500Y-116389400D02*
X96819500Y-116540200D01*
X96819500Y-116540200D02*
X96819500Y-116691100D01*
X97024800Y-116745500D02*
X97024800Y-116896100D01*
X96819500Y-116540200D02*
X97024800Y-116745500D01*
X99228500Y-115226200D02*
X98576100Y-114573800D01*
X99228500Y-116202900D02*
X99228500Y-115226200D01*
X88252100Y-107678200D02*
X88252100Y-108282400D01*
X88125600Y-107551700D02*
X88252100Y-107678200D01*
%TO.N,/G6*%
X98264000Y-81354100D02*
X98264000Y-81655800D01*
X109750000Y-83795500D02*
X109750000Y-84097200D01*
X89209300Y-87988100D02*
X89511000Y-87988100D01*
X98525300Y-83840400D02*
X98827000Y-83840400D01*
X108500000Y-85960600D02*
X108650900Y-85960600D01*
X108650900Y-85960600D02*
X108801700Y-85960600D01*
X118834800Y-104200300D02*
X118834800Y-104502000D01*
X109750000Y-85012300D02*
X109750000Y-84097200D01*
X108801700Y-85960600D02*
X109750000Y-85012300D01*
X115676300Y-93538800D02*
X115323500Y-93538800D01*
X116161800Y-93053300D02*
X115676300Y-93538800D01*
X98812500Y-84429300D02*
X98525300Y-84142100D01*
X98812500Y-85389400D02*
X98812500Y-84429300D01*
X98525300Y-83840400D02*
X98525300Y-84142100D01*
X117958500Y-92571400D02*
X118131000Y-92571400D01*
X117909100Y-92522000D02*
X117958500Y-92571400D01*
X117607400Y-92522000D02*
X117909100Y-92522000D01*
X89758600Y-88235700D02*
X89758600Y-88256000D01*
X89511000Y-87988100D02*
X89758600Y-88235700D01*
X92000000Y-115756200D02*
X92000000Y-114539400D01*
X91051700Y-116704500D02*
X92000000Y-115756200D01*
X87446300Y-86522100D02*
X87536500Y-86431900D01*
X87446300Y-86694500D02*
X87446300Y-86522100D01*
X82002900Y-96335700D02*
X81966900Y-96299700D01*
X82386100Y-96335700D02*
X82002900Y-96335700D01*
X81665200Y-96299700D02*
X81966900Y-96299700D01*
X116389400Y-103680500D02*
X116691100Y-103680500D01*
X98827000Y-82218800D02*
X98264000Y-81655800D01*
X98827000Y-83840400D02*
X98827000Y-82218800D01*
X93715800Y-88125600D02*
X93939000Y-88348800D01*
X93250000Y-88125600D02*
X93715800Y-88125600D01*
X117149100Y-104176400D02*
X117149100Y-103895700D01*
X117574200Y-104601500D02*
X117149100Y-104176400D01*
X118735300Y-104601500D02*
X117574200Y-104601500D01*
X118834800Y-104502000D02*
X118735300Y-104601500D01*
X111290700Y-112511900D02*
X111592400Y-112511900D01*
X112963500Y-115274800D02*
X112949500Y-115288800D01*
X112963500Y-114369800D02*
X112963500Y-115274800D01*
X107250000Y-112374400D02*
X107551700Y-112374400D01*
X103528700Y-103470700D02*
X103528700Y-103522000D01*
X104249400Y-102750000D02*
X103528700Y-103470700D01*
X104487500Y-102750000D02*
X104249400Y-102750000D01*
X90750000Y-116704500D02*
X90900900Y-116704500D01*
X90900900Y-116704500D02*
X91051700Y-116704500D01*
X108220700Y-112374400D02*
X107551700Y-112374400D01*
X108400900Y-112554600D02*
X108220700Y-112374400D01*
X85176500Y-106961200D02*
X85176500Y-107262900D01*
X82892600Y-107978000D02*
X82892600Y-108279700D01*
X101974700Y-116659600D02*
X102276400Y-116659600D01*
X102236000Y-119145900D02*
X102537700Y-119145900D01*
X102603700Y-119211900D02*
X102537700Y-119145900D01*
X102743400Y-119211900D02*
X102603700Y-119211900D01*
X107226100Y-93420700D02*
X107104700Y-93542100D01*
X107226100Y-92738600D02*
X107226100Y-93420700D01*
X90982900Y-116786500D02*
X90900900Y-116704500D01*
X90982900Y-117820200D02*
X90982900Y-116786500D01*
X90828800Y-117974300D02*
X90982900Y-117820200D01*
X116906300Y-103895700D02*
X117149100Y-103895700D01*
X116691100Y-103680500D02*
X116906300Y-103895700D01*
X84110600Y-96819500D02*
X84412300Y-96819500D01*
X87536500Y-86130200D02*
X87536500Y-86431900D01*
X84855500Y-96819500D02*
X84929000Y-96893000D01*
X84412300Y-96819500D02*
X84855500Y-96819500D01*
X108249000Y-86362500D02*
X108249000Y-87403800D01*
X108650900Y-85960600D02*
X108249000Y-86362500D01*
X112138200Y-113057700D02*
X112221100Y-113057700D01*
X111592400Y-112511900D02*
X112138200Y-113057700D01*
X83069200Y-108279700D02*
X83314600Y-108525100D01*
X82892600Y-108279700D02*
X83069200Y-108279700D01*
X102276400Y-117646400D02*
X102441200Y-117811200D01*
X102276400Y-116659600D02*
X102276400Y-117646400D01*
X85176500Y-107486600D02*
X85002200Y-107660900D01*
X85176500Y-107262900D02*
X85176500Y-107486600D01*
%TO.N,/Minute10*%
X94651200Y-84057600D02*
X94349500Y-84057600D01*
X91500000Y-85460600D02*
X91500000Y-85158900D01*
X94349500Y-83099400D02*
X94349500Y-84057600D01*
X94539100Y-82909800D02*
X94349500Y-83099400D01*
X98025300Y-83340400D02*
X97723600Y-83340400D01*
X96319500Y-83610600D02*
X96319500Y-83308900D01*
X96119300Y-83108700D02*
X96118300Y-83108700D01*
X96319500Y-83308900D02*
X96119300Y-83108700D01*
X89570300Y-86401200D02*
X89416900Y-86554600D01*
X90051500Y-86401200D02*
X89570300Y-86401200D01*
X100300000Y-94172700D02*
X100300000Y-95562500D01*
X100043800Y-93916500D02*
X100300000Y-94172700D01*
X100043800Y-93533100D02*
X100043800Y-93916500D01*
X100633300Y-92943600D02*
X100043800Y-93533100D01*
X91457400Y-85158900D02*
X90841600Y-84543100D01*
X91500000Y-85158900D02*
X91457400Y-85158900D01*
X93038800Y-83606000D02*
X93271400Y-83373400D01*
X93038800Y-84676500D02*
X93038800Y-83606000D01*
X94329700Y-84077400D02*
X94349500Y-84057600D01*
X94139700Y-84077400D02*
X94329700Y-84077400D01*
X97491600Y-83572400D02*
X97491600Y-84098600D01*
X97723600Y-83340400D02*
X97491600Y-83572400D01*
%TO.N,/G2*%
X112963500Y-86130200D02*
X112963500Y-86431900D01*
X102236000Y-81354100D02*
X102236000Y-81655800D01*
X111290700Y-87988100D02*
X111290700Y-88289800D01*
X110833500Y-88747000D02*
X110490600Y-88747000D01*
X111290700Y-88289800D02*
X110833500Y-88747000D01*
X98264000Y-119145900D02*
X98565700Y-119145900D01*
X111290700Y-87988100D02*
X111592400Y-87988100D01*
X104926800Y-96750000D02*
X105277200Y-96399600D01*
X104487500Y-96750000D02*
X104926800Y-96750000D01*
X98525300Y-116659600D02*
X98525300Y-116961300D01*
X98565700Y-119780900D02*
X98565700Y-119145900D01*
X98741500Y-119956700D02*
X98565700Y-119780900D01*
X108500000Y-114539400D02*
X108500000Y-114841100D01*
X116389400Y-96819500D02*
X116691100Y-96819500D01*
X118836700Y-96601400D02*
X119039900Y-96804600D01*
X118834800Y-96601400D02*
X118836700Y-96601400D01*
X118834800Y-96299700D02*
X118834800Y-96601400D01*
X92000000Y-86378800D02*
X92000000Y-85960600D01*
X91914700Y-86464100D02*
X92000000Y-86378800D01*
X90750000Y-83795500D02*
X91051700Y-83795500D01*
X101974700Y-83840400D02*
X102255600Y-83840400D01*
X109824700Y-117080900D02*
X109750000Y-117006200D01*
X109824700Y-117428400D02*
X109824700Y-117080900D01*
X109750000Y-116704500D02*
X109750000Y-117006200D01*
X91304000Y-84047800D02*
X91482000Y-84047800D01*
X91051700Y-83795500D02*
X91304000Y-84047800D01*
X102514200Y-81934000D02*
X102236000Y-81655800D01*
X102514200Y-83581800D02*
X102514200Y-81934000D01*
X102255600Y-83840400D02*
X102514200Y-83581800D01*
X115323500Y-106961200D02*
X115625200Y-106961200D01*
X117607400Y-107978000D02*
X117607400Y-108279700D01*
X117607400Y-108334600D02*
X117821600Y-108548800D01*
X117607400Y-108279700D02*
X117607400Y-108334600D01*
X87536500Y-114369800D02*
X87687400Y-114369800D01*
X98565700Y-117001700D02*
X98525300Y-116961300D01*
X98565700Y-119145900D02*
X98565700Y-117001700D01*
X107250000Y-88125600D02*
X107250000Y-88427300D01*
X102983200Y-84568000D02*
X102983200Y-85494100D01*
X102255600Y-83840400D02*
X102983200Y-84568000D01*
X116424600Y-108279700D02*
X117607400Y-108279700D01*
X115625200Y-107480300D02*
X116424600Y-108279700D01*
X115625200Y-106961200D02*
X115625200Y-107480300D01*
X93250000Y-112374400D02*
X93250000Y-112676100D01*
X107372400Y-88549700D02*
X107250000Y-88427300D01*
X107372400Y-88634600D02*
X107372400Y-88549700D01*
X111840200Y-87988100D02*
X111592400Y-87988100D01*
X112788900Y-87039400D02*
X111840200Y-87988100D01*
X112788900Y-86606500D02*
X112788900Y-87039400D01*
X112963500Y-86431900D02*
X112788900Y-86606500D01*
X117044500Y-96819500D02*
X117123400Y-96740600D01*
X116691100Y-96819500D02*
X117044500Y-96819500D01*
X83195500Y-92522000D02*
X82892600Y-92522000D01*
X83805700Y-93132200D02*
X83195500Y-92522000D01*
X87687400Y-114997200D02*
X87844800Y-115154600D01*
X87687400Y-114369800D02*
X87687400Y-114997200D01*
X87901800Y-114369800D02*
X87687400Y-114369800D01*
X88857400Y-113414200D02*
X87901800Y-114369800D01*
X88857400Y-113265700D02*
X88857400Y-113414200D01*
X89209300Y-112913800D02*
X88857400Y-113265700D01*
X89209300Y-112511900D02*
X89209300Y-112913800D01*
X85176500Y-94041700D02*
X85176500Y-93538800D01*
X85050200Y-94168000D02*
X85176500Y-94041700D01*
X81665200Y-104200300D02*
X81966900Y-104200300D01*
X108500000Y-115008900D02*
X108546300Y-115055200D01*
X108500000Y-114841100D02*
X108500000Y-115008900D01*
X84110600Y-103680500D02*
X84110600Y-103963900D01*
X84110600Y-103963900D02*
X84110600Y-103982200D01*
X93269600Y-112695700D02*
X93250000Y-112676100D01*
X93269600Y-113740900D02*
X93269600Y-112695700D01*
X93509700Y-113981000D02*
X93269600Y-113740900D01*
X83793500Y-104299300D02*
X84110600Y-103982200D01*
X82065900Y-104299300D02*
X83793500Y-104299300D01*
X81966900Y-104200300D02*
X82065900Y-104299300D01*
X84573000Y-103963900D02*
X84110600Y-103963900D01*
X84656200Y-103880700D02*
X84573000Y-103963900D01*
%TO.N,/Second2*%
X116214800Y-91505900D02*
X116214800Y-91505800D01*
X116289600Y-91505900D02*
X116214800Y-91505900D01*
X116805700Y-92022000D02*
X116289600Y-91505900D01*
X117107400Y-92022000D02*
X116805700Y-92022000D01*
X114652500Y-88582100D02*
X114617200Y-88546800D01*
X115121300Y-88582100D02*
X114652500Y-88582100D01*
X113538900Y-87007300D02*
X113321100Y-87007300D01*
X113568100Y-87036500D02*
X113538900Y-87007300D01*
X113869800Y-87036500D02*
X113568100Y-87036500D01*
X110917900Y-84378700D02*
X110917900Y-84077000D01*
X111961800Y-85830200D02*
X112161800Y-85630200D01*
X111961800Y-86293700D02*
X111961800Y-85830200D01*
X116224000Y-89928800D02*
X116204500Y-89948300D01*
X116224000Y-89742600D02*
X116224000Y-89928800D01*
X112463500Y-83656700D02*
X112704000Y-83416200D01*
X112463500Y-85630200D02*
X112463500Y-83656700D01*
X110616200Y-84077000D02*
X110459100Y-83919900D01*
X110917900Y-84077000D02*
X110616200Y-84077000D01*
X112463500Y-85630200D02*
X112161800Y-85630200D01*
X116204500Y-90250000D02*
X116204500Y-89948300D01*
X96178100Y-96675300D02*
X96475900Y-96377500D01*
X96178100Y-97922500D02*
X96178100Y-96675300D01*
X95850600Y-98250000D02*
X96178100Y-97922500D01*
X95612500Y-98250000D02*
X95850600Y-98250000D01*
%TO.N,/Second3*%
X118645900Y-97764000D02*
X118344200Y-97764000D01*
X118750000Y-99750000D02*
X118448300Y-99750000D01*
X118645900Y-101736000D02*
X118645900Y-101434300D01*
X118334800Y-103700300D02*
X118033100Y-103700300D01*
X118058100Y-97477900D02*
X118058100Y-97076300D01*
X118344200Y-97764000D02*
X118058100Y-97477900D01*
X95858400Y-98750000D02*
X95612500Y-98750000D01*
X96708400Y-97900000D02*
X95858400Y-98750000D01*
X96708400Y-97663800D02*
X96708400Y-97900000D01*
X117820100Y-93878700D02*
X117820100Y-93577000D01*
X118152600Y-93577000D02*
X117820100Y-93577000D01*
X118418300Y-93311300D02*
X118152600Y-93577000D01*
X118334800Y-95799700D02*
X118334800Y-95498000D01*
X118448300Y-99750000D02*
X118448300Y-101279000D01*
X118490600Y-101279000D02*
X118448300Y-101279000D01*
X118645900Y-101434300D02*
X118490600Y-101279000D01*
X118112900Y-95276100D02*
X118334800Y-95498000D01*
X118112900Y-95090900D02*
X118112900Y-95276100D01*
X117661000Y-103328200D02*
X117661000Y-103271200D01*
X118033100Y-103700300D02*
X117661000Y-103328200D01*
X118159300Y-101279000D02*
X118043400Y-101394900D01*
X118448300Y-101279000D02*
X118159300Y-101279000D01*
%TO.N,/Minute6*%
X94651200Y-115442400D02*
X94651200Y-115140700D01*
X93038800Y-114823500D02*
X93038800Y-114521800D01*
X91500000Y-114039400D02*
X91500000Y-113737700D01*
X96319500Y-115490400D02*
X97047500Y-114762400D01*
X96319500Y-115889400D02*
X96319500Y-115490400D01*
X93754900Y-114303900D02*
X94557900Y-114303900D01*
X93537000Y-114521800D02*
X93754900Y-114303900D01*
X93038800Y-114521800D02*
X93537000Y-114521800D01*
X94557900Y-114253500D02*
X94557900Y-114303900D01*
X94580100Y-114231300D02*
X94557900Y-114253500D01*
X94557900Y-115047400D02*
X94651200Y-115140700D01*
X94557900Y-114303900D02*
X94557900Y-115047400D01*
X101847600Y-104485100D02*
X101847600Y-105396900D01*
X101800000Y-104437500D02*
X101847600Y-104485100D01*
X99748600Y-115946900D02*
X99748600Y-115210400D01*
X99750000Y-115948300D02*
X99748600Y-115946900D01*
X99750000Y-116250000D02*
X99750000Y-115948300D01*
X98025300Y-115740200D02*
X98025300Y-116159600D01*
X97047500Y-114762400D02*
X98025300Y-115740200D01*
X92258600Y-113737700D02*
X91500000Y-113737700D01*
X93038800Y-114517900D02*
X92258600Y-113737700D01*
X93038800Y-114521800D02*
X93038800Y-114517900D01*
%TO.N,/Second7*%
X83295500Y-109250000D02*
X82993800Y-109250000D01*
X82543600Y-109700200D02*
X82993800Y-109250000D01*
X81768000Y-109700200D02*
X82543600Y-109700200D01*
X104919400Y-104181900D02*
X104919400Y-105357200D01*
X104487500Y-103750000D02*
X104919400Y-104181900D01*
X82090900Y-107698900D02*
X81847200Y-107942600D01*
X82090900Y-107478000D02*
X82090900Y-107698900D01*
X82392600Y-107478000D02*
X82090900Y-107478000D01*
X83933800Y-110917900D02*
X83538600Y-111313100D01*
X84378700Y-110917900D02*
X83933800Y-110917900D01*
X88582100Y-115121300D02*
X88582100Y-114819600D01*
X85892600Y-112161800D02*
X86137800Y-111916600D01*
X85630200Y-112161800D02*
X85892600Y-112161800D01*
X85630200Y-112463500D02*
X85630200Y-112161800D01*
X89386500Y-114819600D02*
X89516300Y-114689800D01*
X88582100Y-114819600D02*
X89386500Y-114819600D01*
X86932900Y-113568100D02*
X86725800Y-113361000D01*
X87036500Y-113568100D02*
X86932900Y-113568100D01*
X87036500Y-113869800D02*
X87036500Y-113568100D01*
%TO.N,Net-(J1-~{RST})*%
X109664400Y-98500000D02*
X109171400Y-98993000D01*
X110325000Y-98500000D02*
X109664400Y-98500000D01*
X97668200Y-104569300D02*
X97800000Y-104437500D01*
X97668200Y-105825900D02*
X97668200Y-104569300D01*
%TO.N,/B5*%
X114039400Y-92000000D02*
X114039400Y-92301700D01*
X118645900Y-102236000D02*
X118344200Y-102236000D01*
X116159600Y-101974700D02*
X116159600Y-102276400D01*
X116204500Y-90750000D02*
X116204500Y-91051700D01*
X112011900Y-111290700D02*
X112011900Y-111592400D01*
X103180500Y-116389400D02*
X103180500Y-116691100D01*
X93038800Y-116287400D02*
X93004800Y-116321400D01*
X93038800Y-115323500D02*
X93038800Y-116287400D01*
X114919900Y-92301700D02*
X114039400Y-92301700D01*
X115272800Y-91948800D02*
X114919900Y-92301700D01*
X87488100Y-89209300D02*
X87488100Y-89511000D01*
X112011900Y-111832000D02*
X112011900Y-111592400D01*
X112066200Y-111886300D02*
X112011900Y-111832000D01*
X95799700Y-81665200D02*
X95799700Y-81966900D01*
X106850500Y-83218400D02*
X107176300Y-82892600D01*
X106850500Y-83326500D02*
X106850500Y-83218400D01*
X107478000Y-82892600D02*
X107176300Y-82892600D01*
X116204500Y-91051700D02*
X116100900Y-91051700D01*
X115272800Y-91879800D02*
X115272800Y-91948800D01*
X116100900Y-91051700D02*
X115272800Y-91879800D01*
X95612500Y-104506400D02*
X95612500Y-103750000D01*
X95420300Y-104698600D02*
X95612500Y-104506400D01*
X85630200Y-87536500D02*
X85630200Y-87838200D01*
X96319500Y-84110600D02*
X96168700Y-84110600D01*
X96168700Y-84110600D02*
X96017800Y-84110600D01*
X106461200Y-85979000D02*
X106534800Y-86052600D01*
X106461200Y-85176500D02*
X106461200Y-85979000D01*
X83496400Y-110252600D02*
X83295500Y-110051700D01*
X83538600Y-110252600D02*
X83496400Y-110252600D01*
X83295500Y-109750000D02*
X83295500Y-110051700D01*
X103700300Y-118834800D02*
X103398600Y-118834800D01*
X110325000Y-104676200D02*
X110476200Y-104827400D01*
X110325000Y-102500000D02*
X110325000Y-104676200D01*
X96551100Y-84493000D02*
X96168700Y-84110600D01*
X96551100Y-88945200D02*
X96551100Y-84493000D01*
X87625600Y-93250000D02*
X87323900Y-93250000D01*
X87061200Y-89524700D02*
X87267800Y-89731300D01*
X86667700Y-89524700D02*
X87061200Y-89524700D01*
X86415900Y-89272900D02*
X86667700Y-89524700D01*
X86415900Y-89135500D02*
X86415900Y-89272900D01*
X86029400Y-88749000D02*
X86415900Y-89135500D01*
X86029400Y-88178600D02*
X86029400Y-88749000D01*
X85689000Y-87838200D02*
X86029400Y-88178600D01*
X85630200Y-87838200D02*
X85689000Y-87838200D01*
X87488100Y-89511000D02*
X87267800Y-89731300D01*
X92022000Y-118000800D02*
X92022000Y-117607400D01*
X91900600Y-118122200D02*
X92022000Y-118000800D01*
X111874400Y-108068300D02*
X111874400Y-107250000D01*
X112138000Y-108331900D02*
X111874400Y-108068300D01*
X115734000Y-89889500D02*
X115614800Y-89770300D01*
X115734000Y-90429000D02*
X115734000Y-89889500D01*
X116100900Y-90795900D02*
X115734000Y-90429000D01*
X116100900Y-91051700D02*
X116100900Y-90795900D01*
X116228500Y-102345300D02*
X116159600Y-102276400D01*
X116228500Y-102487500D02*
X116228500Y-102345300D01*
X118079300Y-102500900D02*
X118344200Y-102236000D01*
X116241900Y-102500900D02*
X118079300Y-102500900D01*
X116228500Y-102487500D02*
X116241900Y-102500900D01*
X95697000Y-82069600D02*
X95799700Y-81966900D01*
X95697000Y-83789800D02*
X95697000Y-82069600D01*
X96017800Y-84110600D02*
X95697000Y-83789800D01*
X113869800Y-112963500D02*
X113869800Y-113265200D01*
X113933800Y-113329200D02*
X113933800Y-113497900D01*
X113869800Y-113265200D02*
X113933800Y-113329200D01*
X85460600Y-108500000D02*
X85158900Y-108500000D01*
X83340400Y-98525300D02*
X83340400Y-98827000D01*
X103179700Y-118615900D02*
X103398600Y-118834800D01*
X103179700Y-117129100D02*
X103179700Y-118615900D01*
X103180500Y-117128300D02*
X103179700Y-117129100D01*
X103180500Y-116691100D02*
X103180500Y-117128300D01*
X103179700Y-117129100D02*
X102993900Y-117129100D01*
X84825200Y-108833600D02*
X84825200Y-108835200D01*
X84825300Y-108833600D02*
X84825200Y-108833600D01*
X85158900Y-108500000D02*
X84825300Y-108833600D01*
X87267800Y-93250000D02*
X87323900Y-93250000D01*
X87267800Y-89731300D02*
X87267800Y-93250000D01*
X87267800Y-94482700D02*
X87051100Y-94699400D01*
X87267800Y-93250000D02*
X87267800Y-94482700D01*
X83245900Y-98827000D02*
X83033200Y-99039700D01*
X83340400Y-98827000D02*
X83245900Y-98827000D01*
X80854100Y-98264000D02*
X80854100Y-98565700D01*
X81295700Y-98565700D02*
X82136400Y-99406400D01*
X80854100Y-98565700D02*
X81295700Y-98565700D01*
X82136400Y-99406400D02*
X82138000Y-99406400D01*
X82138000Y-99406400D02*
X82138000Y-99404800D01*
X82138000Y-99404800D02*
X82138000Y-99406400D01*
%TO.N,/R6*%
X87536500Y-85630200D02*
X87838200Y-85630200D01*
X89209300Y-87488100D02*
X89209300Y-87186400D01*
X93250000Y-87625600D02*
X93551700Y-87625600D01*
X89162000Y-87186400D02*
X89209300Y-87186400D01*
X88937300Y-86961700D02*
X89162000Y-87186400D01*
X117607400Y-92022000D02*
X117909100Y-92022000D01*
X117909100Y-91436400D02*
X118119000Y-91226500D01*
X117909100Y-92022000D02*
X117909100Y-91436400D01*
X93701500Y-87475800D02*
X93551700Y-87625600D01*
X93701500Y-87245000D02*
X93701500Y-87475800D01*
X84110600Y-96319500D02*
X84412300Y-96319500D01*
X88937300Y-86729300D02*
X87838200Y-85630200D01*
X88937300Y-86961700D02*
X88937300Y-86729300D01*
X115323500Y-93038800D02*
X115625200Y-93038800D01*
X84474500Y-96257300D02*
X84614300Y-96257300D01*
X84412300Y-96319500D02*
X84474500Y-96257300D01*
X81665200Y-95799700D02*
X81665200Y-95498000D01*
X81665200Y-95305900D02*
X81703100Y-95268000D01*
X81665200Y-95498000D02*
X81665200Y-95305900D01*
X98264000Y-80248800D02*
X98264000Y-80854100D01*
X98246100Y-80230900D02*
X98264000Y-80248800D01*
X98246100Y-80256200D02*
X98246100Y-80230900D01*
X115625200Y-92597500D02*
X116102700Y-92120000D01*
X115625200Y-93038800D02*
X115625200Y-92597500D01*
X96300000Y-105538400D02*
X96291700Y-105546700D01*
X96300000Y-104437500D02*
X96300000Y-105538400D01*
X118834800Y-103700300D02*
X118834800Y-103398600D01*
X116389400Y-103180500D02*
X116691100Y-103180500D01*
X98525300Y-83340400D02*
X98525300Y-83038700D01*
X108783300Y-85158900D02*
X108946500Y-84995700D01*
X108500000Y-85158900D02*
X108783300Y-85158900D01*
X108500000Y-85460600D02*
X108500000Y-85158900D01*
X98315100Y-82828500D02*
X98246100Y-82828500D01*
X98525300Y-83038700D02*
X98315100Y-82828500D01*
X108769700Y-99319000D02*
X108871400Y-99420700D01*
X108769700Y-98170200D02*
X108769700Y-99319000D01*
X108789300Y-98150600D02*
X108769700Y-98170200D01*
X110110400Y-100500000D02*
X110325000Y-100500000D01*
X109031100Y-99420700D02*
X110110400Y-100500000D01*
X108871400Y-99420700D02*
X109031100Y-99420700D01*
X108550900Y-99741200D02*
X108871400Y-99420700D01*
X110083600Y-83295500D02*
X110051700Y-83295500D01*
X110538300Y-82840800D02*
X110083600Y-83295500D01*
X109750000Y-83295500D02*
X110051700Y-83295500D01*
X101974700Y-116159600D02*
X102276400Y-116159600D01*
X102236000Y-118645900D02*
X102236000Y-118344200D01*
X82751800Y-107176300D02*
X82447300Y-106871800D01*
X82892600Y-107176300D02*
X82751800Y-107176300D01*
X82892600Y-107478000D02*
X82892600Y-107176300D01*
X116900700Y-103180500D02*
X116691100Y-103180500D01*
X117078700Y-103002500D02*
X116900700Y-103180500D01*
X113024600Y-113507000D02*
X112963500Y-113568100D01*
X113024600Y-113179700D02*
X113024600Y-113507000D01*
X117211700Y-102869500D02*
X117078700Y-103002500D01*
X118305700Y-102869500D02*
X117211700Y-102869500D01*
X118834800Y-103398600D02*
X118305700Y-102869500D01*
X112963500Y-113869800D02*
X112963500Y-113568100D01*
X92014500Y-114039400D02*
X92000000Y-114039400D01*
X92511400Y-114536300D02*
X92014500Y-114039400D01*
X92511400Y-114558600D02*
X92511400Y-114536300D01*
X90750000Y-115858000D02*
X90750000Y-116204500D01*
X90504600Y-115612600D02*
X90750000Y-115858000D01*
X90504600Y-115231700D02*
X90504600Y-115612600D01*
X102387900Y-116271000D02*
X102477400Y-116181500D01*
X102276400Y-116159600D02*
X102387900Y-116271000D01*
X102477900Y-118344200D02*
X102236000Y-118344200D01*
X102846300Y-117975800D02*
X102477900Y-118344200D01*
X102846300Y-117643000D02*
X102846300Y-117975800D01*
X102574100Y-117370800D02*
X102846300Y-117643000D01*
X102574100Y-116457300D02*
X102574100Y-117370800D01*
X102387900Y-116271000D02*
X102574100Y-116457300D01*
X107250000Y-111347600D02*
X107250000Y-111874400D01*
X107192900Y-111290500D02*
X107250000Y-111347600D01*
X111328500Y-111672400D02*
X111328500Y-111421200D01*
X111290700Y-111710200D02*
X111328500Y-111672400D01*
X111290700Y-112011900D02*
X111290700Y-111710200D01*
X85478200Y-106207600D02*
X85747000Y-105938800D01*
X85478200Y-106461200D02*
X85478200Y-106207600D01*
X85176500Y-106461200D02*
X85478200Y-106461200D01*
%TO.N,/G1*%
X89082100Y-84878700D02*
X89082100Y-85180400D01*
X90551500Y-87362300D02*
X90501300Y-87412500D01*
X90551500Y-86901200D02*
X90551500Y-87362300D01*
X84536700Y-95473800D02*
X84557600Y-95452900D01*
X84536700Y-95655000D02*
X84536700Y-95473800D01*
X100201000Y-81600700D02*
X100250000Y-81551700D01*
X100201000Y-82019800D02*
X100201000Y-81600700D01*
X100250000Y-83750000D02*
X100250000Y-84051700D01*
X100250000Y-81250000D02*
X100250000Y-81551700D01*
X115942400Y-95151200D02*
X116216800Y-95151200D01*
X100233100Y-84068600D02*
X100250000Y-84051700D01*
X100233100Y-84399800D02*
X100233100Y-84068600D01*
X115942400Y-105348800D02*
X115942400Y-105650500D01*
X118320100Y-94378700D02*
X118320100Y-94529500D01*
X118320100Y-94529500D02*
X118320100Y-94680400D01*
X103300000Y-93276300D02*
X103300000Y-95562500D01*
X102851000Y-92827300D02*
X103300000Y-93276300D01*
X89263300Y-85180400D02*
X89082100Y-85180400D01*
X89558000Y-85475100D02*
X89263300Y-85180400D01*
X118746700Y-106246200D02*
X118621800Y-106121300D01*
X118917700Y-106246200D02*
X118746700Y-106246200D01*
X118320100Y-106121300D02*
X118621800Y-106121300D01*
X84557600Y-95151200D02*
X84557600Y-95452900D01*
X116107800Y-105815900D02*
X116107800Y-105946900D01*
X115942400Y-105650500D02*
X116107800Y-105815900D01*
X84557600Y-105348800D02*
X84557600Y-105650500D01*
X118854100Y-94529500D02*
X118861600Y-94537000D01*
X118320100Y-94529500D02*
X118854100Y-94529500D01*
X100437100Y-114738800D02*
X100250000Y-114551700D01*
X100437100Y-115127100D02*
X100437100Y-114738800D01*
X100250000Y-117271700D02*
X100276600Y-117298300D01*
X100250000Y-116750000D02*
X100250000Y-117271700D01*
X82179900Y-106121300D02*
X82481600Y-106121300D01*
X116288700Y-95079300D02*
X116216800Y-95151200D01*
X117555000Y-95079300D02*
X116288700Y-95079300D01*
X117953900Y-94680400D02*
X117555000Y-95079300D01*
X118320100Y-94680400D02*
X117953900Y-94680400D01*
X109948500Y-113598800D02*
X109948500Y-113900500D01*
X111417900Y-115621300D02*
X111719600Y-115621300D01*
X82481600Y-106121300D02*
X82931400Y-105671500D01*
X109863800Y-113985200D02*
X109948500Y-113900500D01*
X109863800Y-114250600D02*
X109863800Y-113985200D01*
X111719600Y-114788600D02*
X111719600Y-115621300D01*
X111246200Y-114315200D02*
X111719600Y-114788600D01*
X82931400Y-105462800D02*
X82929100Y-105460500D01*
X82931400Y-105671500D02*
X82931400Y-105462800D01*
X84448200Y-105759900D02*
X84557600Y-105650500D01*
X83019800Y-105759900D02*
X84448200Y-105759900D01*
X82931400Y-105671500D02*
X83019800Y-105759900D01*
X82179900Y-95113800D02*
X82535000Y-95468900D01*
X82179900Y-94378700D02*
X82179900Y-95113800D01*
X100551700Y-118402600D02*
X100656800Y-118297500D01*
X100551700Y-119250000D02*
X100551700Y-118402600D01*
X100250000Y-119250000D02*
X100551700Y-119250000D01*
X100250000Y-114250000D02*
X100250000Y-114551700D01*
X100250000Y-87174700D02*
X100314700Y-87239400D01*
X100250000Y-86250000D02*
X100250000Y-87174700D01*
X90551500Y-114200900D02*
X90675800Y-114325200D01*
X90551500Y-113598800D02*
X90551500Y-114200900D01*
X88828600Y-115923000D02*
X89082100Y-115923000D01*
X88606400Y-116145200D02*
X88828600Y-115923000D01*
X89082100Y-115621300D02*
X89082100Y-115923000D01*
X110250200Y-86286100D02*
X110250200Y-86901200D01*
X111355900Y-85180400D02*
X110250200Y-86286100D01*
X111417900Y-85180400D02*
X111355900Y-85180400D01*
X111417900Y-84878700D02*
X111417900Y-85180400D01*
X109948500Y-86901200D02*
X110099400Y-86901200D01*
X110099400Y-86901200D02*
X110250200Y-86901200D01*
X110299300Y-89170600D02*
X110299300Y-90651300D01*
X109771500Y-88642800D02*
X110299300Y-89170600D01*
X109771500Y-87229100D02*
X109771500Y-88642800D01*
X110099400Y-86901200D02*
X109771500Y-87229100D01*
%TO.N,/G5*%
X106961200Y-85176500D02*
X107262900Y-85176500D01*
X87988100Y-89664200D02*
X88040500Y-89716600D01*
X87988100Y-89209300D02*
X87988100Y-89664200D01*
X92522000Y-117607400D02*
X92823700Y-117607400D01*
X86130200Y-87536500D02*
X86130200Y-87838200D01*
X83795500Y-109750000D02*
X84097200Y-109750000D01*
X116704500Y-90750000D02*
X117006200Y-90750000D01*
X107978000Y-82892600D02*
X107978000Y-83194300D01*
X85960600Y-108500000D02*
X85960600Y-108801700D01*
X117210100Y-90953900D02*
X117006200Y-90750000D01*
X117210100Y-91064200D02*
X117210100Y-90953900D01*
X93070500Y-117360600D02*
X93070500Y-117036400D01*
X92823700Y-117607400D02*
X93070500Y-117360600D01*
X93538800Y-115323500D02*
X93538800Y-115625200D01*
X93538800Y-116568100D02*
X93070500Y-117036400D01*
X93538800Y-115625200D02*
X93538800Y-116568100D01*
X107608600Y-84830800D02*
X107262900Y-85176500D01*
X107608600Y-84641000D02*
X107608600Y-84830800D01*
X114539400Y-92000000D02*
X114841100Y-92000000D01*
X114841100Y-91697300D02*
X114841100Y-92000000D01*
X115455000Y-91083400D02*
X114841100Y-91697300D01*
X107978000Y-84271600D02*
X107608600Y-84641000D01*
X107978000Y-83194300D02*
X107978000Y-84271600D01*
X84281500Y-109934300D02*
X84097200Y-109750000D01*
X84446600Y-109934300D02*
X84281500Y-109934300D01*
X85579200Y-108801700D02*
X84446600Y-109934300D01*
X85960600Y-108801700D02*
X85579200Y-108801700D01*
X84446600Y-109949900D02*
X84446600Y-109934300D01*
X84462000Y-109965300D02*
X84446600Y-109949900D01*
X94721300Y-103921000D02*
X94721300Y-104261300D01*
X95392300Y-103250000D02*
X94721300Y-103921000D01*
X95612500Y-103250000D02*
X95392300Y-103250000D01*
X88801500Y-93250000D02*
X88427300Y-93250000D01*
X88839500Y-93212000D02*
X88801500Y-93250000D01*
X96355600Y-82022800D02*
X96355600Y-82474500D01*
X96299700Y-81966900D02*
X96355600Y-82022800D01*
X96819500Y-84811700D02*
X96819500Y-84110600D01*
X96962900Y-84955100D02*
X96819500Y-84811700D01*
X96299700Y-81665200D02*
X96299700Y-81966900D01*
X86452900Y-88160900D02*
X86452900Y-88336700D01*
X86130200Y-87838200D02*
X86452900Y-88160900D01*
X110325000Y-99500000D02*
X111262100Y-99500000D01*
X111262100Y-96403500D02*
X111384200Y-96281400D01*
X111262100Y-99500000D02*
X111262100Y-96403500D01*
X119165000Y-102556800D02*
X119145900Y-102537700D01*
X119165000Y-103015400D02*
X119165000Y-102556800D01*
X119145900Y-102236000D02*
X119145900Y-102537700D01*
X116961300Y-101882600D02*
X117216000Y-101627900D01*
X116961300Y-101974700D02*
X116961300Y-101882600D01*
X116659600Y-101974700D02*
X116961300Y-101974700D01*
X112369000Y-101175500D02*
X112541400Y-101175500D01*
X111262100Y-100068600D02*
X112369000Y-101175500D01*
X111262100Y-99500000D02*
X111262100Y-100068600D01*
X112813600Y-111379200D02*
X113144800Y-111710400D01*
X112813600Y-111290700D02*
X112813600Y-111379200D01*
X114369800Y-112963500D02*
X114671500Y-112963500D01*
X112511900Y-111290700D02*
X112813600Y-111290700D01*
X113772900Y-106153200D02*
X113772900Y-105774500D01*
X112676100Y-107250000D02*
X113772900Y-106153200D01*
X112374400Y-107250000D02*
X112676100Y-107250000D01*
X114671500Y-112420000D02*
X114894400Y-112197100D01*
X114671500Y-112963500D02*
X114671500Y-112420000D01*
X103680500Y-116389400D02*
X103982200Y-116389400D01*
X104036200Y-116371500D02*
X104018300Y-116389400D01*
X104036200Y-114948600D02*
X104036200Y-116371500D01*
X104716700Y-114268100D02*
X104036200Y-114948600D01*
X104716700Y-113463400D02*
X104716700Y-114268100D01*
X104414400Y-113161100D02*
X104716700Y-113463400D01*
X104200300Y-118834800D02*
X104502000Y-118834800D01*
X104018300Y-116389400D02*
X103982200Y-116389400D01*
X104502000Y-118669300D02*
X104502000Y-118834800D01*
X105028800Y-118142500D02*
X104502000Y-118669300D01*
X105028800Y-117273300D02*
X105028800Y-118142500D01*
X104558700Y-116803200D02*
X105028800Y-117273300D01*
X104255400Y-116803200D02*
X104558700Y-116803200D01*
X104018300Y-116566100D02*
X104255400Y-116803200D01*
X104018300Y-116389400D02*
X104018300Y-116566100D01*
X88125600Y-93250000D02*
X88427300Y-93250000D01*
X84161300Y-98544500D02*
X84142100Y-98525300D01*
X84581600Y-98544500D02*
X84161300Y-98544500D01*
X83840400Y-98525300D02*
X84142100Y-98525300D01*
X88125600Y-93671000D02*
X88125600Y-93250000D01*
X88229100Y-93774500D02*
X88125600Y-93671000D01*
X81415100Y-98264000D02*
X81354100Y-98264000D01*
X81743100Y-97936000D02*
X81415100Y-98264000D01*
X82685900Y-97936000D02*
X81743100Y-97936000D01*
X82685900Y-97936000D02*
X82302900Y-97936000D01*
X82302900Y-97936000D02*
X82685900Y-97936000D01*
%TO.N,/Second4*%
X112463500Y-113869800D02*
X112463500Y-113568100D01*
X117820100Y-105621300D02*
X117518400Y-105621300D01*
X117107400Y-106032300D02*
X117107400Y-107478000D01*
X117518400Y-105621300D02*
X117107400Y-106032300D01*
X94756600Y-98609900D02*
X94756600Y-98473400D01*
X95396700Y-99250000D02*
X94756600Y-98609900D01*
X95612500Y-99250000D02*
X95396700Y-99250000D01*
X117395200Y-105621300D02*
X117317300Y-105543400D01*
X117518400Y-105621300D02*
X117395200Y-105621300D01*
X115902800Y-109214800D02*
X115701800Y-109013800D01*
X115902800Y-109250000D02*
X115902800Y-109214800D01*
X116204500Y-109250000D02*
X115902800Y-109250000D01*
X115121300Y-110917900D02*
X114819600Y-110917900D01*
X114819600Y-111087700D02*
X114612100Y-111295200D01*
X114819600Y-110917900D02*
X114819600Y-111087700D01*
X113568100Y-112702400D02*
X113568100Y-112463500D01*
X113532100Y-112738400D02*
X113568100Y-112702400D01*
X113532100Y-114043400D02*
X113684700Y-114196000D01*
X113532100Y-112738400D02*
X113532100Y-114043400D01*
X112622900Y-113408700D02*
X112463500Y-113568100D01*
X112622900Y-113013400D02*
X112622900Y-113408700D01*
X112897900Y-112738400D02*
X112622900Y-113013400D01*
X113532100Y-112738400D02*
X112897900Y-112738400D01*
X113869800Y-112463500D02*
X113568100Y-112463500D01*
%TO.N,/B2*%
X98025300Y-116659600D02*
X98025300Y-116810400D01*
X101474700Y-83840400D02*
X101323900Y-83840400D01*
X91500000Y-85960600D02*
X91198300Y-85960600D01*
X90250000Y-83795500D02*
X90250000Y-84097200D01*
X91047200Y-85809500D02*
X90975800Y-85880900D01*
X91198300Y-85960600D02*
X91047200Y-85809500D01*
X101736000Y-81654300D02*
X101736000Y-81655800D01*
X101736000Y-81604900D02*
X101736000Y-81654300D01*
X101736000Y-81354100D02*
X101736000Y-81604900D01*
X108000000Y-114539400D02*
X108000000Y-114841100D01*
X104132900Y-97250000D02*
X103656300Y-96773400D01*
X104487500Y-97250000D02*
X104132900Y-97250000D01*
X92750000Y-112374400D02*
X92750000Y-112676100D01*
X118334800Y-96299700D02*
X118033100Y-96299700D01*
X115889400Y-96819500D02*
X115889400Y-97121200D01*
X117691000Y-96743900D02*
X117691000Y-96345700D01*
X117290400Y-97144500D02*
X117691000Y-96743900D01*
X115912700Y-97144500D02*
X117290400Y-97144500D01*
X115889400Y-97121200D02*
X115912700Y-97144500D01*
X117987100Y-96345700D02*
X118033100Y-96299700D01*
X117691000Y-96345700D02*
X117987100Y-96345700D01*
X117611200Y-96265900D02*
X117609600Y-96265900D01*
X117691000Y-96345700D02*
X117611200Y-96265900D01*
X101116600Y-83633100D02*
X101116600Y-82275200D01*
X101323900Y-83840400D02*
X101116600Y-83633100D01*
X101116600Y-82275200D02*
X101736000Y-81655800D01*
X101116600Y-82275200D02*
X101007900Y-82166500D01*
X114823500Y-107327300D02*
X114823500Y-106961200D01*
X114670200Y-107480600D02*
X114823500Y-107327300D01*
X88709300Y-112511900D02*
X88407600Y-112511900D01*
X87036500Y-114369800D02*
X87036500Y-114671500D01*
X87007500Y-114700500D02*
X87007500Y-114873700D01*
X87036500Y-114671500D02*
X87007500Y-114700500D01*
X117107400Y-107978000D02*
X116805700Y-107978000D01*
X106750000Y-89064600D02*
X106750000Y-88125600D01*
X106328400Y-89486200D02*
X106750000Y-89064600D01*
X112463500Y-86130200D02*
X112463500Y-86431900D01*
X112463500Y-86795800D02*
X112463500Y-86431900D01*
X112372000Y-86887300D02*
X112463500Y-86795800D01*
X98025300Y-117115500D02*
X98025300Y-116810400D01*
X98081000Y-117171200D02*
X98025300Y-117115500D01*
X108000000Y-115473700D02*
X108389800Y-115863500D01*
X108000000Y-114841100D02*
X108000000Y-115473700D01*
X87981400Y-112938100D02*
X88407600Y-112511900D01*
X87228300Y-112938100D02*
X87981400Y-112938100D01*
X82392600Y-92522000D02*
X82392600Y-92823700D01*
X84676500Y-93538800D02*
X84146000Y-93538800D01*
X82404800Y-92823700D02*
X82392600Y-92823700D01*
X83119900Y-93538800D02*
X82404800Y-92823700D01*
X84146000Y-93538800D02*
X83119900Y-93538800D01*
X84146000Y-93538800D02*
X84146000Y-93767700D01*
X90432600Y-84279800D02*
X90250000Y-84097200D01*
X90432600Y-84818600D02*
X90432600Y-84279800D01*
X91047200Y-85433200D02*
X90432600Y-84818600D01*
X91047200Y-85809500D02*
X91047200Y-85433200D01*
X90790400Y-90398600D02*
X90986300Y-90202700D01*
X90790400Y-93020200D02*
X90790400Y-90398600D01*
X90469500Y-93341100D02*
X90790400Y-93020200D01*
X90469500Y-93906300D02*
X90469500Y-93341100D01*
X90203200Y-94172600D02*
X90469500Y-93906300D01*
X109250000Y-117078100D02*
X109102400Y-117225700D01*
X109250000Y-116704500D02*
X109250000Y-117078100D01*
X97764000Y-119145900D02*
X97462300Y-119145900D01*
X97406600Y-119201600D02*
X97462300Y-119145900D01*
X97117800Y-119201600D02*
X97406600Y-119201600D01*
X116393600Y-107565900D02*
X116278800Y-107565900D01*
X116805700Y-107978000D02*
X116393600Y-107565900D01*
X92867900Y-112794000D02*
X92867900Y-112880500D01*
X92750000Y-112676100D02*
X92867900Y-112794000D01*
X82790900Y-103680500D02*
X82573800Y-103897600D01*
X83610600Y-103680500D02*
X82790900Y-103680500D01*
X110382900Y-87988100D02*
X110180800Y-87786000D01*
X110790700Y-87988100D02*
X110382900Y-87988100D01*
X81165200Y-104698500D02*
X81549800Y-105083100D01*
X81165200Y-104200300D02*
X81165200Y-104698500D01*
%TO.N,/Minute2*%
X114039400Y-91500000D02*
X113737700Y-91500000D01*
X114823500Y-93038800D02*
X114521800Y-93038800D01*
X112011900Y-88709300D02*
X111710200Y-88709300D01*
X113098800Y-90051500D02*
X112797100Y-90051500D01*
X114309600Y-92863500D02*
X113982200Y-93190900D01*
X114484800Y-93038800D02*
X114309600Y-92863500D01*
X114521800Y-93038800D02*
X114484800Y-93038800D01*
X113737700Y-92291600D02*
X113737700Y-91500000D01*
X114166300Y-92720200D02*
X113737700Y-92291600D01*
X114166300Y-92720300D02*
X114166300Y-92720200D01*
X114309600Y-92863500D02*
X114166300Y-92720300D01*
X105067400Y-100250000D02*
X105669400Y-100852000D01*
X104487500Y-100250000D02*
X105067400Y-100250000D01*
X112797100Y-90051500D02*
X112534000Y-90314600D01*
X112534000Y-90314700D02*
X112534000Y-90314600D01*
X112534000Y-90905300D02*
X112534000Y-90314700D01*
X112475600Y-90963700D02*
X112534000Y-90905300D01*
X112475600Y-91458300D02*
X112475600Y-90963700D01*
X112652700Y-91635400D02*
X112475600Y-91458300D01*
X113602300Y-91635400D02*
X112652700Y-91635400D01*
X113737700Y-91500000D02*
X113602300Y-91635400D01*
X110790700Y-86948300D02*
X110790700Y-87488100D01*
X110778900Y-86936500D02*
X110790700Y-86948300D01*
X111710200Y-88795200D02*
X111426900Y-88795200D01*
X111710200Y-89787600D02*
X111710200Y-88795200D01*
X112130900Y-90208300D02*
X111710200Y-89787600D01*
X112427600Y-90208300D02*
X112130900Y-90208300D01*
X112534000Y-90314600D02*
X112427600Y-90208300D01*
X111710200Y-88795200D02*
X111710200Y-88709300D01*
X109448500Y-86401200D02*
X109146800Y-86401200D01*
X108932000Y-86616000D02*
X109146800Y-86401200D01*
X108932000Y-86657100D02*
X108932000Y-86616000D01*
%TO.N,/B6*%
X101474700Y-116659600D02*
X101474700Y-116961300D01*
X101736000Y-119145900D02*
X101434300Y-119145900D01*
X106750000Y-112374400D02*
X106750000Y-112676100D01*
X88709300Y-87988100D02*
X88709300Y-88289800D01*
X88709300Y-88625800D02*
X88709300Y-88289800D01*
X88784000Y-88700500D02*
X88709300Y-88625800D01*
X118334800Y-104200300D02*
X118033100Y-104200300D01*
X109250000Y-83795500D02*
X108948300Y-83795500D01*
X112463500Y-114369800D02*
X112161800Y-114369800D01*
X83610600Y-97289900D02*
X83610600Y-96819500D01*
X83579200Y-97321300D02*
X83610600Y-97289900D01*
X108000000Y-85960600D02*
X107698300Y-85960600D01*
X92975000Y-88652300D02*
X92975000Y-88657200D01*
X92750000Y-88427300D02*
X92975000Y-88652300D01*
X92750000Y-88125600D02*
X92750000Y-88427300D01*
X81415700Y-97088500D02*
X81415700Y-97090100D01*
X81165200Y-96838000D02*
X81415700Y-97088500D01*
X81165200Y-96299700D02*
X81165200Y-96838000D01*
X97764000Y-81852000D02*
X97764000Y-81354100D01*
X98012500Y-82100500D02*
X97764000Y-81852000D01*
X98012500Y-82433200D02*
X98012500Y-82100500D01*
X97440100Y-83005600D02*
X98012500Y-82433200D01*
X97332300Y-83005600D02*
X97440100Y-83005600D01*
X82392600Y-108717600D02*
X82318600Y-108791600D01*
X82392600Y-107978000D02*
X82392600Y-108717600D01*
X84676500Y-106961200D02*
X84374800Y-106961200D01*
X114521800Y-93808000D02*
X114521800Y-93538800D01*
X114401800Y-93928000D02*
X114521800Y-93808000D01*
X114823500Y-93538800D02*
X114521800Y-93538800D01*
X115889400Y-104088700D02*
X115984100Y-104183400D01*
X115889400Y-103680500D02*
X115889400Y-104088700D01*
X107698300Y-85622600D02*
X107319500Y-85622600D01*
X107698300Y-85622600D02*
X107698300Y-85960600D01*
X111848000Y-114056000D02*
X112161800Y-114369800D01*
X111848000Y-113672200D02*
X111848000Y-114056000D01*
X98086300Y-84203100D02*
X98025300Y-84142100D01*
X98086300Y-84698000D02*
X98086300Y-84203100D01*
X98025300Y-83840400D02*
X98025300Y-84142100D01*
X101403300Y-117032700D02*
X101403300Y-117293300D01*
X101474700Y-116961300D02*
X101403300Y-117032700D01*
X106750000Y-113020900D02*
X106924600Y-113195500D01*
X106750000Y-112676100D02*
X106750000Y-113020900D01*
X110790700Y-113838500D02*
X110696300Y-113932900D01*
X110790700Y-112511900D02*
X110790700Y-113838500D01*
X117107400Y-93874500D02*
X117160900Y-93928000D01*
X117107400Y-92522000D02*
X117107400Y-93874500D01*
X95848800Y-113929500D02*
X95848800Y-114875500D01*
X107698300Y-85121500D02*
X107698300Y-85622600D01*
X108247100Y-84572700D02*
X107698300Y-85121500D01*
X108247100Y-84265300D02*
X108247100Y-84572700D01*
X108716900Y-83795500D02*
X108247100Y-84265300D01*
X108948300Y-83795500D02*
X108716900Y-83795500D01*
X91500000Y-115140400D02*
X91504000Y-115144400D01*
X91500000Y-114539400D02*
X91500000Y-115140400D01*
X84374800Y-107174000D02*
X83972000Y-107576800D01*
X84374800Y-106961200D02*
X84374800Y-107174000D01*
X86664900Y-87182900D02*
X87036500Y-87182900D01*
X87036500Y-86130200D02*
X87036500Y-87182900D01*
X87036500Y-87924300D02*
X87077200Y-87965000D01*
X87036500Y-87182900D02*
X87036500Y-87924300D01*
X101403300Y-119114900D02*
X101434300Y-119145900D01*
X101403300Y-117293300D02*
X101403300Y-119114900D01*
X90250000Y-116704500D02*
X89948300Y-116704500D01*
X89869100Y-116625300D02*
X89948300Y-116704500D01*
X89608000Y-116625300D02*
X89869100Y-116625300D01*
X89608000Y-116569200D02*
X89608000Y-116625300D01*
X117740600Y-104164900D02*
X117740600Y-104162600D01*
X117997700Y-104164900D02*
X117740600Y-104164900D01*
X118033100Y-104200300D02*
X117997700Y-104164900D01*
X101403300Y-117293300D02*
X101369600Y-117293300D01*
X104707600Y-102250000D02*
X104487500Y-102250000D01*
X105689200Y-103231600D02*
X104707600Y-102250000D01*
X105689200Y-105055500D02*
X105689200Y-103231600D01*
X105655500Y-105089200D02*
X105689200Y-105055500D01*
X83579200Y-97321300D02*
X83579200Y-97322900D01*
%TO.N,/R4*%
X95151200Y-84057600D02*
X95151200Y-83755900D01*
X119250000Y-99750000D02*
X119250000Y-99448300D01*
X116750000Y-99750000D02*
X117051700Y-99750000D01*
X94363300Y-117503000D02*
X94378700Y-117518400D01*
X94363300Y-116741600D02*
X94363300Y-117503000D01*
X94650500Y-116454400D02*
X94363300Y-116741600D01*
X94378700Y-117820100D02*
X94378700Y-117518400D01*
X95151200Y-114917600D02*
X94968900Y-114735300D01*
X95151200Y-115442400D02*
X95151200Y-114917600D01*
X105348800Y-83228100D02*
X105348800Y-84057600D01*
X105816000Y-82760900D02*
X105348800Y-83228100D01*
X94378700Y-81679900D02*
X94478700Y-81679900D01*
X94478700Y-81679900D02*
X94680400Y-81679900D01*
X94478700Y-80113100D02*
X94491600Y-80100200D01*
X94478700Y-81679900D02*
X94478700Y-80113100D01*
X115621300Y-87824400D02*
X115888500Y-87557200D01*
X115621300Y-88582100D02*
X115621300Y-87824400D01*
X113598800Y-90051500D02*
X113598800Y-89749800D01*
X84878700Y-88582100D02*
X85180400Y-88582100D01*
X114250000Y-99750000D02*
X114250000Y-99448300D01*
X106121300Y-81195600D02*
X106227700Y-81089200D01*
X106121300Y-81679900D02*
X106121300Y-81195600D01*
X117633200Y-99750000D02*
X117633200Y-99986300D01*
X117051700Y-99750000D02*
X117633200Y-99750000D01*
X117934900Y-99448300D02*
X119250000Y-99448300D01*
X117633200Y-99750000D02*
X117934900Y-99448300D01*
X114518200Y-99180100D02*
X114250000Y-99448300D01*
X114518200Y-94603300D02*
X114518200Y-99180100D01*
X115034600Y-94086900D02*
X114518200Y-94603300D01*
X114015100Y-89333500D02*
X113598800Y-89749800D01*
X114015100Y-88489200D02*
X114015100Y-89333500D01*
X115621300Y-110917900D02*
X115621300Y-110616200D01*
X114786200Y-99984500D02*
X114786200Y-100074000D01*
X114250000Y-99448300D02*
X114786200Y-99984500D01*
X114786200Y-100074000D02*
X115101300Y-100074000D01*
X86901200Y-90051500D02*
X86901200Y-89749800D01*
X115183100Y-110616200D02*
X115621300Y-110616200D01*
X114428400Y-109861500D02*
X115183100Y-110616200D01*
X114015400Y-109448500D02*
X114428400Y-109861500D01*
X113598800Y-109448500D02*
X114015400Y-109448500D01*
X86607600Y-89749800D02*
X86901200Y-89749800D01*
X86032200Y-89174400D02*
X86607600Y-89749800D01*
X86032200Y-89037000D02*
X86032200Y-89174400D01*
X85627700Y-88632500D02*
X86032200Y-89037000D01*
X85627700Y-88582100D02*
X85627700Y-88632500D01*
X85180400Y-88582100D02*
X85627700Y-88582100D01*
X95266300Y-82318700D02*
X95246000Y-82298400D01*
X95266300Y-83640800D02*
X95266300Y-82318700D01*
X95151200Y-83755900D02*
X95266300Y-83640800D01*
X95246000Y-82245500D02*
X95246000Y-82298400D01*
X94680400Y-81679900D02*
X95246000Y-82245500D01*
X85627700Y-88582100D02*
X85627700Y-88346600D01*
X114174600Y-106606200D02*
X114021200Y-106759600D01*
X114174600Y-102504200D02*
X114174600Y-106606200D01*
X113769800Y-102099400D02*
X114174600Y-102504200D01*
X113769800Y-101766900D02*
X113769800Y-102099400D01*
X114005200Y-101531500D02*
X113769800Y-101766900D01*
X114350700Y-101531500D02*
X114005200Y-101531500D01*
X114786200Y-101096000D02*
X114350700Y-101531500D01*
X114786200Y-100074000D02*
X114786200Y-101096000D01*
X106121300Y-117820100D02*
X106121300Y-117518400D01*
X106042500Y-117439600D02*
X106121300Y-117518400D01*
X106042500Y-117111400D02*
X106042500Y-117439600D01*
X105348800Y-115442400D02*
X105348800Y-115140700D01*
X105348800Y-114246600D02*
X105348800Y-115140700D01*
X105514100Y-114081300D02*
X105348800Y-114246600D01*
X84878700Y-110250900D02*
X84878700Y-110917900D01*
X85131500Y-109998100D02*
X84878700Y-110250900D01*
X86901200Y-108869500D02*
X86901200Y-109448500D01*
X86685000Y-108653300D02*
X86901200Y-108869500D01*
X96438200Y-101837600D02*
X96438200Y-101953100D01*
X95850600Y-101250000D02*
X96438200Y-101837600D01*
X95612500Y-101250000D02*
X95850600Y-101250000D01*
X83750000Y-99197800D02*
X83750000Y-99750000D01*
X83855800Y-99092000D02*
X83750000Y-99197800D01*
X86250000Y-99175500D02*
X86250000Y-99750000D01*
X86191600Y-99117100D02*
X86250000Y-99175500D01*
X81250000Y-99332800D02*
X81015100Y-99097900D01*
X81250000Y-99750000D02*
X81250000Y-99332800D01*
%TO.N,/Minute5*%
X108638900Y-113098800D02*
X108000000Y-113737700D01*
X109448500Y-113098800D02*
X108638900Y-113098800D01*
X108000000Y-114039400D02*
X108000000Y-113888500D01*
X108000000Y-113888500D02*
X108000000Y-113737700D01*
X106461200Y-114823500D02*
X106461200Y-114521800D01*
X101474700Y-116159600D02*
X101474700Y-115857900D01*
X103180500Y-115889400D02*
X102878800Y-115889400D01*
X101300000Y-105558600D02*
X100752400Y-106106200D01*
X101300000Y-104437500D02*
X101300000Y-105558600D01*
X101752100Y-115857900D02*
X101832000Y-115778000D01*
X101474700Y-115857900D02*
X101752100Y-115857900D01*
X104848800Y-115442400D02*
X104848800Y-115140700D01*
X102767400Y-115778000D02*
X101832000Y-115778000D01*
X102878800Y-115889400D02*
X102767400Y-115778000D01*
X101832000Y-115778000D02*
X101832000Y-115081200D01*
X104848800Y-114953600D02*
X104824400Y-114929200D01*
X104848800Y-115140700D02*
X104848800Y-114953600D01*
X106461200Y-113785200D02*
X106461200Y-114521800D01*
X106112100Y-113436100D02*
X106461200Y-113785200D01*
X107121100Y-113861900D02*
X106461200Y-114521800D01*
X107973400Y-113861900D02*
X107121100Y-113861900D01*
X108000000Y-113888500D02*
X107973400Y-113861900D01*
%TO.N,/Minute4*%
X114039400Y-108000000D02*
X113737700Y-108000000D01*
X115442400Y-104848800D02*
X115140700Y-104848800D01*
X113098800Y-109297600D02*
X113098800Y-109146800D01*
X113098800Y-109297600D02*
X113098800Y-109448500D01*
X114823500Y-106461200D02*
X114748100Y-106461200D01*
X114039400Y-108000000D02*
X114039400Y-107698300D01*
X112011900Y-110303300D02*
X112011900Y-110790700D01*
X112362300Y-109952900D02*
X112011900Y-110303300D01*
X110790700Y-112011900D02*
X110790700Y-111710200D01*
X110361000Y-111280500D02*
X110361000Y-110112200D01*
X110790700Y-111710200D02*
X110361000Y-111280500D01*
X113737700Y-108000000D02*
X113133000Y-108000000D01*
X113096500Y-109144500D02*
X113098800Y-109146800D01*
X113096500Y-108036500D02*
X113096500Y-109144500D01*
X113133000Y-108000000D02*
X113096500Y-108036500D01*
X114705100Y-105284400D02*
X115140700Y-104848800D01*
X114705100Y-106418200D02*
X114705100Y-105284400D01*
X114748100Y-106461200D02*
X114705100Y-106418200D01*
X113133000Y-107821000D02*
X113124500Y-107812500D01*
X113133000Y-108000000D02*
X113133000Y-107821000D01*
X105004900Y-99250000D02*
X105416700Y-99661800D01*
X104487500Y-99250000D02*
X105004900Y-99250000D01*
X114422900Y-106786400D02*
X114748100Y-106461200D01*
X114422900Y-106926000D02*
X114422900Y-106786400D01*
X114039400Y-107309500D02*
X114422900Y-106926000D01*
X114039400Y-107698300D02*
X114039400Y-107309500D01*
%TO.N,/R1*%
X111417900Y-115121300D02*
X111417900Y-114819600D01*
X100250000Y-118750000D02*
X100250000Y-118448300D01*
X100250000Y-116250000D02*
X100551700Y-116250000D01*
X100250000Y-80750000D02*
X100551700Y-80750000D01*
X100250000Y-85750000D02*
X100250000Y-85448300D01*
X100279100Y-83220900D02*
X100522600Y-83220900D01*
X100250000Y-83250000D02*
X100279100Y-83220900D01*
X115942400Y-94651200D02*
X115942400Y-94349500D01*
X103055500Y-94126600D02*
X102546900Y-93618000D01*
X103055500Y-94999600D02*
X103055500Y-94126600D01*
X102800000Y-95255100D02*
X103055500Y-94999600D01*
X102800000Y-95562500D02*
X102800000Y-95255100D01*
X111417900Y-84378700D02*
X111417900Y-84077000D01*
X89082100Y-84378700D02*
X89233000Y-84378700D01*
X116215400Y-94076500D02*
X116215400Y-93776800D01*
X115942400Y-94349500D02*
X116215400Y-94076500D01*
X100250000Y-85071000D02*
X100250000Y-85448300D01*
X100634800Y-84686200D02*
X100250000Y-85071000D01*
X100634800Y-84686200D02*
X100829200Y-84686200D01*
X100634800Y-83333100D02*
X100522600Y-83220900D01*
X100634800Y-84686200D02*
X100634800Y-83333100D01*
X100602700Y-83140800D02*
X100602700Y-80918000D01*
X100522600Y-83220900D02*
X100602700Y-83140800D01*
X100602700Y-80918000D02*
X100762500Y-80918000D01*
X100602700Y-80801000D02*
X100551700Y-80750000D01*
X100602700Y-80918000D02*
X100602700Y-80801000D01*
X89319900Y-84291800D02*
X89319900Y-81785400D01*
X89233000Y-84378700D02*
X89319900Y-84291800D01*
X109848400Y-85999400D02*
X109948500Y-86099500D01*
X109848400Y-85801900D02*
X109848400Y-85999400D01*
X109948500Y-86401200D02*
X109948500Y-86099500D01*
X100250000Y-113750000D02*
X100551700Y-113750000D01*
X109948500Y-113098800D02*
X110099400Y-113098800D01*
X110099400Y-113098800D02*
X110250200Y-113098800D01*
X118320100Y-93878700D02*
X118621800Y-93878700D01*
X115942400Y-104848800D02*
X116244100Y-104848800D01*
X111470100Y-84024800D02*
X111470100Y-83577500D01*
X111417900Y-84077000D02*
X111470100Y-84024800D01*
X111015000Y-114819600D02*
X111417900Y-114819600D01*
X110250200Y-114054800D02*
X111015000Y-114819600D01*
X110250200Y-113098800D02*
X110250200Y-114054800D01*
X82353600Y-93403300D02*
X82353600Y-93340600D01*
X82179900Y-93577000D02*
X82353600Y-93403300D01*
X82179900Y-93878700D02*
X82179900Y-93577000D01*
X90551500Y-113098800D02*
X90853200Y-113098800D01*
X84557600Y-94651200D02*
X84557600Y-94349500D01*
X118320100Y-105143000D02*
X118242500Y-105065400D01*
X118320100Y-105621300D02*
X118320100Y-105143000D01*
X110075200Y-113098800D02*
X110099400Y-113098800D01*
X109088500Y-112112100D02*
X110075200Y-113098800D01*
X109088500Y-111105200D02*
X109088500Y-112112100D01*
X90551500Y-86073400D02*
X90551500Y-86401200D01*
X90049300Y-85571200D02*
X90551500Y-86073400D01*
X90049300Y-85248500D02*
X90049300Y-85571200D01*
X89233000Y-84432200D02*
X90049300Y-85248500D01*
X89233000Y-84378700D02*
X89233000Y-84432200D01*
X118856600Y-93643900D02*
X118621800Y-93878700D01*
X118856600Y-92457300D02*
X118856600Y-93643900D01*
X118799200Y-92399900D02*
X118856600Y-92457300D01*
X83867200Y-94349500D02*
X84557600Y-94349500D01*
X83600300Y-94082600D02*
X83867200Y-94349500D01*
X84925300Y-104914800D02*
X84859300Y-104848800D01*
X85296800Y-104914800D02*
X84925300Y-104914800D01*
X84557600Y-104848800D02*
X84859300Y-104848800D01*
X117087900Y-104927500D02*
X117087900Y-104929100D01*
X116322800Y-104927500D02*
X117087900Y-104927500D01*
X116244100Y-104848800D02*
X116322800Y-104927500D01*
X100888900Y-114087200D02*
X100551700Y-113750000D01*
X100888900Y-114224400D02*
X100888900Y-114087200D01*
X100888900Y-115912800D02*
X100888900Y-114224400D01*
X100551700Y-116250000D02*
X100888900Y-115912800D01*
X100250000Y-118136300D02*
X100250000Y-118448300D01*
X100678300Y-117708000D02*
X100250000Y-118136300D01*
X100678300Y-116376600D02*
X100678300Y-117708000D01*
X100551700Y-116250000D02*
X100678300Y-116376600D01*
X90906300Y-115065300D02*
X90714700Y-114873700D01*
X90906300Y-115448400D02*
X90906300Y-115065300D01*
X91281800Y-115823900D02*
X90906300Y-115448400D01*
X91077500Y-113323100D02*
X90853200Y-113098800D01*
X91077500Y-114510900D02*
X91077500Y-113323100D01*
X90714700Y-114873700D02*
X91077500Y-114510900D01*
X90047000Y-115121300D02*
X89082100Y-115121300D01*
X90338300Y-114830000D02*
X90047000Y-115121300D01*
X90671000Y-114830000D02*
X90338300Y-114830000D01*
X90714700Y-114873700D02*
X90671000Y-114830000D01*
X82179900Y-105003800D02*
X82268900Y-104914800D01*
X82179900Y-105621300D02*
X82179900Y-105003800D01*
X100551700Y-112497000D02*
X100453700Y-112399000D01*
X100551700Y-113750000D02*
X100551700Y-112497000D01*
%TO.N,/B4*%
X115121300Y-89082100D02*
X115121300Y-89383800D01*
X94651200Y-84557600D02*
X94349500Y-84557600D01*
X113098800Y-109948500D02*
X113098800Y-110250200D01*
X105016000Y-84859300D02*
X104848800Y-84859300D01*
X105219700Y-85063000D02*
X105016000Y-84859300D01*
X104848800Y-84557600D02*
X104848800Y-84859300D01*
X104848800Y-115942400D02*
X104848800Y-116244100D01*
X84378700Y-111417900D02*
X84378700Y-111719600D01*
X86401200Y-109948500D02*
X86401200Y-110250200D01*
X85750000Y-100250000D02*
X85750000Y-100551700D01*
X80750000Y-100250000D02*
X80750000Y-100551700D01*
X86012900Y-100814600D02*
X85750000Y-100551700D01*
X86359300Y-100814600D02*
X86012900Y-100814600D01*
X105621300Y-118320100D02*
X105621300Y-118621800D01*
X93878700Y-82179900D02*
X93878700Y-82481600D01*
X113098800Y-90551500D02*
X113098800Y-90786400D01*
X113098800Y-90786400D02*
X113098800Y-90853200D01*
X80690800Y-100610900D02*
X80750000Y-100551700D01*
X80690800Y-100985200D02*
X80690800Y-100610900D01*
X80953400Y-101247800D02*
X80690800Y-100985200D01*
X81571000Y-101247800D02*
X80953400Y-101247800D01*
X81897600Y-100921200D02*
X81571000Y-101247800D01*
X95017900Y-102250000D02*
X95612500Y-102250000D01*
X94347300Y-101579400D02*
X95017900Y-102250000D01*
X105163400Y-82637800D02*
X105621300Y-82179900D01*
X105163400Y-82675500D02*
X105163400Y-82637800D01*
X94651200Y-115942400D02*
X94349500Y-115942400D01*
X94104300Y-85629700D02*
X94934300Y-86459700D01*
X94104300Y-84610800D02*
X94104300Y-85629700D01*
X93711900Y-84218400D02*
X94104300Y-84610800D01*
X93711900Y-83936700D02*
X93711900Y-84218400D01*
X93958200Y-83690400D02*
X93711900Y-83936700D01*
X93958200Y-82561100D02*
X93958200Y-83690400D01*
X93878700Y-82481600D02*
X93958200Y-82561100D01*
X94296300Y-84610800D02*
X94349500Y-84557600D01*
X94104300Y-84610800D02*
X94296300Y-84610800D01*
X85963300Y-110688100D02*
X86401200Y-110250200D01*
X85918700Y-110688100D02*
X85963300Y-110688100D01*
X85918700Y-111389900D02*
X85918700Y-110688100D01*
X85589000Y-111719600D02*
X85918700Y-111389900D01*
X84378700Y-111719600D02*
X85589000Y-111719600D01*
X86384100Y-90551500D02*
X86401200Y-90551500D01*
X85831400Y-89998800D02*
X86384100Y-90551500D01*
X84378700Y-89082100D02*
X84378700Y-89383800D01*
X113750000Y-100250000D02*
X113750000Y-100551700D01*
X115646300Y-99948000D02*
X115646300Y-99399500D01*
X115948300Y-100250000D02*
X115646300Y-99948000D01*
X116250000Y-100250000D02*
X115948300Y-100250000D01*
X113098800Y-91029700D02*
X112894800Y-91233700D01*
X113098800Y-90853200D02*
X113098800Y-91029700D01*
X93383000Y-118320100D02*
X93577000Y-118320100D01*
X93366300Y-118303400D02*
X93383000Y-118320100D01*
X93878700Y-118320100D02*
X93577000Y-118320100D01*
X113581000Y-100720700D02*
X113581000Y-100832100D01*
X113750000Y-100551700D02*
X113581000Y-100720700D01*
X115121300Y-89612900D02*
X115121300Y-89383800D01*
X113881000Y-90853200D02*
X115121300Y-89612900D01*
X113098800Y-90853200D02*
X113881000Y-90853200D01*
X118750000Y-100679900D02*
X118750000Y-100250000D01*
X119394900Y-101324800D02*
X118750000Y-100679900D01*
X119650300Y-101324800D02*
X119394900Y-101324800D01*
X119924400Y-101050700D02*
X119650300Y-101324800D01*
X119924400Y-100214000D02*
X119924400Y-101050700D01*
X119791200Y-100080800D02*
X119924400Y-100214000D01*
X94292000Y-115942400D02*
X94349500Y-115942400D01*
X93951100Y-116283300D02*
X94292000Y-115942400D01*
X84468700Y-89383800D02*
X84680300Y-89595400D01*
X84378700Y-89383800D02*
X84468700Y-89383800D01*
X105394400Y-118621800D02*
X105260700Y-118488100D01*
X105621300Y-118621800D02*
X105394400Y-118621800D01*
X114842300Y-111696900D02*
X115121300Y-111417900D01*
X114431300Y-111696900D02*
X114842300Y-111696900D01*
X113667100Y-110932700D02*
X114431300Y-111696900D01*
X113667100Y-110730500D02*
X113667100Y-110932700D01*
X113579100Y-110730500D02*
X113667100Y-110730500D01*
X113098800Y-110250200D02*
X113579100Y-110730500D01*
X105260700Y-118488100D02*
X104936500Y-118812300D01*
X105260700Y-116656000D02*
X104848800Y-116244100D01*
X105260700Y-118488100D02*
X105260700Y-116656000D01*
X85823300Y-110592700D02*
X85821700Y-110592700D01*
X85918700Y-110688100D02*
X85823300Y-110592700D01*
X82568800Y-100250000D02*
X83250000Y-100250000D01*
X81897600Y-100921200D02*
X82568800Y-100250000D01*
%TO.N,/Minute3*%
X115889400Y-103180500D02*
X115889400Y-102878800D01*
X115950000Y-101474700D02*
X115949800Y-101474700D01*
X115949800Y-101474700D02*
X115857900Y-101474700D01*
X116159600Y-101474700D02*
X115950000Y-101474700D01*
X116159600Y-98025300D02*
X115857900Y-98025300D01*
X115442400Y-94651200D02*
X115140700Y-94651200D01*
X115889400Y-96319500D02*
X115587700Y-96319500D01*
X115587700Y-96319500D02*
X115587700Y-97755100D01*
X115857900Y-98025300D02*
X115587700Y-97755100D01*
X115302300Y-97755100D02*
X115083600Y-97973800D01*
X115587700Y-97755100D02*
X115302300Y-97755100D01*
X103639400Y-99147200D02*
X103639400Y-99080500D01*
X104242200Y-99750000D02*
X103639400Y-99147200D01*
X104487500Y-99750000D02*
X104242200Y-99750000D01*
X115140700Y-95643600D02*
X115140700Y-94651200D01*
X115587700Y-96090600D02*
X115140700Y-95643600D01*
X115587700Y-96319500D02*
X115587700Y-96090600D01*
X115857900Y-98896800D02*
X115857900Y-98025300D01*
X116250000Y-99288900D02*
X115857900Y-98896800D01*
X116250000Y-99750000D02*
X116250000Y-99288900D01*
X115385200Y-101663800D02*
X115826800Y-101663800D01*
X115826800Y-101505800D02*
X115826800Y-101663800D01*
X115857900Y-101474700D02*
X115826800Y-101505800D01*
X115826800Y-102816200D02*
X115889400Y-102878800D01*
X115826800Y-101663800D02*
X115826800Y-102816200D01*
%TO.N,Net-(J1-VCC)*%
X92750000Y-92061400D02*
X92750000Y-92737500D01*
X92798700Y-92012700D02*
X92750000Y-92061400D01*
X92500000Y-98609000D02*
X92393500Y-98502500D01*
X92500000Y-99500000D02*
X92500000Y-98609000D01*
X102300000Y-94942700D02*
X102300000Y-95562500D01*
X102653700Y-94589000D02*
X102300000Y-94942700D01*
X110325000Y-101500000D02*
X108272700Y-101500000D01*
X98300000Y-103830500D02*
X98300000Y-104437500D01*
X98630300Y-103500200D02*
X98300000Y-103830500D01*
X108272700Y-101500000D02*
X108274300Y-101500000D01*
X92798700Y-91943300D02*
X92895600Y-91846400D01*
X92798700Y-92012700D02*
X92798700Y-91943300D01*
X108274300Y-101500000D02*
X108275900Y-101500000D01*
%TO.N,Net-(J1-GND)*%
X93012500Y-93500000D02*
X92523300Y-93500000D01*
X101609000Y-95371500D02*
X101800000Y-95562500D01*
X101609000Y-94587900D02*
X101609000Y-95371500D01*
X100050000Y-100000000D02*
X100050000Y-102851700D01*
X92500000Y-100702800D02*
X92040400Y-101162400D01*
X92500000Y-100500000D02*
X92500000Y-100702800D01*
X98908800Y-104546300D02*
X98908800Y-105291500D01*
X98800000Y-104437500D02*
X98908800Y-104546300D01*
X91986900Y-93500000D02*
X92523300Y-93500000D01*
X91961900Y-93475000D02*
X91986900Y-93500000D01*
X110325000Y-96845700D02*
X110325000Y-97500000D01*
X100536700Y-103338400D02*
X100050000Y-102851700D01*
X100536700Y-103398400D02*
X100536700Y-103338400D01*
X96722000Y-95484500D02*
X96800000Y-95562500D01*
X96722000Y-94591100D02*
X96722000Y-95484500D01*
X96721900Y-94591100D02*
X96722000Y-94591100D01*
X92009500Y-93522600D02*
X92009500Y-93537500D01*
X91961900Y-93475000D02*
X92009500Y-93522600D01*
%TD*%
M02*
