<?xml version="1.0" encoding="UTF-8" standalone="no"?>
<!-- Created with Inkscape (http://www.inkscape.org/) -->

<svg
   width="210mm"
   height="297mm"
   viewBox="0 0 793.70081 1122.5197"
   version="1.1"
   id="svg1"
   inkscape:version="1.4.2 (f4327f4, 2025-05-13)"
   sodipodi:docname="watch outline.svg"
   xmlns:inkscape="http://www.inkscape.org/namespaces/inkscape"
   xmlns:sodipodi="http://sodipodi.sourceforge.net/DTD/sodipodi-0.dtd"
   xmlns="http://www.w3.org/2000/svg"
   xmlns:svg="http://www.w3.org/2000/svg">
  <sodipodi:namedview
     id="namedview1"
     pagecolor="#505050"
     bordercolor="#eeeeee"
     borderopacity="1"
     inkscape:showpageshadow="0"
     inkscape:pageopacity="0"
     inkscape:pagecheckerboard="0"
     inkscape:deskcolor="#d1d1d1"
     inkscape:document-units="mm"
     inkscape:zoom="5.709669"
     inkscape:cx="447.57411"
     inkscape:cy="449.93852"
     inkscape:window-width="2271"
     inkscape:window-height="1224"
     inkscape:window-x="220"
     inkscape:window-y="117"
     inkscape:window-maximized="0"
     inkscape:current-layer="layer1" />
  <defs
     id="defs1">
    <inkscape:path-effect
       effect="offset"
       id="path-effect8"
       is_visible="true"
       lpeversion="1.3"
       linejoin_type="miter"
       unit="mm"
       offset="0.5"
       miter_limit="4"
       attempt_force_join="false"
       update_on_knot_move="true" />
    <inkscape:path-effect
       effect="fillet_chamfer"
       id="path-effect7"
       is_visible="true"
       lpeversion="1"
       nodesatellites_param="F,0,0,1,0,2,0,1 @ F,0,0,1,0,2,0,1 @ F,0,0,1,0,2,0,1 @ F,0,0,1,0,2,0,1 @ F,0,0,1,0,2,0,1 @ F,0,0,1,0,2,0,1 @ F,0,0,1,0,2,0,1 @ F,0,0,1,0,2,0,1 @ F,0,0,1,0,2,0,1 @ F,0,0,1,0,2,0,1 @ F,0,0,1,0,2,0,1 @ F,0,0,1,0,2,0,1 @ F,0,0,1,0,2,0,1 @ F,0,0,1,0,2,0,1 @ F,0,0,1,0,2,0,1 @ F,0,0,1,0,2,0,1 @ F,0,0,1,0,2,0,1 @ F,0,0,1,0,2,0,1 @ F,0,0,1,0,2,0,1 @ F,0,0,1,0,2,0,1 @ F,0,0,1,0,2,0,1 @ F,0,0,1,0,2,0,1"
       radius="2"
       unit="px"
       method="auto"
       mode="F"
       chamfer_steps="1"
       flexible="false"
       use_knot_distance="true"
       apply_no_radius="true"
       apply_with_radius="true"
       only_selected="false"
       hide_knots="false" />
    <inkscape:path-effect
       effect="offset"
       id="path-effect3"
       is_visible="true"
       lpeversion="1.3"
       linejoin_type="miter"
       unit="mm"
       offset="0"
       miter_limit="4"
       attempt_force_join="false"
       update_on_knot_move="true" />
    <inkscape:path-effect
       effect="fillet_chamfer"
       id="path-effect2"
       is_visible="true"
       lpeversion="1"
       nodesatellites_param="F,0,0,1,0,2,0,1 @ F,0,0,1,0,2,0,1 @ F,0,0,1,0,2,0,1 @ F,0,0,1,0,2,0,1"
       radius="2"
       unit="px"
       method="auto"
       mode="F"
       chamfer_steps="1"
       flexible="false"
       use_knot_distance="true"
       apply_no_radius="true"
       apply_with_radius="true"
       only_selected="false"
       hide_knots="false" />
    <inkscape:path-effect
       effect="fillet_chamfer"
       id="path-effect2-4"
       is_visible="true"
       lpeversion="1"
       nodesatellites_param="F,0,0,1,0,2,0,1 @ F,0,0,1,0,2,0,1 @ F,0,0,1,0,2,0,1 @ F,0,0,1,0,2,0,1"
       radius="2"
       unit="px"
       method="auto"
       mode="F"
       chamfer_steps="1"
       flexible="false"
       use_knot_distance="true"
       apply_no_radius="true"
       apply_with_radius="true"
       only_selected="false"
       hide_knots="false" />
    <inkscape:path-effect
       effect="fillet_chamfer"
       id="path-effect2-5"
       is_visible="true"
       lpeversion="1"
       nodesatellites_param="F,0,0,1,0,2,0,1 @ F,0,0,1,0,2,0,1 @ F,0,0,1,0,2,0,1 @ F,0,0,1,0,2,0,1"
       radius="2"
       unit="px"
       method="auto"
       mode="F"
       chamfer_steps="1"
       flexible="false"
       use_knot_distance="true"
       apply_no_radius="true"
       apply_with_radius="true"
       only_selected="false"
       hide_knots="false" />
    <inkscape:path-effect
       effect="fillet_chamfer"
       id="path-effect2-2"
       is_visible="true"
       lpeversion="1"
       nodesatellites_param="F,0,0,1,0,2,0,1 @ F,0,0,1,0,2,0,1 @ F,0,0,1,0,2,0,1 @ F,0,0,1,0,2,0,1"
       radius="2"
       unit="px"
       method="auto"
       mode="F"
       chamfer_steps="1"
       flexible="false"
       use_knot_distance="true"
       apply_no_radius="true"
       apply_with_radius="true"
       only_selected="false"
       hide_knots="false" />
    <inkscape:path-effect
       effect="offset"
       id="path-effect3-7"
       is_visible="true"
       lpeversion="1.3"
       linejoin_type="miter"
       unit="mm"
       offset="2.0003216"
       miter_limit="4"
       attempt_force_join="false"
       update_on_knot_move="true" />
    <inkscape:path-effect
       effect="fillet_chamfer"
       id="path-effect2-57"
       is_visible="true"
       lpeversion="1"
       nodesatellites_param="F,0,0,1,0,2,0,1 @ F,0,0,1,0,2,0,1 @ F,0,0,1,0,2,0,1 @ F,0,0,1,0,2,0,1"
       radius="2"
       unit="px"
       method="auto"
       mode="F"
       chamfer_steps="1"
       flexible="false"
       use_knot_distance="true"
       apply_no_radius="true"
       apply_with_radius="true"
       only_selected="false"
       hide_knots="false" />
    <inkscape:path-effect
       effect="offset"
       id="path-effect3-6"
       is_visible="true"
       lpeversion="1.3"
       linejoin_type="miter"
       unit="mm"
       offset="0"
       miter_limit="4"
       attempt_force_join="false"
       update_on_knot_move="true" />
  </defs>
  <g
     inkscape:label="Layer 1"
     inkscape:groupmode="layer"
     id="layer1">
    <path
       id="path1"
       style="fill:none;fill-opacity:0;stroke:#000000;stroke-width:0.49843;stroke-linejoin:round"
       d="m 423.94727,370.26562 c -0.9469,0 -3.04276,-0.0248 -4.32813,0.20899 -4.47403,0.8137 -8.16332,3.9758 -9.22656,8.15234 -0.28071,1.10265 -0.30891,2.66283 -0.3086,3.73047 l -0.004,0.004 v 15.91211 c 0,0.13246 -0.0843,0.5299 -0.26758,0.88476 -0.18327,0.35486 -0.46204,0.66692 -0.58789,0.75977 -20.1164,14.84068 -32.25605,38.15038 -32.88672,63.14062 -0.0283,1.11964 -0.0282,2.9742 0,4.09375 0.62958,24.96425 12.74464,48.25176 32.82617,63.09571 0.1256,0.0928 0.40472,0.40631 0.58789,0.76172 0.18318,0.3554 0.26758,0.75349 0.26758,0.88671 v 12.45508 3.01953 c 0,2.02248 -0.0335,3.23404 0.30664,4.57032 1.06324,4.17655 4.75253,7.33865 9.22656,8.15234 1.28537,0.23377 3.38124,0.20898 4.32813,0.20898 h 66.72656 c 0.94689,0 3.04115,0.0247 4.32617,-0.20898 4.47393,-0.81368 8.16512,-3.97513 9.22852,-8.15234 0.2807,-1.10265 0.30891,-2.66283 0.30859,-3.73047 l 0.004,-0.004 v -16.20508 c 0,-0.13297 0.0847,-0.52869 0.26758,-0.88281 0.18293,-0.35412 0.46085,-0.66775 0.58593,-0.75977 20.16912,-14.83645 32.3474,-38.1767 32.97852,-63.20703 0.0282,-1.11955 0.0282,-2.97415 0,-4.09375 -0.63068,-25.00348 -12.78231,-48.32272 -32.91602,-63.16211 -0.12536,-0.0924 -0.40467,-0.40495 -0.58789,-0.75976 -0.18321,-0.35481 -0.26757,-0.75214 -0.26757,-0.88477 v -12.03515 -3.01953 c 0,-2.02249 0.0335,-3.23404 -0.30664,-4.57032 -1.06325,-4.17654 -4.75254,-7.33864 -9.22657,-8.15234 -1.28536,-0.23377 -3.38123,-0.20898 -4.32812,-0.20899 z"
       sodipodi:nodetypes="sscccccccsssscccscccsss"
       inkscape:path-effect="#path-effect7;#path-effect8"
       inkscape:original-d="m 421.94728,372.15626 c -5.49621,0 -9.9707,4.00029 -9.97071,8.91601 v 2.125 h -0.006 v 17.07618 c -21.16323,14.80381 -33.76909,39.00501 -33.76953,64.83203 -10e-6,25.8014 12.58058,49.98216 33.70899,64.79102 v 16.45508 1.01953 2.125 c 0,4.91573 4.47451,8.91601 9.9707,8.91601 h 70.72656 c 5.49622,0 9.9707,-4.00028 9.97071,-8.91601 v -2.125 h 0.006 v -17.36914 c 21.21597,-14.79698 33.85949,-39.03014 33.85937,-64.89649 -1.1e-4,-25.84001 -12.61826,-50.05184 -33.79883,-64.85352 v -16.03515 -1.01954 -2.125 c 0,-4.91572 -4.47451,-8.91601 -9.9707,-8.91601 z" />
    <path
       style="fill:none;fill-opacity:0;stroke:#000000;stroke-linejoin:round"
       id="rect1"
       width="75.590553"
       height="7.5590553"
       x="393.45099"
       y="188.81609"
       sodipodi:type="rect"
       d="m 395.45117,188.81641 c -1.10457,0 -2,0.89543 -2,2 v 3.55859 c 0,1.10457 0.89543,2 2,2 h 71.58985 c 1.10457,0 2,-0.89543 2,-2 v -3.55859 c 0,-1.10457 -0.89543,-2 -2,-2 z"
       transform="matrix(0.98763252,0,0,0.8836087,31.410013,212.46619)"
       inkscape:path-effect="#path-effect2;#path-effect3" />
    <path
       style="fill:none;fill-opacity:0;stroke:#000000;stroke-linejoin:round"
       id="rect1-2"
       width="75.590553"
       height="7.5590553"
       x="393.45099"
       y="188.81609"
       inkscape:path-effect="#path-effect2-4"
       sodipodi:type="rect"
       d="m 395.45099,188.81609 71.59055,0 a 2,2 45 0 1 2,2 v 3.55905 a 2,2 135 0 1 -2,2 h -71.59055 a 2,2 45 0 1 -2,-2 v -3.55905 a 2,2 135 0 1 2,-2 z"
       transform="matrix(0.98684726,0,0,0.88437222,31.218582,377.21016)" />
  </g>
</svg>
